Karma_1.ufo
<glyph name="dollar" format="1">
  <advance width="502"/>
  <unicode hex="0024"/>
  <outline>
    <contour>
      <point x="232" y="-15" type="curve" smooth="yes"/>
      <point x="147" y="-15"/>
      <point x="45" y="19"/>
      <point x="45" y="100" type="curve" smooth="yes"/>
      <point x="45" y="145"/>
      <point x="72" y="179"/>
      <point x="139" y="179" type="curve"/>
      <point x="139" y="91"/>
      <point x="174" y="59"/>
      <point x="250" y="59" type="curve" smooth="yes"/>
      <point x="315" y="59"/>
      <point x="357" y="83"/>
      <point x="357" y="137" type="curve" smooth="yes"/>
      <point x="357" y="212"/>
      <point x="292" y="245"/>
      <point x="233" y="270" type="curve" smooth="yes"/>
      <point x="148" y="307"/>
      <point x="64" y="342"/>
      <point x="64" y="441" type="curve" smooth="yes"/>
      <point x="64" y="571"/>
      <point x="169" y="629"/>
      <point x="276" y="629" type="curve" smooth="yes"/>
      <point x="340" y="629"/>
      <point x="433" y="605"/>
      <point x="433" y="517" type="curve" smooth="yes"/>
      <point x="433" y="472"/>
      <point x="400" y="439"/>
      <point x="350" y="447" type="curve"/>
      <point x="350" y="522"/>
      <point x="320" y="559"/>
      <point x="249" y="559" type="curve" smooth="yes"/>
      <point x="195" y="559"/>
      <point x="162" y="526"/>
      <point x="162" y="482" type="curve" smooth="yes"/>
      <point x="162" y="424"/>
      <point x="211" y="404"/>
      <point x="296" y="367" type="curve" smooth="yes"/>
      <point x="405" y="317"/>
      <point x="457" y="282"/>
      <point x="457" y="190" type="curve" smooth="yes"/>
      <point x="457" y="68"/>
      <point x="368" y="-15"/>
    </contour>
    <contour>
      <point x="274" y="11" type="line"/>
      <point x="286" y="-115" type="line"/>
      <point x="267" y="-125"/>
      <point x="213" y="-126"/>
      <point x="196" y="-115" type="curve"/>
      <point x="207" y="10" type="line"/>
    </contour>
    <contour>
      <point x="208" y="592" type="line"/>
      <point x="196" y="728" type="line"/>
      <point x="213" y="739"/>
      <point x="267" y="738"/>
      <point x="286" y="728" type="curve"/>
      <point x="274" y="596" type="line"/>
    </contour>
  </outline>
</glyph>
<glyph name="ampersand" format="1">
  <advance width="744"/>
  <unicode hex="0026"/>
  <outline>
    <contour>
      <point x="273" y="675" type="curve" smooth="yes"/>
      <point x="152" y="675"/>
      <point x="85" y="597"/>
      <point x="85" y="509" type="curve" smooth="yes"/>
      <point x="85" y="443"/>
      <point x="123" y="377"/>
      <point x="225" y="263" type="curve" smooth="yes"/>
      <point x="358" y="114"/>
      <point x="510" y="-17"/>
      <point x="631" y="-17" type="curve" smooth="yes"/>
      <point x="704" y="-17"/>
      <point x="731" y="32"/>
      <point x="731" y="71" type="curve" smooth="yes"/>
      <point x="731" y="88"/>
      <point x="726" y="103"/>
      <point x="717" y="111" type="curve"/>
      <point x="706" y="94"/>
      <point x="670" y="83"/>
      <point x="645" y="83" type="curve" smooth="yes"/>
      <point x="567" y="83"/>
      <point x="426" y="191"/>
      <point x="302" y="339" type="curve" smooth="yes"/>
      <point x="225" y="431"/>
      <point x="197" y="487"/>
      <point x="197" y="532" type="curve" smooth="yes"/>
      <point x="197" y="583"/>
      <point x="233" y="615"/>
      <point x="270" y="615" type="curve" smooth="yes"/>
      <point x="301" y="615"/>
      <point x="335" y="593"/>
      <point x="335" y="530" type="curve" smooth="yes"/>
      <point x="335" y="472"/>
      <point x="307" y="411"/>
      <point x="244" y="382" type="curve"/>
      <point x="274" y="339" type="line"/>
      <point x="356" y="361"/>
      <point x="441" y="427"/>
      <point x="441" y="530" type="curve" smooth="yes"/>
      <point x="441" y="621"/>
      <point x="374" y="675"/>
    </contour>
    <contour>
      <point x="227" y="372" type="line"/>
      <point x="79" y="322"/>
      <point x="35" y="233"/>
      <point x="35" y="156" type="curve" smooth="yes"/>
      <point x="35" y="58"/>
      <point x="107" y="-18"/>
      <point x="253" y="-18" type="curve" smooth="yes"/>
      <point x="417" y="-18"/>
      <point x="553" y="79"/>
      <point x="598" y="308" type="curve"/>
      <point x="521" y="302" type="line"/>
      <point x="485" y="129"/>
      <point x="382" y="66"/>
      <point x="283" y="66" type="curve" smooth="yes"/>
      <point x="201" y="66"/>
      <point x="150" y="109"/>
      <point x="150" y="177" type="curve" smooth="yes"/>
      <point x="150" y="237"/>
      <point x="190" y="305"/>
      <point x="266" y="333" type="curve"/>
    </contour>
    <contour>
      <point x="488" y="335" type="line"/>
      <point x="441" y="335"/>
      <point x="445" y="281"/>
      <point x="446" y="271" type="curve"/>
      <point x="520" y="265" type="line"/>
      <point x="579" y="267" type="line"/>
      <point x="622" y="270" type="line" smooth="yes"/>
      <point x="666" y="273"/>
      <point x="659" y="325"/>
      <point x="660" y="335" type="curve"/>
    </contour>
  </outline>
</glyph>
<glyph name="quotesingle" format="1">
  <advance width="220"/>
  <unicode hex="0027"/>
  <outline>
    <contour>
      <point x="73" y="474" type="line"/>
      <point x="100" y="467"/>
      <point x="116" y="467"/>
      <point x="140" y="474" type="curve"/>
      <point x="170" y="696" type="line"/>
      <point x="125" y="704"/>
      <point x="85" y="701"/>
      <point x="50" y="689" type="curve"/>
    </contour>
  </outline>
</glyph>
<glyph name="slash" format="1">
  <advance width="375"/>
  <unicode hex="002F"/>
  <outline>
    <contour>
      <point x="119" y="-90" type="line"/>
      <point x="355" y="697" type="line"/>
      <point x="256" y="697" type="line"/>
      <point x="20" y="-90" type="line"/>
    </contour>
  </outline>
</glyph>
<glyph name="one" format="1">
  <advance width="408"/>
  <unicode hex="0031"/>
  <outline>
    <contour>
      <point x="276" y="578" type="line"/>
      <point x="276" y="613"/>
      <point x="263" y="630"/>
      <point x="236" y="630" type="curve" smooth="yes"/>
      <point x="223" y="630"/>
      <point x="205" y="629"/>
      <point x="186" y="618" type="curve" smooth="yes"/>
      <point x="30" y="530" type="line"/>
      <point x="29" y="517"/>
      <point x="55" y="464"/>
      <point x="97" y="477" type="curve" smooth="yes"/>
      <point x="156" y="495" type="line"/>
      <point x="156" y="0" type="line"/>
      <point x="276" y="0" type="line"/>
    </contour>
    <contour>
      <point x="276" y="73" type="line"/>
      <point x="156" y="71" type="line"/>
      <point x="95" y="69" type="line" smooth="yes"/>
      <point x="46" y="67"/>
      <point x="52" y="10"/>
      <point x="51" y="0" type="curve"/>
      <point x="332" y="0" type="line" smooth="yes"/>
      <point x="382" y="0"/>
      <point x="378" y="57"/>
      <point x="377" y="67" type="curve"/>
    </contour>
  </outline>
</glyph>
<glyph name="two" format="1">
  <advance width="520"/>
  <unicode hex="0032"/>
  <outline>
    <contour>
      <point x="257" y="630" type="curve" smooth="yes"/>
      <point x="140" y="630"/>
      <point x="51" y="566"/>
      <point x="51" y="483" type="curve" smooth="yes"/>
      <point x="51" y="417"/>
      <point x="107" y="402"/>
      <point x="149" y="405" type="curve"/>
      <point x="149" y="486"/>
      <point x="166" y="553"/>
      <point x="242" y="553" type="curve" smooth="yes"/>
      <point x="304" y="553"/>
      <point x="329" y="511"/>
      <point x="329" y="457" type="curve" smooth="yes"/>
      <point x="329" y="308"/>
      <point x="141" y="155"/>
      <point x="38" y="64" type="curve"/>
      <point x="36" y="51"/>
      <point x="48" y="10"/>
      <point x="51" y="1" type="curve"/>
      <point x="487" y="1" type="line"/>
      <point x="487" y="181" type="line"/>
      <point x="461" y="188"/>
      <point x="425" y="181"/>
      <point x="421" y="142" type="curve" smooth="yes"/>
      <point x="415" y="86" type="line"/>
      <point x="191" y="86" type="line"/>
      <point x="265" y="140"/>
      <point x="456" y="292"/>
      <point x="456" y="454" type="curve" smooth="yes"/>
      <point x="456" y="555"/>
      <point x="384" y="630"/>
    </contour>
  </outline>
</glyph>
<glyph name="four" format="1">
  <advance width="498"/>
  <unicode hex="0034"/>
  <outline>
    <contour>
      <point x="394" y="629" type="line"/>
      <point x="366" y="632"/>
      <point x="337" y="629"/>
      <point x="305" y="621" type="curve"/>
      <point x="15" y="185" type="line"/>
      <point x="19" y="160"/>
      <point x="28" y="138"/>
      <point x="44" y="117" type="curve"/>
      <point x="483" y="117" type="line"/>
      <point x="483" y="197" type="line"/>
      <point x="54" y="197" type="line"/>
      <point x="99" y="181" type="line"/>
      <point x="364" y="584" type="line"/>
      <point x="274" y="533" type="line"/>
      <point x="274" y="-10" type="line"/>
      <point x="394" y="0" type="line"/>
    </contour>
  </outline>
</glyph>
<glyph name="five" format="1">
  <advance width="472"/>
  <unicode hex="0035"/>
  <outline>
    <contour>
      <point x="108" y="620" type="line"/>
      <point x="94" y="277" type="line"/>
      <point x="108" y="270" type="line"/>
      <point x="140" y="279"/>
      <point x="169" y="288"/>
      <point x="206" y="288" type="curve" smooth="yes"/>
      <point x="272" y="288"/>
      <point x="326" y="259"/>
      <point x="326" y="182" type="curve" smooth="yes"/>
      <point x="326" y="109"/>
      <point x="278" y="59"/>
      <point x="207" y="59" type="curve" smooth="yes"/>
      <point x="149" y="59"/>
      <point x="114" y="91"/>
      <point x="104" y="155" type="curve"/>
      <point x="67" y="155"/>
      <point x="40" y="131"/>
      <point x="40" y="91" type="curve" smooth="yes"/>
      <point x="40" y="27"/>
      <point x="108" y="-15"/>
      <point x="205" y="-15" type="curve" smooth="yes"/>
      <point x="341" y="-15"/>
      <point x="447" y="69"/>
      <point x="447" y="205" type="curve" smooth="yes"/>
      <point x="447" y="335"/>
      <point x="349" y="387"/>
      <point x="243" y="387" type="curve" smooth="yes"/>
      <point x="194" y="387"/>
      <point x="149" y="376"/>
      <point x="111" y="364" type="curve"/>
      <point x="171" y="368" type="line"/>
      <point x="181" y="598" type="line"/>
      <point x="128" y="525" type="line"/>
      <point x="398" y="525" type="line"/>
      <point x="408" y="620" type="line"/>
    </contour>
  </outline>
</glyph>
<glyph name="six" format="1">
  <advance width="490"/>
  <unicode hex="0036"/>
  <outline>
    <contour>
      <point x="248" y="-15" type="curve" smooth="yes"/>
      <point x="385" y="-15"/>
      <point x="467" y="74"/>
      <point x="467" y="194" type="curve" smooth="yes"/>
      <point x="467" y="314"/>
      <point x="386" y="372"/>
      <point x="293" y="372" type="curve" smooth="yes"/>
      <point x="233" y="372"/>
      <point x="168" y="348"/>
      <point x="114" y="301" type="curve"/>
      <point x="125" y="238" type="line"/>
      <point x="152" y="270"/>
      <point x="192" y="292"/>
      <point x="244" y="292" type="curve" smooth="yes"/>
      <point x="299" y="292"/>
      <point x="346" y="268"/>
      <point x="346" y="174" type="curve" smooth="yes"/>
      <point x="346" y="100"/>
      <point x="317" y="59"/>
      <point x="259" y="59" type="curve" smooth="yes"/>
      <point x="198" y="59"/>
      <point x="161" y="104"/>
      <point x="161" y="277" type="curve" smooth="yes"/>
      <point x="161" y="483"/>
      <point x="214" y="559"/>
      <point x="292" y="559" type="curve" smooth="yes"/>
      <point x="337" y="559"/>
      <point x="362" y="534"/>
      <point x="362" y="488" type="curve"/>
      <point x="421" y="484"/>
      <point x="437" y="524"/>
      <point x="437" y="550" type="curve" smooth="yes"/>
      <point x="437" y="593"/>
      <point x="392" y="630"/>
      <point x="304" y="630" type="curve" smooth="yes"/>
      <point x="141" y="630"/>
      <point x="35" y="504"/>
      <point x="35" y="271" type="curve" smooth="yes"/>
      <point x="35" y="91"/>
      <point x="98" y="-15"/>
    </contour>
  </outline>
</glyph>
<glyph name="seven" format="1">
  <advance width="421"/>
  <unicode hex="0037"/>
  <outline>
    <contour>
      <point x="30" y="620" type="line"/>
      <point x="30" y="447" type="line"/>
      <point x="38" y="440"/>
      <point x="92" y="447"/>
      <point x="95" y="475" type="curve" smooth="yes"/>
      <point x="100" y="517" type="line"/>
      <point x="305" y="517" type="line"/>
      <point x="48" y="23" type="line"/>
      <point x="165" y="-17" type="line"/>
      <point x="411" y="559" type="line"/>
      <point x="411" y="578"/>
      <point x="407" y="603"/>
      <point x="398" y="620" type="curve"/>
    </contour>
  </outline>
</glyph>
<glyph name="less" format="1">
  <advance width="506"/>
  <unicode hex="003C"/>
  <outline>
    <contour>
      <point x="30" y="303" type="line"/>
      <point x="30" y="249" type="line"/>
      <point x="406" y="56" type="line"/>
      <point x="447" y="135" type="line"/>
      <point x="102" y="308" type="line"/>
      <point x="102" y="242" type="line"/>
      <point x="452" y="421" type="line"/>
      <point x="410" y="499" type="line"/>
    </contour>
  </outline>
</glyph>
<glyph name="greater" format="1">
  <advance width="506"/>
  <unicode hex="003E"/>
  <outline>
    <contour>
      <point x="476" y="303" type="line"/>
      <point x="476" y="249" type="line"/>
      <point x="100" y="56" type="line"/>
      <point x="59" y="135" type="line"/>
      <point x="404" y="308" type="line"/>
      <point x="404" y="242" type="line"/>
      <point x="54" y="421" type="line"/>
      <point x="96" y="499" type="line"/>
    </contour>
  </outline>
</glyph>
<glyph name="question" format="1">
  <advance width="503"/>
  <unicode hex="003F"/>
  <outline>
    <contour>
      <point x="247" y="715" type="curve" smooth="yes"/>
      <point x="105" y="715"/>
      <point x="40" y="635"/>
      <point x="40" y="575" type="curve" smooth="yes"/>
      <point x="40" y="527"/>
      <point x="83" y="509"/>
      <point x="126" y="509" type="curve"/>
      <point x="126" y="542"/>
      <point x="152" y="639"/>
      <point x="241" y="639" type="curve" smooth="yes"/>
      <point x="306" y="639"/>
      <point x="336" y="587"/>
      <point x="336" y="532" type="curve" smooth="yes"/>
      <point x="336" y="435"/>
      <point x="243" y="397"/>
      <point x="157" y="375" type="curve"/>
      <point x="163" y="217" type="line"/>
      <point x="195" y="213"/>
      <point x="226" y="213"/>
      <point x="243" y="217" type="curve"/>
      <point x="249" y="318" type="line"/>
      <point x="370" y="339"/>
      <point x="463" y="425"/>
      <point x="463" y="538" type="curve" smooth="yes"/>
      <point x="463" y="644"/>
      <point x="381" y="715"/>
    </contour>
    <contour>
      <point x="203" y="143" type="curve" smooth="yes"/>
      <point x="159" y="143"/>
      <point x="124" y="108"/>
      <point x="124" y="64" type="curve" smooth="yes"/>
      <point x="124" y="20"/>
      <point x="159" y="-15"/>
      <point x="203" y="-15" type="curve" smooth="yes"/>
      <point x="247" y="-15"/>
      <point x="282" y="20"/>
      <point x="282" y="64" type="curve" smooth="yes"/>
      <point x="282" y="108"/>
      <point x="247" y="143"/>
    </contour>
  </outline>
</glyph>
<glyph name="B" format="1">
  <advance width="592"/>
  <unicode hex="0042"/>
  <outline>
    <contour>
      <point x="239" y="647" type="line"/>
      <point x="114" y="647" type="line"/>
      <point x="114" y="0" type="line"/>
      <point x="239" y="0" type="line"/>
    </contour>
    <contour>
      <point x="312" y="0" type="line"/>
      <point x="482" y="0"/>
      <point x="570" y="80"/>
      <point x="570" y="209" type="curve" smooth="yes"/>
      <point x="570" y="317"/>
      <point x="478" y="363"/>
      <point x="370" y="363" type="curve"/>
      <point x="370" y="348" type="line"/>
      <point x="484" y="370"/>
      <point x="540" y="436"/>
      <point x="540" y="525" type="curve" smooth="yes"/>
      <point x="540" y="601"/>
      <point x="484" y="685"/>
      <point x="307" y="685" type="curve" smooth="yes"/>
      <point x="80" y="685" type="line" smooth="yes"/>
      <point x="43" y="685"/>
      <point x="40" y="631"/>
      <point x="41" y="621" type="curve"/>
      <point x="115" y="615" type="line"/>
      <point x="242" y="621" type="line"/>
      <point x="280" y="623" type="line" smooth="yes"/>
      <point x="351" y="628"/>
      <point x="410" y="599"/>
      <point x="410" y="507" type="curve" smooth="yes"/>
      <point x="410" y="430"/>
      <point x="371" y="382"/>
      <point x="260" y="382" type="curve" smooth="yes"/>
      <point x="194" y="382" type="line"/>
      <point x="192" y="321" type="line"/>
      <point x="272" y="322" type="line" smooth="yes"/>
      <point x="380" y="323"/>
      <point x="442" y="287"/>
      <point x="442" y="195" type="curve" smooth="yes"/>
      <point x="442" y="119"/>
      <point x="395" y="70"/>
      <point x="287" y="71" type="curve" smooth="yes"/>
      <point x="211" y="72" type="line"/>
      <point x="115" y="70" type="line"/>
      <point x="82" y="66" type="line" smooth="yes"/>
      <point x="56" y="63"/>
      <point x="43" y="46"/>
      <point x="42" y="0" type="curve"/>
    </contour>
  </outline>
</glyph>
<glyph name="D" format="1">
  <advance width="712"/>
  <unicode hex="0044"/>
  <outline>
    <contour>
      <point x="357" y="343" type="move" name="center"/>
    </contour>
    <contour>
      <point x="324" y="685" type="move" name="top"/>
    </contour>
    <contour>
      <point x="237" y="655" type="line"/>
      <point x="112" y="658" type="line"/>
      <point x="112" y="0" type="line"/>
      <point x="237" y="0" type="line"/>
    </contour>
    <contour>
      <point x="236" y="73" type="line"/>
      <point x="112" y="70" type="line"/>
      <point x="76" y="66" type="line" smooth="yes"/>
      <point x="46" y="63"/>
      <point x="38" y="28"/>
      <point x="41" y="0" type="curve"/>
      <point x="332" y="0" type="line" smooth="yes"/>
      <point x="546" y="0"/>
      <point x="677" y="119"/>
      <point x="677" y="346" type="curve" smooth="yes"/>
      <point x="677" y="578"/>
      <point x="557" y="685"/>
      <point x="327" y="685" type="curve" smooth="yes"/>
      <point x="93" y="685" type="line" smooth="yes"/>
      <point x="50" y="685"/>
      <point x="40" y="664"/>
      <point x="41" y="620" type="curve"/>
      <point x="111" y="614" type="line"/>
      <point x="237" y="614" type="line"/>
      <point x="293" y="616" type="line" smooth="yes"/>
      <point x="472" y="622"/>
      <point x="547" y="545"/>
      <point x="547" y="338" type="curve" smooth="yes"/>
      <point x="547" y="144"/>
      <point x="476" y="58"/>
      <point x="302" y="69" type="curve" smooth="yes"/>
    </contour>
  </outline>
</glyph>
<glyph name="F" format="1">
  <advance width="529"/>
  <unicode hex="0046"/>
  <outline>
    <contour>
      <point x="514" y="685" type="line"/>
      <point x="86" y="685" type="line" smooth="yes"/>
      <point x="36" y="685"/>
      <point x="40" y="630"/>
      <point x="41" y="620" type="curve"/>
      <point x="113" y="614" type="line"/>
      <point x="113" y="69" type="line"/>
      <point x="84" y="67" type="line" smooth="yes"/>
      <point x="35" y="64"/>
      <point x="41" y="10"/>
      <point x="40" y="0" type="curve"/>
      <point x="285" y="0" type="line" smooth="yes"/>
      <point x="335" y="0"/>
      <point x="331" y="55"/>
      <point x="330" y="65" type="curve"/>
      <point x="238" y="71" type="line"/>
      <point x="238" y="306" type="line"/>
      <point x="418" y="296" type="line"/>
      <point x="424" y="327"/>
      <point x="423" y="368"/>
      <point x="417" y="395" type="curve"/>
      <point x="238" y="374" type="line"/>
      <point x="238" y="616" type="line"/>
      <point x="441" y="609" type="line"/>
      <point x="450" y="495" type="line"/>
      <point x="460" y="494"/>
      <point x="514" y="490"/>
      <point x="514" y="534" type="curve" smooth="yes"/>
    </contour>
  </outline>
</glyph>
<glyph name="H" format="1">
  <advance width="766"/>
  <unicode hex="0048"/>
  <outline>
    <contour>
      <point x="383" y="343" type="move" name="center"/>
    </contour>
    <contour>
      <point x="383" y="685" type="move" name="top"/>
    </contour>
    <contour>
      <point x="238" y="71" type="line"/>
      <point x="238" y="616" type="line"/>
      <point x="267" y="618" type="line" smooth="yes"/>
      <point x="316" y="621"/>
      <point x="310" y="675"/>
      <point x="311" y="685" type="curve"/>
      <point x="86" y="685" type="line" smooth="yes"/>
      <point x="36" y="685"/>
      <point x="40" y="630"/>
      <point x="41" y="620" type="curve"/>
      <point x="113" y="614" type="line"/>
      <point x="113" y="69" type="line"/>
      <point x="84" y="67" type="line" smooth="yes"/>
      <point x="35" y="64"/>
      <point x="41" y="10"/>
      <point x="40" y="0" type="curve"/>
      <point x="265" y="0" type="line" smooth="yes"/>
      <point x="315" y="0"/>
      <point x="311" y="55"/>
      <point x="310" y="65" type="curve"/>
    </contour>
    <contour>
      <point x="528" y="614" type="line"/>
      <point x="528" y="69" type="line"/>
      <point x="499" y="67" type="line" smooth="yes"/>
      <point x="450" y="64"/>
      <point x="456" y="10"/>
      <point x="455" y="0" type="curve"/>
      <point x="680" y="0" type="line" smooth="yes"/>
      <point x="730" y="0"/>
      <point x="726" y="55"/>
      <point x="725" y="65" type="curve"/>
      <point x="653" y="71" type="line"/>
      <point x="653" y="616" type="line"/>
      <point x="682" y="618" type="line" smooth="yes"/>
      <point x="731" y="621"/>
      <point x="725" y="675"/>
      <point x="726" y="685" type="curve"/>
      <point x="501" y="685" type="line" smooth="yes"/>
      <point x="451" y="685"/>
      <point x="455" y="630"/>
      <point x="456" y="620" type="curve"/>
    </contour>
    <contour>
      <point x="544" y="305" type="line"/>
      <point x="544" y="372" type="line"/>
      <point x="222" y="372" type="line"/>
      <point x="222" y="305" type="line"/>
    </contour>
  </outline>
</glyph>
<glyph name="M" format="1">
  <advance width="890"/>
  <unicode hex="004D"/>
  <outline>
    <contour>
      <point x="607" y="685" type="line"/>
      <point x="430" y="229" type="line"/>
      <point x="478" y="230" type="line"/>
      <point x="277" y="685" type="line"/>
      <point x="106" y="685" type="line" smooth="yes"/>
      <point x="56" y="685"/>
      <point x="60" y="630"/>
      <point x="61" y="620" type="curve"/>
      <point x="130" y="614" type="line"/>
      <point x="94" y="69" type="line"/>
      <point x="54" y="67" type="line" smooth="yes"/>
      <point x="5" y="64"/>
      <point x="11" y="10"/>
      <point x="10" y="0" type="curve"/>
      <point x="214" y="0" type="line" smooth="yes"/>
      <point x="264" y="0"/>
      <point x="260" y="55"/>
      <point x="259" y="65" type="curve"/>
      <point x="178" y="71" type="line"/>
      <point x="211" y="592" type="line"/>
      <point x="184" y="587" type="line"/>
      <point x="400" y="103" type="line"/>
      <point x="420" y="99"/>
      <point x="444" y="102"/>
      <point x="464" y="108" type="curve"/>
      <point x="660" y="595" type="line"/>
      <point x="640" y="599" type="line"/>
      <point x="679" y="69" type="line"/>
      <point x="651" y="67" type="line" smooth="yes"/>
      <point x="602" y="64"/>
      <point x="608" y="10"/>
      <point x="607" y="0" type="curve"/>
      <point x="834" y="0" type="line" smooth="yes"/>
      <point x="884" y="0"/>
      <point x="880" y="55"/>
      <point x="879" y="65" type="curve"/>
      <point x="806" y="71" type="line"/>
      <point x="765" y="614" type="line"/>
      <point x="835" y="620" type="line"/>
      <point x="836" y="630"/>
      <point x="840" y="685"/>
      <point x="790" y="685" type="curve" smooth="yes"/>
    </contour>
  </outline>
</glyph>
<glyph name="O" format="1">
  <advance width="689"/>
  <unicode hex="004F"/>
  <outline>
    <contour>
      <point x="352" y="685" type="move" name="top"/>
    </contour>
    <contour>
      <point x="360" y="700" type="curve" smooth="yes"/>
      <point x="156" y="700"/>
      <point x="35" y="564"/>
      <point x="35" y="335" type="curve" smooth="yes"/>
      <point x="35" y="115"/>
      <point x="143" y="-15"/>
      <point x="327" y="-15" type="curve" smooth="yes"/>
      <point x="533" y="-15"/>
      <point x="654" y="121"/>
      <point x="654" y="350" type="curve" smooth="yes"/>
      <point x="654" y="570"/>
      <point x="545" y="700"/>
    </contour>
    <contour>
      <point x="344" y="620" type="curve" smooth="yes"/>
      <point x="462" y="620"/>
      <point x="524" y="523"/>
      <point x="524" y="338" type="curve" smooth="yes"/>
      <point x="524" y="161"/>
      <point x="461" y="67"/>
      <point x="340" y="65" type="curve" smooth="yes"/>
      <point x="225" y="67"/>
      <point x="165" y="164"/>
      <point x="165" y="347" type="curve" smooth="yes"/>
      <point x="165" y="526"/>
      <point x="226" y="620"/>
    </contour>
  </outline>
</glyph>
<glyph name="R" format="1">
  <advance width="629"/>
  <unicode hex="0052"/>
  <outline>
    <contour>
      <point x="336" y="0" type="move" name="bottom"/>
    </contour>
    <contour>
      <point x="301" y="685" type="move" name="top"/>
    </contour>
    <contour>
      <point x="79" y="685" type="line"/>
      <point x="51" y="685"/>
      <point x="39" y="652"/>
      <point x="40" y="622" type="curve"/>
      <point x="114" y="616" type="line"/>
      <point x="240" y="622" type="line"/>
      <point x="300" y="624" type="line" smooth="yes"/>
      <point x="383" y="627"/>
      <point x="427" y="580"/>
      <point x="427" y="500" type="curve" smooth="yes"/>
      <point x="427" y="412"/>
      <point x="375" y="362"/>
      <point x="260" y="362" type="curve" smooth="yes"/>
      <point x="244" y="362"/>
      <point x="222" y="363"/>
      <point x="204" y="365" type="curve"/>
      <point x="188" y="303" type="line"/>
      <point x="219" y="300"/>
      <point x="251" y="300"/>
      <point x="279" y="300" type="curve" smooth="yes"/>
      <point x="463" y="300"/>
      <point x="557" y="383"/>
      <point x="557" y="507" type="curve" smooth="yes"/>
      <point x="557" y="624"/>
      <point x="475" y="685"/>
      <point x="309" y="685" type="curve" smooth="yes"/>
    </contour>
    <contour>
      <point x="235" y="71" type="line"/>
      <point x="113" y="69" type="line"/>
      <point x="84" y="67" type="line" smooth="yes"/>
      <point x="35" y="64"/>
      <point x="41" y="10"/>
      <point x="40" y="0" type="curve"/>
      <point x="277" y="0" type="line" smooth="yes"/>
      <point x="327" y="0"/>
      <point x="323" y="55"/>
      <point x="322" y="65" type="curve"/>
    </contour>
    <contour>
      <point x="238" y="647" type="line"/>
      <point x="113" y="647" type="line"/>
      <point x="113" y="0" type="line"/>
      <point x="238" y="0" type="line"/>
    </contour>
    <contour>
      <point x="268" y="332" type="line"/>
      <point x="305" y="205"/>
      <point x="425" y="-15"/>
      <point x="532" y="-15" type="curve" smooth="yes"/>
      <point x="586" y="-15"/>
      <point x="624" y="24"/>
      <point x="630" y="73" type="curve"/>
      <point x="543" y="73"/>
      <point x="445" y="174"/>
      <point x="367" y="342" type="curve"/>
    </contour>
  </outline>
</glyph>
<glyph name="S" format="1">
  <advance width="533"/>
  <unicode hex="0053"/>
  <outline>
    <contour>
      <point x="270" y="0" type="move" name="bottom"/>
    </contour>
    <contour>
      <point x="283" y="685" type="move" name="top"/>
    </contour>
    <contour>
      <point x="291" y="700" type="curve" smooth="yes"/>
      <point x="175" y="700"/>
      <point x="55" y="641"/>
      <point x="55" y="506" type="curve" smooth="yes"/>
      <point x="55" y="386"/>
      <point x="149" y="347"/>
      <point x="249" y="304" type="curve" smooth="yes"/>
      <point x="337" y="266"/>
      <point x="400" y="235"/>
      <point x="400" y="168" type="curve" smooth="yes"/>
      <point x="400" y="108"/>
      <point x="348" y="61"/>
      <point x="258" y="61" type="curve" smooth="yes"/>
      <point x="170" y="61"/>
      <point x="131" y="105"/>
      <point x="131" y="202" type="curve"/>
      <point x="56" y="202"/>
      <point x="25" y="163"/>
      <point x="25" y="115" type="curve" smooth="yes"/>
      <point x="25" y="22"/>
      <point x="139" y="-15"/>
      <point x="241" y="-15" type="curve" smooth="yes"/>
      <point x="405" y="-15"/>
      <point x="504" y="79"/>
      <point x="504" y="212" type="curve" smooth="yes"/>
      <point x="504" y="316"/>
      <point x="444" y="357"/>
      <point x="319" y="412" type="curve" smooth="yes"/>
      <point x="232" y="451"/>
      <point x="159" y="474"/>
      <point x="159" y="540" type="curve" smooth="yes"/>
      <point x="159" y="592"/>
      <point x="204" y="624"/>
      <point x="269" y="624" type="curve" smooth="yes"/>
      <point x="346" y="624"/>
      <point x="380" y="579"/>
      <point x="380" y="497" type="curve"/>
      <point x="435" y="489"/>
      <point x="473" y="521"/>
      <point x="473" y="578" type="curve" smooth="yes"/>
      <point x="473" y="669"/>
      <point x="375" y="700"/>
    </contour>
  </outline>
</glyph>
<glyph name="V" format="1">
  <advance width="646"/>
  <unicode hex="0056"/>
  <outline>
    <contour>
      <point x="43" y="680" type="line"/>
      <point x="265" y="0" type="line"/>
      <point x="366" y="0" type="line"/>
      <point x="598" y="679" type="line"/>
      <point x="509" y="673" type="line"/>
      <point x="301" y="33" type="line"/>
      <point x="353" y="110" type="line"/>
      <point x="183" y="680" type="line"/>
    </contour>
    <contour>
      <point x="494" y="614" type="line"/>
      <point x="575" y="616" type="line"/>
      <point x="601" y="618" type="line" smooth="yes"/>
      <point x="650" y="622"/>
      <point x="644" y="675"/>
      <point x="645" y="685" type="curve"/>
      <point x="456" y="685" type="line" smooth="yes"/>
      <point x="407" y="685"/>
      <point x="410" y="630"/>
      <point x="411" y="620" type="curve"/>
    </contour>
    <contour>
      <point x="65" y="614" type="line"/>
      <point x="200" y="616" type="line"/>
      <point x="232" y="618" type="line" smooth="yes"/>
      <point x="280" y="621"/>
      <point x="275" y="675"/>
      <point x="276" y="685" type="curve"/>
      <point x="46" y="685" type="line" smooth="yes"/>
      <point x="-4" y="685"/>
      <point x="0" y="630"/>
      <point x="1" y="620" type="curve"/>
    </contour>
  </outline>
</glyph>
<glyph name="W" format="1">
  <advance width="971"/>
  <unicode hex="0057"/>
  <outline>
    <contour>
      <point x="518" y="685" type="move" name="top"/>
    </contour>
    <contour>
      <point x="799" y="685" type="line"/>
      <point x="749" y="685"/>
      <point x="753" y="630"/>
      <point x="754" y="620" type="curve"/>
      <point x="824" y="614" type="line"/>
      <point x="673" y="95" type="line"/>
      <point x="702" y="95" type="line"/>
      <point x="552" y="616" type="line"/>
      <point x="469" y="616" type="line"/>
      <point x="300" y="92" type="line"/>
      <point x="331" y="91" type="line"/>
      <point x="197" y="616" type="line"/>
      <point x="225" y="618" type="line" smooth="yes"/>
      <point x="273" y="622"/>
      <point x="268" y="675"/>
      <point x="269" y="685" type="curve"/>
      <point x="45" y="685" type="line" smooth="yes"/>
      <point x="-4" y="685"/>
      <point x="0" y="630"/>
      <point x="1" y="620" type="curve"/>
      <point x="59" y="614" type="line"/>
      <point x="241" y="0" type="line"/>
      <point x="351" y="0" type="line"/>
      <point x="505" y="460" type="line"/>
      <point x="465" y="461" type="line"/>
      <point x="614" y="0" type="line"/>
      <point x="720" y="0" type="line"/>
      <point x="912" y="616" type="line"/>
      <point x="930" y="618" type="line" smooth="yes"/>
      <point x="979" y="623"/>
      <point x="969" y="675"/>
      <point x="970" y="685" type="curve"/>
    </contour>
  </outline>
</glyph>
<glyph name="X" format="1">
  <advance width="689"/>
  <unicode hex="0058"/>
  <outline>
    <contour>
      <point x="300" y="357" type="line"/>
      <point x="75" y="34" type="line"/>
      <point x="174" y="30" type="line"/>
      <point x="363" y="328" type="line"/>
    </contour>
    <contour>
      <point x="205" y="655" type="line"/>
      <point x="60" y="648" type="line"/>
      <point x="477" y="33" type="line"/>
      <point x="618" y="47" type="line"/>
    </contour>
    <contour>
      <point x="511" y="637" type="line"/>
      <point x="313" y="335" type="line"/>
      <point x="377" y="306" type="line"/>
      <point x="610" y="633" type="line"/>
    </contour>
    <contour>
      <point x="239" y="0" type="line"/>
      <point x="289" y="0"/>
      <point x="285" y="55"/>
      <point x="284" y="65" type="curve"/>
      <point x="201" y="71" type="line"/>
      <point x="99" y="69" type="line"/>
      <point x="63" y="67" type="line" smooth="yes"/>
      <point x="14" y="64"/>
      <point x="20" y="10"/>
      <point x="19" y="0" type="curve"/>
    </contour>
    <contour>
      <point x="497" y="614" type="line"/>
      <point x="598" y="616" type="line"/>
      <point x="634" y="618" type="line" smooth="yes"/>
      <point x="683" y="621"/>
      <point x="677" y="675"/>
      <point x="678" y="685" type="curve"/>
      <point x="459" y="685" type="line" smooth="yes"/>
      <point x="409" y="685"/>
      <point x="413" y="630"/>
      <point x="414" y="620" type="curve"/>
    </contour>
    <contour>
      <point x="601" y="71" type="line"/>
      <point x="451" y="69" type="line"/>
      <point x="419" y="67" type="line" smooth="yes"/>
      <point x="371" y="64"/>
      <point x="376" y="10"/>
      <point x="375" y="0" type="curve"/>
      <point x="631" y="0" type="line" smooth="yes"/>
      <point x="682" y="0"/>
      <point x="677" y="55"/>
      <point x="676" y="65" type="curve"/>
    </contour>
    <contour>
      <point x="86" y="614" type="line"/>
      <point x="233" y="616" type="line"/>
      <point x="265" y="618" type="line" smooth="yes"/>
      <point x="313" y="621"/>
      <point x="308" y="675"/>
      <point x="309" y="685" type="curve"/>
      <point x="56" y="685" type="line" smooth="yes"/>
      <point x="6" y="685"/>
      <point x="10" y="630"/>
      <point x="11" y="620" type="curve"/>
    </contour>
  </outline>
</glyph>
<glyph name="Y" format="1">
  <advance width="635"/>
  <unicode hex="0059"/>
  <outline>
    <contour>
      <point x="334" y="685" type="move" name="top"/>
    </contour>
    <contour>
      <point x="380" y="328" type="line"/>
      <point x="255" y="331" type="line"/>
      <point x="255" y="0" type="line"/>
      <point x="380" y="0" type="line"/>
    </contour>
    <contour>
      <point x="381" y="71" type="line"/>
      <point x="255" y="69" type="line"/>
      <point x="226" y="67" type="line" smooth="yes"/>
      <point x="177" y="64"/>
      <point x="183" y="10"/>
      <point x="182" y="0" type="curve"/>
      <point x="407" y="0" type="line" smooth="yes"/>
      <point x="457" y="0"/>
      <point x="453" y="55"/>
      <point x="452" y="65" type="curve"/>
    </contour>
    <contour>
      <point x="36" y="665" type="line"/>
      <point x="269" y="260" type="line"/>
      <point x="364" y="260" type="line"/>
      <point x="601" y="679" type="line"/>
      <point x="509" y="673" type="line"/>
      <point x="301" y="293" type="line"/>
      <point x="366" y="334" type="line"/>
      <point x="179" y="673" type="line"/>
    </contour>
    <contour>
      <point x="482" y="614" type="line"/>
      <point x="564" y="616" type="line"/>
      <point x="590" y="618" type="line" smooth="yes"/>
      <point x="639" y="622"/>
      <point x="633" y="675"/>
      <point x="634" y="685" type="curve"/>
      <point x="444" y="685" type="line" smooth="yes"/>
      <point x="394" y="685"/>
      <point x="398" y="630"/>
      <point x="399" y="620" type="curve"/>
    </contour>
    <contour>
      <point x="66" y="614" type="line"/>
      <point x="212" y="616" type="line"/>
      <point x="244" y="618" type="line" smooth="yes"/>
      <point x="292" y="621"/>
      <point x="287" y="675"/>
      <point x="288" y="685" type="curve"/>
      <point x="46" y="685" type="line" smooth="yes"/>
      <point x="-4" y="685"/>
      <point x="0" y="630"/>
      <point x="1" y="620" type="curve"/>
    </contour>
  </outline>
</glyph>
<glyph name="asciicircum" format="1">
  <advance width="518"/>
  <unicode hex="005E"/>
  <outline>
    <contour>
      <point x="293" y="653" type="line"/>
      <point x="235" y="653" type="line"/>
      <point x="60" y="204" type="line"/>
      <point x="166" y="204" type="line"/>
      <point x="281" y="506" type="line"/>
      <point x="242" y="506" type="line"/>
      <point x="352" y="204" type="line"/>
      <point x="458" y="204" type="line"/>
    </contour>
  </outline>
</glyph>
<glyph name="underscore" format="1">
  <advance width="400"/>
  <unicode hex="005F"/>
  <outline>
    <contour>
      <point x="-30" y="-70" type="line"/>
      <point x="-30" y="-145" type="line"/>
      <point x="430" y="-145" type="line"/>
      <point x="430" y="-70" type="line"/>
    </contour>
  </outline>
</glyph>
<glyph name="d" format="1">
  <advance width="577"/>
  <unicode hex="0064"/>
  <outline>
    <contour>
      <point x="297" y="253" type="move" name="center"/>
    </contour>
    <contour>
      <point x="548" y="505" type="move" name="topright"/>
    </contour>
    <contour>
      <point x="500" y="715" type="line"/>
      <point x="302" y="693" type="line"/>
      <point x="301" y="680"/>
      <point x="301" y="635"/>
      <point x="339" y="631" type="curve" smooth="yes"/>
      <point x="378" y="627" type="line"/>
      <point x="378" y="64" type="line" smooth="yes"/>
      <point x="378" y="23"/>
      <point x="405" y="-16"/>
      <point x="482" y="-16" type="curve" smooth="yes"/>
      <point x="552" y="-16"/>
      <point x="567" y="16"/>
      <point x="567" y="48" type="curve"/>
      <point x="500" y="54" type="line"/>
    </contour>
    <contour>
      <point x="427" y="476" type="line"/>
      <point x="385" y="503"/>
      <point x="349" y="520"/>
      <point x="283" y="520" type="curve" smooth="yes"/>
      <point x="113" y="520"/>
      <point x="33" y="393"/>
      <point x="35" y="229" type="curve" smooth="yes"/>
      <point x="38" y="45"/>
      <point x="142" y="-15"/>
      <point x="238" y="-15" type="curve" smooth="yes"/>
      <point x="332" y="-15"/>
      <point x="380" y="34"/>
      <point x="432" y="89" type="curve"/>
      <point x="421" y="160" type="line"/>
      <point x="366" y="101"/>
      <point x="331" y="72"/>
      <point x="279" y="72" type="curve" smooth="yes"/>
      <point x="200" y="72"/>
      <point x="162" y="140"/>
      <point x="162" y="252" type="curve" smooth="yes"/>
      <point x="162" y="342"/>
      <point x="181" y="439"/>
      <point x="275" y="439" type="curve" smooth="yes"/>
      <point x="333" y="439"/>
      <point x="382" y="401"/>
      <point x="400" y="376" type="curve"/>
    </contour>
  </outline>
</glyph>
<glyph name="e" format="1">
  <advance width="497"/>
  <unicode hex="0065"/>
  <outline>
    <contour>
      <point x="356" y="3" type="move" name="ogonek"/>
    </contour>
    <contour>
      <point x="277" y="505" type="move" name="top"/>
    </contour>
    <contour>
      <point x="277" y="520" type="curve" smooth="yes"/>
      <point x="130" y="520"/>
      <point x="35" y="421"/>
      <point x="35" y="230" type="curve" smooth="yes"/>
      <point x="35" y="72"/>
      <point x="118" y="-15"/>
      <point x="262" y="-15" type="curve" smooth="yes"/>
      <point x="381" y="-15"/>
      <point x="456" y="45"/>
      <point x="456" y="85" type="curve" smooth="yes"/>
      <point x="456" y="99"/>
      <point x="447" y="121"/>
      <point x="436" y="129" type="curve"/>
      <point x="413" y="111"/>
      <point x="368" y="74"/>
      <point x="295" y="74" type="curve" smooth="yes"/>
      <point x="191" y="74"/>
      <point x="162" y="132"/>
      <point x="162" y="234" type="curve" smooth="yes"/>
      <point x="162" y="377"/>
      <point x="198" y="440"/>
      <point x="266" y="440" type="curve" smooth="yes"/>
      <point x="325" y="440"/>
      <point x="357" y="394"/>
      <point x="348" y="254" type="curve"/>
      <point x="403" y="314" type="line"/>
      <point x="104" y="314" type="line"/>
      <point x="98" y="245" type="line"/>
      <point x="466" y="245" type="line"/>
      <point x="466" y="302" type="line" smooth="yes"/>
      <point x="468" y="425"/>
      <point x="410" y="520"/>
    </contour>
  </outline>
</glyph>
<glyph name="h" format="1">
  <advance width="649"/>
  <unicode hex="0068"/>
  <outline>
    <contour>
      <point x="327" y="253" type="move" name="center"/>
    </contour>
    <contour>
      <point x="327" y="505" type="move" name="top"/>
    </contour>
    <contour>
      <point x="375" y="520" type="curve" smooth="yes"/>
      <point x="305" y="520"/>
      <point x="261" y="487"/>
      <point x="222" y="453" type="curve"/>
      <point x="229" y="374" type="line"/>
      <point x="263" y="403"/>
      <point x="292" y="420"/>
      <point x="340" y="420" type="curve" smooth="yes"/>
      <point x="402" y="420"/>
      <point x="437" y="397"/>
      <point x="437" y="315" type="curve" smooth="yes"/>
      <point x="437" y="0" type="line"/>
      <point x="559" y="0" type="line"/>
      <point x="559" y="310" type="line" smooth="yes"/>
      <point x="559" y="463"/>
      <point x="466" y="520"/>
    </contour>
    <contour>
      <point x="229" y="71" type="line"/>
      <point x="107" y="69" type="line"/>
      <point x="76" y="67" type="line" smooth="yes"/>
      <point x="27" y="64"/>
      <point x="33" y="10"/>
      <point x="32" y="0" type="curve"/>
      <point x="255" y="0" type="line" smooth="yes"/>
      <point x="305" y="0"/>
      <point x="301" y="55"/>
      <point x="300" y="65" type="curve"/>
    </contour>
    <contour>
      <point x="229" y="714" type="line"/>
      <point x="31" y="692" type="line"/>
      <point x="30" y="679"/>
      <point x="30" y="634"/>
      <point x="68" y="630" type="curve" smooth="yes"/>
      <point x="107" y="626" type="line"/>
      <point x="107" y="0" type="line"/>
      <point x="229" y="0" type="line"/>
    </contour>
    <contour>
      <point x="559" y="71" type="line"/>
      <point x="437" y="69" type="line"/>
      <point x="408" y="67" type="line" smooth="yes"/>
      <point x="359" y="64"/>
      <point x="365" y="10"/>
      <point x="364" y="0" type="curve"/>
      <point x="585" y="0" type="line" smooth="yes"/>
      <point x="635" y="0"/>
      <point x="631" y="55"/>
      <point x="630" y="65" type="curve"/>
    </contour>
  </outline>
</glyph>
<glyph name="i" format="1">
  <advance width="319"/>
  <unicode hex="0069"/>
  <outline>
    <contour>
      <point x="293" y="10" type="move" name="ogonek"/>
    </contour>
    <contour>
      <point x="161" y="558" type="move" name="top"/>
    </contour>
    <contour>
      <point x="160" y="565" type="curve" smooth="yes"/>
      <point x="202" y="565"/>
      <point x="234" y="597"/>
      <point x="234" y="639" type="curve" smooth="yes"/>
      <point x="234" y="680"/>
      <point x="202" y="713"/>
      <point x="160" y="713" type="curve" smooth="yes"/>
      <point x="119" y="713"/>
      <point x="86" y="680"/>
      <point x="86" y="639" type="curve" smooth="yes"/>
      <point x="86" y="597"/>
      <point x="119" y="565"/>
    </contour>
    <contour>
      <point x="229" y="520" type="line"/>
      <point x="31" y="498" type="line"/>
      <point x="30" y="485"/>
      <point x="30" y="440"/>
      <point x="68" y="436" type="curve" smooth="yes"/>
      <point x="107" y="432" type="line"/>
      <point x="107" y="0" type="line"/>
      <point x="229" y="0" type="line"/>
    </contour>
    <contour>
      <point x="229" y="71" type="line"/>
      <point x="107" y="69" type="line"/>
      <point x="76" y="67" type="line" smooth="yes"/>
      <point x="27" y="64"/>
      <point x="33" y="10"/>
      <point x="32" y="0" type="curve"/>
      <point x="255" y="0" type="line" smooth="yes"/>
      <point x="305" y="0"/>
      <point x="301" y="55"/>
      <point x="300" y="65" type="curve"/>
    </contour>
  </outline>
</glyph>
<glyph name="j" format="1">
  <advance width="292"/>
  <unicode hex="006A"/>
  <outline>
    <contour>
      <point x="140" y="505" type="move" name="top"/>
    </contour>
    <contour>
      <point x="212" y="520" type="line"/>
      <point x="13" y="499" type="line"/>
      <point x="13" y="486"/>
      <point x="13" y="440"/>
      <point x="47" y="437" type="curve" smooth="yes"/>
      <point x="90" y="433" type="line"/>
      <point x="90" y="-22" type="line" smooth="yes"/>
      <point x="90" y="-143"/>
      <point x="64" y="-154"/>
      <point x="31" y="-154" type="curve" smooth="yes"/>
      <point x="3" y="-154"/>
      <point x="-8" y="-127"/>
      <point x="-8" y="-99" type="curve"/>
      <point x="-47" y="-99"/>
      <point x="-82" y="-118"/>
      <point x="-82" y="-160" type="curve" smooth="yes"/>
      <point x="-82" y="-225"/>
      <point x="-14" y="-233"/>
      <point x="3" y="-233" type="curve" smooth="yes"/>
      <point x="119" y="-234"/>
      <point x="212" y="-148"/>
      <point x="212" y="75" type="curve" smooth="yes"/>
    </contour>
    <contour>
      <point x="144" y="714" type="curve" smooth="yes"/>
      <point x="103" y="714"/>
      <point x="70" y="681"/>
      <point x="70" y="640" type="curve" smooth="yes"/>
      <point x="70" y="598"/>
      <point x="103" y="566"/>
      <point x="144" y="566" type="curve" smooth="yes"/>
      <point x="186" y="566"/>
      <point x="218" y="598"/>
      <point x="218" y="640" type="curve" smooth="yes"/>
      <point x="218" y="681"/>
      <point x="186" y="714"/>
    </contour>
  </outline>
</glyph>
<glyph name="k" format="1">
  <advance width="586"/>
  <unicode hex="006B"/>
  <outline>
    <contour>
      <point x="299" y="0" type="move" name="bottom"/>
    </contour>
    <contour>
      <point x="229" y="715" type="line"/>
      <point x="31" y="693" type="line"/>
      <point x="30" y="680"/>
      <point x="30" y="635"/>
      <point x="68" y="631" type="curve" smooth="yes"/>
      <point x="107" y="627" type="line"/>
      <point x="107" y="69" type="line"/>
      <point x="77" y="67" type="line" smooth="yes"/>
      <point x="28" y="64"/>
      <point x="34" y="10"/>
      <point x="33" y="0" type="curve"/>
      <point x="256" y="0" type="line" smooth="yes"/>
      <point x="306" y="0"/>
      <point x="302" y="55"/>
      <point x="301" y="65" type="curve"/>
      <point x="229" y="71" type="line"/>
      <point x="229" y="164" type="line"/>
      <point x="273" y="213" type="line"/>
      <point x="423" y="0" type="line"/>
      <point x="530" y="0" type="line" smooth="yes"/>
      <point x="580" y="0"/>
      <point x="581" y="53"/>
      <point x="580" y="65" type="curve"/>
      <point x="513" y="71" type="line"/>
      <point x="349" y="299" type="line"/>
      <point x="471" y="437" type="line"/>
      <point x="493" y="438" type="line" smooth="yes"/>
      <point x="542" y="441"/>
      <point x="536" y="495"/>
      <point x="537" y="505" type="curve"/>
      <point x="358" y="505" type="line" smooth="yes"/>
      <point x="308" y="505"/>
      <point x="312" y="450"/>
      <point x="313" y="440" type="curve"/>
      <point x="370" y="434" type="line"/>
      <point x="229" y="267" type="line"/>
    </contour>
  </outline>
</glyph>
<glyph name="m" format="1">
  <advance width="962"/>
  <unicode hex="006D"/>
  <outline>
    <contour>
      <point x="872" y="71" type="line"/>
      <point x="872" y="310" type="line" smooth="yes"/>
      <point x="872" y="463"/>
      <point x="779" y="520"/>
      <point x="688" y="520" type="curve" smooth="yes"/>
      <point x="618" y="520"/>
      <point x="562" y="482"/>
      <point x="519" y="441" type="curve"/>
      <point x="484" y="497"/>
      <point x="426" y="520"/>
      <point x="375" y="520" type="curve" smooth="yes"/>
      <point x="298" y="520"/>
      <point x="261" y="487"/>
      <point x="222" y="453" type="curve"/>
      <point x="219" y="453" type="line"/>
      <point x="212" y="514" type="line"/>
      <point x="31" y="492" type="line"/>
      <point x="30" y="479"/>
      <point x="30" y="434"/>
      <point x="68" y="430" type="curve" smooth="yes"/>
      <point x="107" y="426" type="line"/>
      <point x="107" y="69" type="line"/>
      <point x="76" y="67" type="line" smooth="yes"/>
      <point x="27" y="64"/>
      <point x="33" y="10"/>
      <point x="32" y="0" type="curve"/>
      <point x="255" y="0" type="line" smooth="yes"/>
      <point x="305" y="0"/>
      <point x="301" y="55"/>
      <point x="300" y="65" type="curve"/>
      <point x="229" y="71" type="line"/>
      <point x="229" y="374" type="line"/>
      <point x="263" y="403"/>
      <point x="292" y="420"/>
      <point x="336" y="420" type="curve" smooth="yes"/>
      <point x="392" y="420"/>
      <point x="429" y="396"/>
      <point x="429" y="315" type="curve" smooth="yes"/>
      <point x="429" y="69" type="line"/>
      <point x="398" y="67" type="line" smooth="yes"/>
      <point x="349" y="64"/>
      <point x="355" y="10"/>
      <point x="354" y="0" type="curve"/>
      <point x="577" y="0" type="line" smooth="yes"/>
      <point x="627" y="0"/>
      <point x="623" y="55"/>
      <point x="622" y="65" type="curve"/>
      <point x="551" y="71" type="line"/>
      <point x="551" y="310" type="line" smooth="yes"/>
      <point x="551" y="337"/>
      <point x="549" y="352"/>
      <point x="544" y="374" type="curve"/>
      <point x="575" y="401"/>
      <point x="609" y="420"/>
      <point x="653" y="420" type="curve" smooth="yes"/>
      <point x="715" y="420"/>
      <point x="750" y="396"/>
      <point x="750" y="315" type="curve" smooth="yes"/>
      <point x="750" y="69" type="line"/>
      <point x="721" y="67" type="line" smooth="yes"/>
      <point x="672" y="64"/>
      <point x="678" y="10"/>
      <point x="677" y="0" type="curve"/>
      <point x="898" y="0" type="line" smooth="yes"/>
      <point x="948" y="0"/>
      <point x="944" y="55"/>
      <point x="943" y="65" type="curve"/>
    </contour>
  </outline>
</glyph>
<glyph name="o" format="1">
  <advance width="542"/>
  <unicode hex="006F"/>
  <outline>
    <contour>
      <point x="275" y="505" type="move" name="top"/>
    </contour>
    <contour>
      <point x="282" y="520" type="curve" smooth="yes"/>
      <point x="121" y="520"/>
      <point x="35" y="415"/>
      <point x="35" y="238" type="curve" smooth="yes"/>
      <point x="35" y="78"/>
      <point x="112" y="-15"/>
      <point x="259" y="-15" type="curve" smooth="yes"/>
      <point x="420" y="-15"/>
      <point x="507" y="85"/>
      <point x="507" y="255" type="curve" smooth="yes"/>
      <point x="507" y="418"/>
      <point x="425" y="520"/>
    </contour>
    <contour>
      <point x="271" y="443" type="curve" smooth="yes"/>
      <point x="341" y="443"/>
      <point x="380" y="367"/>
      <point x="380" y="243" type="curve" smooth="yes"/>
      <point x="380" y="130"/>
      <point x="341" y="61"/>
      <point x="271" y="61" type="curve" smooth="yes"/>
      <point x="201" y="61"/>
      <point x="162" y="130"/>
      <point x="162" y="251" type="curve" smooth="yes"/>
      <point x="162" y="367"/>
      <point x="201" y="443"/>
    </contour>
  </outline>
</glyph>
<glyph name="p" format="1">
  <advance width="587"/>
  <unicode hex="0070"/>
  <outline>
    <contour>
      <point x="349" y="520" type="curve" smooth="yes"/>
      <point x="255" y="520"/>
      <point x="207" y="471"/>
      <point x="155" y="416" type="curve"/>
      <point x="166" y="345" type="line"/>
      <point x="221" y="404"/>
      <point x="256" y="433"/>
      <point x="308" y="433" type="curve" smooth="yes"/>
      <point x="387" y="433"/>
      <point x="425" y="365"/>
      <point x="425" y="253" type="curve" smooth="yes"/>
      <point x="425" y="163"/>
      <point x="406" y="66"/>
      <point x="312" y="66" type="curve" smooth="yes"/>
      <point x="254" y="66"/>
      <point x="205" y="104"/>
      <point x="187" y="129" type="curve"/>
      <point x="160" y="29" type="line"/>
      <point x="202" y="2"/>
      <point x="238" y="-15"/>
      <point x="304" y="-15" type="curve" smooth="yes"/>
      <point x="474" y="-15"/>
      <point x="554" y="112"/>
      <point x="552" y="276" type="curve" smooth="yes"/>
      <point x="549" y="460"/>
      <point x="445" y="520"/>
    </contour>
    <contour>
      <point x="210" y="-147" type="line"/>
      <point x="87" y="-149" type="line"/>
      <point x="56" y="-151" type="line" smooth="yes"/>
      <point x="7" y="-154"/>
      <point x="13" y="-208"/>
      <point x="12" y="-218" type="curve"/>
      <point x="235" y="-218" type="line" smooth="yes"/>
      <point x="285" y="-218"/>
      <point x="281" y="-163"/>
      <point x="280" y="-153" type="curve"/>
    </contour>
    <contour>
      <point x="193" y="514" type="line"/>
      <point x="13" y="491" type="line"/>
      <point x="13" y="478"/>
      <point x="12" y="435"/>
      <point x="44" y="431" type="curve" smooth="yes"/>
      <point x="87" y="426" type="line"/>
      <point x="87" y="-218" type="line"/>
      <point x="209" y="-218" type="line"/>
      <point x="209" y="419" type="line"/>
    </contour>
  </outline>
</glyph>
<glyph name="q" format="1">
  <advance width="561"/>
  <unicode hex="0071"/>
  <outline>
    <contour>
      <point x="283" y="520" type="curve" smooth="yes"/>
      <point x="113" y="520"/>
      <point x="33" y="393"/>
      <point x="35" y="229" type="curve" smooth="yes"/>
      <point x="38" y="45"/>
      <point x="142" y="-15"/>
      <point x="238" y="-15" type="curve" smooth="yes"/>
      <point x="332" y="-15"/>
      <point x="380" y="34"/>
      <point x="432" y="89" type="curve"/>
      <point x="421" y="160" type="line"/>
      <point x="366" y="101"/>
      <point x="331" y="72"/>
      <point x="279" y="72" type="curve" smooth="yes"/>
      <point x="200" y="72"/>
      <point x="162" y="140"/>
      <point x="162" y="252" type="curve" smooth="yes"/>
      <point x="162" y="342"/>
      <point x="181" y="439"/>
      <point x="275" y="439" type="curve" smooth="yes"/>
      <point x="333" y="439"/>
      <point x="382" y="401"/>
      <point x="400" y="376" type="curve"/>
      <point x="427" y="476" type="line"/>
      <point x="385" y="503"/>
      <point x="349" y="520"/>
    </contour>
    <contour>
      <point x="501" y="-147" type="line"/>
      <point x="378" y="-149" type="line"/>
      <point x="347" y="-151" type="line" smooth="yes"/>
      <point x="298" y="-154"/>
      <point x="304" y="-208"/>
      <point x="303" y="-218" type="curve"/>
      <point x="519" y="-218" type="line" smooth="yes"/>
      <point x="569" y="-218"/>
      <point x="565" y="-163"/>
      <point x="564" y="-153" type="curve"/>
    </contour>
    <contour>
      <point x="500" y="505" type="line"/>
      <point x="378" y="481" type="line"/>
      <point x="378" y="-218" type="line"/>
      <point x="500" y="-218" type="line"/>
    </contour>
  </outline>
</glyph>
<glyph name="r" format="1">
  <advance width="447"/>
  <unicode hex="0072"/>
  <outline>
    <contour>
      <point x="188" y="0" type="move" name="bottom"/>
    </contour>
    <contour>
      <point x="246" y="505" type="move" name="top"/>
    </contour>
    <contour>
      <point x="371" y="520" type="curve" smooth="yes"/>
      <point x="321" y="520"/>
      <point x="253" y="472"/>
      <point x="223" y="432" type="curve"/>
      <point x="220" y="432" type="line"/>
      <point x="211" y="515" type="line"/>
      <point x="30" y="492" type="line"/>
      <point x="30" y="479"/>
      <point x="29" y="435"/>
      <point x="61" y="432" type="curve" smooth="yes"/>
      <point x="105" y="427" type="line"/>
      <point x="105" y="69" type="line"/>
      <point x="76" y="67" type="line" smooth="yes"/>
      <point x="27" y="64"/>
      <point x="33" y="10"/>
      <point x="32" y="0" type="curve"/>
      <point x="263" y="0" type="line" smooth="yes"/>
      <point x="313" y="0"/>
      <point x="309" y="55"/>
      <point x="308" y="65" type="curve"/>
      <point x="227" y="71" type="line"/>
      <point x="227" y="354" type="line"/>
      <point x="250" y="391"/>
      <point x="283" y="419"/>
      <point x="317" y="419" type="curve" smooth="yes"/>
      <point x="337" y="419"/>
      <point x="355" y="415"/>
      <point x="355" y="344" type="curve"/>
      <point x="379" y="341"/>
      <point x="398" y="341"/>
      <point x="412" y="352" type="curve"/>
      <point x="428" y="366"/>
      <point x="445" y="395"/>
      <point x="445" y="436" type="curve" smooth="yes"/>
      <point x="445" y="496"/>
      <point x="407" y="520"/>
    </contour>
  </outline>
</glyph>
<glyph name="s" format="1">
  <advance width="434"/>
  <unicode hex="0073"/>
  <outline>
    <contour>
      <point x="230" y="0" type="move" name="bottom"/>
    </contour>
    <contour>
      <point x="226" y="505" type="move" name="top"/>
    </contour>
    <contour>
      <point x="236" y="520" type="curve" smooth="yes"/>
      <point x="136" y="520"/>
      <point x="39" y="470"/>
      <point x="39" y="368" type="curve" smooth="yes"/>
      <point x="39" y="274"/>
      <point x="122" y="233"/>
      <point x="200" y="202" type="curve" smooth="yes"/>
      <point x="261" y="178"/>
      <point x="308" y="161"/>
      <point x="308" y="116" type="curve" smooth="yes"/>
      <point x="308" y="75"/>
      <point x="268" y="61"/>
      <point x="225" y="61" type="curve" smooth="yes"/>
      <point x="153" y="61"/>
      <point x="117" y="101"/>
      <point x="109" y="163" type="curve"/>
      <point x="67" y="163"/>
      <point x="25" y="139"/>
      <point x="25" y="89" type="curve" smooth="yes"/>
      <point x="25" y="14"/>
      <point x="118" y="-15"/>
      <point x="200" y="-15" type="curve" smooth="yes"/>
      <point x="330" y="-15"/>
      <point x="409" y="59"/>
      <point x="409" y="155" type="curve" smooth="yes"/>
      <point x="409" y="248"/>
      <point x="335" y="282"/>
      <point x="254" y="315" type="curve" smooth="yes"/>
      <point x="185" y="343"/>
      <point x="136" y="364"/>
      <point x="136" y="399" type="curve" smooth="yes"/>
      <point x="136" y="425"/>
      <point x="164" y="446"/>
      <point x="204" y="446" type="curve" smooth="yes"/>
      <point x="258" y="446"/>
      <point x="303" y="407"/>
      <point x="303" y="358" type="curve"/>
      <point x="349" y="351"/>
      <point x="383" y="379"/>
      <point x="383" y="427" type="curve" smooth="yes"/>
      <point x="383" y="500"/>
      <point x="300" y="520"/>
    </contour>
  </outline>
</glyph>
<glyph name="u" format="1">
  <advance width="601"/>
  <unicode hex="0075"/>
  <outline>
    <contour>
      <point x="490" y="-26" type="move" name="ogonek"/>
    </contour>
    <contour>
      <point x="291" y="505" type="move" name="top"/>
    </contour>
    <contour>
      <point x="520" y="67" type="line"/>
      <point x="520" y="505" type="line"/>
      <point x="364" y="505" type="line" smooth="yes"/>
      <point x="315" y="505"/>
      <point x="321" y="444"/>
      <point x="320" y="434" type="curve"/>
      <point x="398" y="434" type="line"/>
      <point x="398" y="110" type="line"/>
      <point x="369" y="88"/>
      <point x="342" y="76"/>
      <point x="302" y="76" type="curve" smooth="yes"/>
      <point x="240" y="76"/>
      <point x="205" y="105"/>
      <point x="205" y="190" type="curve" smooth="yes"/>
      <point x="205" y="505" type="line"/>
      <point x="54" y="505" type="line" smooth="yes"/>
      <point x="5" y="505"/>
      <point x="11" y="444"/>
      <point x="10" y="434" type="curve"/>
      <point x="83" y="434" type="line"/>
      <point x="83" y="195" type="line" smooth="yes"/>
      <point x="83" y="42"/>
      <point x="176" y="-15"/>
      <point x="268" y="-15" type="curve" smooth="yes"/>
      <point x="333" y="-15"/>
      <point x="376" y="14"/>
      <point x="413" y="46" type="curve"/>
      <point x="434" y="-10" type="line"/>
      <point x="576" y="4" type="line"/>
      <point x="576" y="17"/>
      <point x="577" y="66"/>
      <point x="542" y="67" type="curve" smooth="yes"/>
    </contour>
  </outline>
</glyph>
<glyph name="v" format="1">
  <advance width="522"/>
  <unicode hex="0076"/>
  <outline>
    <contour>
      <point x="155" y="502" type="line"/>
      <point x="32" y="470" type="line"/>
      <point x="224" y="0" type="line"/>
      <point x="291" y="0" type="line"/>
      <point x="497" y="499" type="line"/>
      <point x="399" y="493" type="line"/>
      <point x="219" y="33" type="line"/>
      <point x="307" y="110" type="line"/>
    </contour>
    <contour>
      <point x="43" y="505" type="line"/>
      <point x="8" y="505"/>
      <point x="-1" y="469"/>
      <point x="0" y="440" type="curve"/>
      <point x="46" y="434" type="line"/>
      <point x="180" y="436" type="line"/>
      <point x="197" y="438" type="line" smooth="yes"/>
      <point x="245" y="444"/>
      <point x="240" y="495"/>
      <point x="241" y="505" type="curve"/>
    </contour>
    <contour>
      <point x="378" y="505" type="line"/>
      <point x="328" y="505"/>
      <point x="332" y="450"/>
      <point x="333" y="440" type="curve"/>
      <point x="385" y="434" type="line"/>
      <point x="470" y="436" type="line"/>
      <point x="486" y="438" type="line" smooth="yes"/>
      <point x="508" y="440"/>
      <point x="522" y="457"/>
      <point x="522" y="505" type="curve"/>
    </contour>
  </outline>
</glyph>
<glyph name="w" format="1">
  <advance width="731"/>
  <unicode hex="0077"/>
  <outline>
    <contour>
      <point x="383" y="505" type="move" name="top"/>
    </contour>
    <contour>
      <point x="161" y="502" type="line"/>
      <point x="30" y="483" type="line"/>
      <point x="187" y="0" type="line"/>
      <point x="254" y="0" type="line"/>
      <point x="377" y="326" type="line"/>
      <point x="333" y="327" type="line"/>
      <point x="443" y="0" type="line"/>
      <point x="510" y="0" type="line"/>
      <point x="704" y="499" type="line"/>
      <point x="602" y="493" type="line"/>
      <point x="466" y="100" type="line"/>
      <point x="533" y="100" type="line"/>
      <point x="424" y="457" type="line"/>
      <point x="343" y="456" type="line"/>
      <point x="220" y="101" type="line"/>
      <point x="273" y="113" type="line"/>
    </contour>
    <contour>
      <point x="43" y="505" type="line"/>
      <point x="8" y="505"/>
      <point x="-1" y="469"/>
      <point x="0" y="440" type="curve"/>
      <point x="46" y="434" type="line"/>
      <point x="180" y="436" type="line"/>
      <point x="197" y="438" type="line" smooth="yes"/>
      <point x="245" y="444"/>
      <point x="240" y="495"/>
      <point x="241" y="505" type="curve"/>
    </contour>
    <contour>
      <point x="587" y="505" type="line"/>
      <point x="537" y="505"/>
      <point x="541" y="450"/>
      <point x="542" y="440" type="curve"/>
      <point x="594" y="434" type="line"/>
      <point x="679" y="436" type="line"/>
      <point x="695" y="438" type="line" smooth="yes"/>
      <point x="717" y="440"/>
      <point x="731" y="457"/>
      <point x="731" y="505" type="curve"/>
    </contour>
  </outline>
</glyph>
<glyph name="x" format="1">
  <advance width="525"/>
  <unicode hex="0078"/>
  <outline>
    <contour>
      <point x="171" y="482" type="line"/>
      <point x="29" y="476" type="line"/>
      <point x="359" y="18" type="line"/>
      <point x="497" y="30" type="line"/>
    </contour>
    <contour>
      <point x="162" y="71" type="line"/>
      <point x="75" y="69" type="line"/>
      <point x="51" y="67" type="line" smooth="yes"/>
      <point x="2" y="63"/>
      <point x="8" y="10"/>
      <point x="7" y="0" type="curve"/>
      <point x="169" y="0" type="line" smooth="yes"/>
      <point x="219" y="0"/>
      <point x="215" y="55"/>
      <point x="214" y="65" type="curve"/>
    </contour>
    <contour>
      <point x="213" y="269" type="line"/>
      <point x="48" y="31" type="line"/>
      <point x="134" y="28" type="line"/>
      <point x="273" y="245" type="line"/>
    </contour>
    <contour>
      <point x="467" y="71" type="line"/>
      <point x="320" y="69" type="line"/>
      <point x="308" y="67" type="line" smooth="yes"/>
      <point x="260" y="59"/>
      <point x="265" y="10"/>
      <point x="264" y="0" type="curve"/>
      <point x="474" y="0" type="line" smooth="yes"/>
      <point x="524" y="0"/>
      <point x="520" y="55"/>
      <point x="519" y="65" type="curve"/>
    </contour>
    <contour>
      <point x="51" y="505" type="line"/>
      <point x="4" y="505"/>
      <point x="5" y="450"/>
      <point x="6" y="440" type="curve"/>
      <point x="61" y="434" type="line"/>
      <point x="205" y="436" type="line"/>
      <point x="213" y="438" type="line" smooth="yes"/>
      <point x="261" y="450"/>
      <point x="256" y="495"/>
      <point x="257" y="505" type="curve"/>
    </contour>
    <contour>
      <point x="391" y="479" type="line"/>
      <point x="248" y="252" type="line"/>
      <point x="309" y="228" type="line"/>
      <point x="476" y="476" type="line"/>
    </contour>
    <contour>
      <point x="364" y="505" type="line"/>
      <point x="314" y="505"/>
      <point x="318" y="450"/>
      <point x="319" y="440" type="curve"/>
      <point x="361" y="434" type="line"/>
      <point x="448" y="436" type="line"/>
      <point x="470" y="438" type="line" smooth="yes"/>
      <point x="519" y="442"/>
      <point x="513" y="495"/>
      <point x="514" y="505" type="curve"/>
    </contour>
  </outline>
</glyph>
<glyph name="z" format="1">
  <advance width="447"/>
  <unicode hex="007A"/>
  <outline>
    <contour>
      <point x="236" y="505" type="move" name="top"/>
    </contour>
    <contour>
      <point x="47" y="505" type="line"/>
      <point x="47" y="343" type="line"/>
      <point x="77" y="336"/>
      <point x="116" y="343"/>
      <point x="121" y="382" type="curve" smooth="yes"/>
      <point x="128" y="435" type="line"/>
      <point x="281" y="441" type="line"/>
      <point x="15" y="55" type="line"/>
      <point x="15" y="37"/>
      <point x="25" y="13"/>
      <point x="32" y="0" type="curve"/>
      <point x="432" y="0" type="line"/>
      <point x="432" y="164" type="line"/>
      <point x="402" y="171"/>
      <point x="363" y="164"/>
      <point x="358" y="125" type="curve"/>
      <point x="349" y="73" type="line"/>
      <point x="168" y="67" type="line"/>
      <point x="428" y="446" type="line"/>
      <point x="428" y="461"/>
      <point x="415" y="495"/>
      <point x="404" y="505" type="curve"/>
    </contour>
  </outline>
</glyph>
<glyph name="bar" format="1">
  <advance width="296"/>
  <unicode hex="007C"/>
  <outline>
    <contour>
      <point x="100" y="-193" type="line"/>
      <point x="196" y="-193" type="line"/>
      <point x="196" y="734" type="line"/>
      <point x="100" y="734" type="line"/>
    </contour>
  </outline>
</glyph>
<glyph name="asciitilde" format="1">
  <advance width="600"/>
  <unicode hex="007E"/>
  <outline>
    <contour>
      <point x="139" y="230" type="line"/>
      <point x="149" y="256"/>
      <point x="174" y="274"/>
      <point x="203" y="274" type="curve" smooth="yes"/>
      <point x="251" y="274"/>
      <point x="288" y="222"/>
      <point x="371" y="222" type="curve" smooth="yes"/>
      <point x="448" y="222"/>
      <point x="487" y="266"/>
      <point x="500" y="353" type="curve"/>
      <point x="463" y="362" type="line"/>
      <point x="455" y="333"/>
      <point x="428" y="311"/>
      <point x="388" y="311" type="curve" smooth="yes"/>
      <point x="324" y="311"/>
      <point x="295" y="370"/>
      <point x="223" y="370" type="curve" smooth="yes"/>
      <point x="156" y="370"/>
      <point x="112" y="316"/>
      <point x="100" y="242" type="curve"/>
    </contour>
  </outline>
</glyph>
<glyph name="sterling" format="1">
  <advance width="545"/>
  <unicode hex="00A3"/>
  <outline>
    <contour>
      <point x="350" y="630" type="curve" smooth="yes"/>
      <point x="180" y="630"/>
      <point x="150" y="488"/>
      <point x="146" y="389" type="curve" smooth="yes"/>
      <point x="142" y="301"/>
      <point x="145" y="164"/>
      <point x="114" y="107" type="curve" smooth="yes"/>
      <point x="100" y="82"/>
      <point x="79" y="66"/>
      <point x="46" y="57" type="curve"/>
      <point x="44" y="33"/>
      <point x="46" y="14"/>
      <point x="52" y="0" type="curve"/>
      <point x="442" y="0" type="line" smooth="yes"/>
      <point x="492" y="0"/>
      <point x="502" y="34"/>
      <point x="500" y="78" type="curve"/>
      <point x="199" y="78" type="line"/>
      <point x="215" y="89"/>
      <point x="225" y="113"/>
      <point x="233" y="145" type="curve" smooth="yes"/>
      <point x="249" y="214"/>
      <point x="251" y="318"/>
      <point x="254" y="389" type="curve" smooth="yes"/>
      <point x="259" y="485"/>
      <point x="279" y="560"/>
      <point x="338" y="560" type="curve" smooth="yes"/>
      <point x="378" y="560"/>
      <point x="406" y="533"/>
      <point x="406" y="464" type="curve"/>
      <point x="455" y="460"/>
      <point x="490" y="483"/>
      <point x="490" y="531" type="curve" smooth="yes"/>
      <point x="490" y="597"/>
      <point x="428" y="630"/>
    </contour>
    <contour>
      <point x="405" y="329" type="line"/>
      <point x="60" y="329" type="line"/>
      <point x="60" y="262" type="line"/>
      <point x="405" y="262" type="line"/>
    </contour>
  </outline>
</glyph>
<glyph name="currency" format="1">
  <advance width="602"/>
  <unicode hex="00A4"/>
  <outline>
    <contour>
      <point x="491" y="285" type="curve"/>
      <point x="491" y="330"/>
      <point x="480" y="369"/>
      <point x="460" y="400" type="curve"/>
      <point x="557" y="479" type="line"/>
      <point x="542" y="498"/>
      <point x="503" y="538"/>
      <point x="486" y="547" type="curve"/>
      <point x="405" y="452" type="line"/>
      <point x="376" y="470"/>
      <point x="339" y="479"/>
      <point x="299" y="479" type="curve" smooth="yes"/>
      <point x="260" y="479"/>
      <point x="225" y="470"/>
      <point x="195" y="454" type="curve"/>
      <point x="116" y="547" type="line"/>
      <point x="99" y="538"/>
      <point x="60" y="498"/>
      <point x="45" y="479" type="curve"/>
      <point x="140" y="403" type="line"/>
      <point x="117" y="371"/>
      <point x="105" y="331"/>
      <point x="105" y="285" type="curve" smooth="yes"/>
      <point x="105" y="239"/>
      <point x="117" y="198"/>
      <point x="140" y="168" type="curve"/>
      <point x="45" y="91" type="line"/>
      <point x="60" y="72"/>
      <point x="99" y="32"/>
      <point x="116" y="22" type="curve"/>
      <point x="197" y="117" type="line"/>
      <point x="226" y="101"/>
      <point x="261" y="93"/>
      <point x="300" y="93" type="curve" smooth="yes"/>
      <point x="339" y="93"/>
      <point x="375" y="101"/>
      <point x="404" y="119" type="curve"/>
      <point x="486" y="22" type="line"/>
      <point x="503" y="32"/>
      <point x="542" y="72"/>
      <point x="557" y="91" type="curve"/>
      <point x="460" y="170" type="line"/>
      <point x="480" y="201"/>
      <point x="491" y="240"/>
    </contour>
    <contour>
      <point x="298" y="183" type="curve" smooth="yes"/>
      <point x="238" y="183"/>
      <point x="199" y="225"/>
      <point x="199" y="285" type="curve" smooth="yes"/>
      <point x="199" y="347"/>
      <point x="238" y="388"/>
      <point x="298" y="388" type="curve" smooth="yes"/>
      <point x="356" y="388"/>
      <point x="398" y="347"/>
      <point x="398" y="285" type="curve" smooth="yes"/>
      <point x="398" y="225"/>
      <point x="356" y="183"/>
    </contour>
  </outline>
</glyph>
<glyph name="brokenbar" format="1">
  <advance width="296"/>
  <unicode hex="00A6"/>
  <outline>
    <contour>
      <point x="196" y="182" type="line"/>
      <point x="100" y="182" type="line"/>
      <point x="100" y="-193" type="line"/>
      <point x="196" y="-193" type="line"/>
    </contour>
    <contour>
      <point x="100" y="359" type="line"/>
      <point x="196" y="359" type="line"/>
      <point x="196" y="734" type="line"/>
      <point x="100" y="734" type="line"/>
    </contour>
  </outline>
</glyph>
<glyph name="section" format="1">
  <advance width="579"/>
  <unicode hex="00A7"/>
  <outline>
    <contour>
      <point x="173" y="384" type="line"/>
      <point x="119" y="354"/>
      <point x="80" y="302"/>
      <point x="80" y="225" type="curve" smooth="yes"/>
      <point x="80" y="105"/>
      <point x="174" y="66"/>
      <point x="274" y="23" type="curve" smooth="yes"/>
      <point x="362" y="-15"/>
      <point x="425" y="-46"/>
      <point x="425" y="-113" type="curve" smooth="yes"/>
      <point x="425" y="-173"/>
      <point x="373" y="-220"/>
      <point x="283" y="-220" type="curve" smooth="yes"/>
      <point x="195" y="-220"/>
      <point x="156" y="-176"/>
      <point x="156" y="-79" type="curve"/>
      <point x="81" y="-79"/>
      <point x="50" y="-118"/>
      <point x="50" y="-166" type="curve" smooth="yes"/>
      <point x="50" y="-259"/>
      <point x="164" y="-296"/>
      <point x="266" y="-296" type="curve" smooth="yes"/>
      <point x="430" y="-296"/>
      <point x="529" y="-202"/>
      <point x="529" y="-69" type="curve" smooth="yes"/>
      <point x="529" y="35"/>
      <point x="469" y="76"/>
      <point x="344" y="131" type="curve" smooth="yes"/>
      <point x="257" y="170"/>
      <point x="184" y="193"/>
      <point x="184" y="259" type="curve" smooth="yes"/>
      <point x="184" y="291"/>
      <point x="201" y="316"/>
      <point x="230" y="330" type="curve"/>
    </contour>
    <contour>
      <point x="392" y="8" type="line"/>
      <point x="479" y="43"/>
      <point x="529" y="118"/>
      <point x="529" y="212" type="curve" smooth="yes"/>
      <point x="529" y="316"/>
      <point x="469" y="357"/>
      <point x="344" y="412" type="curve" smooth="yes"/>
      <point x="257" y="451"/>
      <point x="184" y="474"/>
      <point x="184" y="540" type="curve" smooth="yes"/>
      <point x="184" y="592"/>
      <point x="229" y="624"/>
      <point x="294" y="624" type="curve" smooth="yes"/>
      <point x="371" y="624"/>
      <point x="405" y="579"/>
      <point x="405" y="497" type="curve"/>
      <point x="460" y="489"/>
      <point x="498" y="521"/>
      <point x="498" y="578" type="curve" smooth="yes"/>
      <point x="498" y="669"/>
      <point x="400" y="700"/>
      <point x="316" y="700" type="curve" smooth="yes"/>
      <point x="200" y="700"/>
      <point x="80" y="641"/>
      <point x="80" y="506" type="curve" smooth="yes"/>
      <point x="80" y="386"/>
      <point x="174" y="347"/>
      <point x="274" y="304" type="curve" smooth="yes"/>
      <point x="362" y="266"/>
      <point x="425" y="235"/>
      <point x="425" y="168" type="curve" smooth="yes"/>
      <point x="425" y="126"/>
      <point x="399" y="90"/>
      <point x="353" y="73" type="curve"/>
    </contour>
  </outline>
</glyph>
<glyph name="copyright" format="1">
  <advance width="716"/>
  <unicode hex="00A9"/>
  <outline>
    <contour>
      <point x="359" y="620" type="curve" smooth="yes"/>
      <point x="166" y="620"/>
      <point x="50" y="488"/>
      <point x="50" y="309" type="curve" smooth="yes"/>
      <point x="50" y="120"/>
      <point x="172" y="2"/>
      <point x="359" y="2" type="curve" smooth="yes"/>
      <point x="544" y="2"/>
      <point x="666" y="125"/>
      <point x="666" y="310" type="curve" smooth="yes"/>
      <point x="666" y="500"/>
      <point x="538" y="620"/>
    </contour>
    <contour>
      <point x="359" y="540" type="curve" smooth="yes"/>
      <point x="488" y="540"/>
      <point x="578" y="455"/>
      <point x="578" y="310" type="curve" smooth="yes"/>
      <point x="578" y="169"/>
      <point x="493" y="82"/>
      <point x="359" y="82" type="curve" smooth="yes"/>
      <point x="223" y="82"/>
      <point x="139" y="169"/>
      <point x="139" y="309" type="curve" smooth="yes"/>
      <point x="139" y="448"/>
      <point x="220" y="540"/>
    </contour>
    <contour>
      <point x="474" y="402" type="curve" smooth="yes"/>
      <point x="474" y="442"/>
      <point x="435" y="468"/>
      <point x="376" y="468" type="curve" smooth="yes"/>
      <point x="287" y="468"/>
      <point x="230" y="410"/>
      <point x="230" y="301" type="curve" smooth="yes"/>
      <point x="230" y="218"/>
      <point x="282" y="158"/>
      <point x="362" y="158" type="curve" smooth="yes"/>
      <point x="427" y="158"/>
      <point x="479" y="190"/>
      <point x="479" y="215" type="curve" smooth="yes"/>
      <point x="479" y="220"/>
      <point x="475" y="241"/>
      <point x="466" y="247" type="curve"/>
      <point x="446" y="229"/>
      <point x="422" y="217"/>
      <point x="390" y="217" type="curve" smooth="yes"/>
      <point x="331" y="217"/>
      <point x="313" y="262"/>
      <point x="313" y="325" type="curve" smooth="yes"/>
      <point x="313" y="377"/>
      <point x="335" y="411"/>
      <point x="370" y="411" type="curve" smooth="yes"/>
      <point x="408" y="411"/>
      <point x="423" y="381"/>
      <point x="423" y="359" type="curve"/>
      <point x="442" y="356"/>
      <point x="474" y="366"/>
    </contour>
  </outline>
</glyph>
<glyph name="ordfeminine" format="1">
  <advance width="377"/>
  <unicode hex="00AA"/>
  <outline>
    <contour>
      <point x="306" y="-16" type="move" name="ogonek"/>
    </contour>
    <contour>
      <point x="185" y="324" type="move" name="top"/>
    </contour>
    <contour>
      <point x="187" y="633" type="curve" smooth="yes"/>
      <point x="105" y="633"/>
      <point x="60" y="601"/>
      <point x="60" y="560" type="curve" smooth="yes"/>
      <point x="60" y="528"/>
      <point x="88" y="512"/>
      <point x="124" y="516" type="curve"/>
      <point x="124" y="563"/>
      <point x="150" y="574"/>
      <point x="180" y="574" type="curve" smooth="yes"/>
      <point x="211" y="574"/>
      <point x="234" y="555"/>
      <point x="234" y="492" type="curve" smooth="yes"/>
      <point x="234" y="354" type="line" smooth="yes"/>
      <point x="234" y="323"/>
      <point x="250" y="291"/>
      <point x="307" y="291" type="curve" smooth="yes"/>
      <point x="354" y="291"/>
      <point x="362" y="317"/>
      <point x="362" y="333" type="curve"/>
      <point x="323" y="338" type="line"/>
      <point x="323" y="498" type="line" smooth="yes"/>
      <point x="323" y="580"/>
      <point x="287" y="633"/>
    </contour>
    <contour>
      <point x="182" y="478" type="curve" smooth="yes"/>
      <point x="77" y="478"/>
      <point x="37" y="436"/>
      <point x="37" y="381" type="curve" smooth="yes"/>
      <point x="37" y="324"/>
      <point x="80" y="291"/>
      <point x="144" y="291" type="curve" smooth="yes"/>
      <point x="199" y="291"/>
      <point x="242" y="316"/>
      <point x="280" y="367" type="curve"/>
      <point x="276" y="403" type="line"/>
      <point x="250" y="381"/>
      <point x="219" y="353"/>
      <point x="177" y="353" type="curve" smooth="yes"/>
      <point x="144" y="353"/>
      <point x="132" y="366"/>
      <point x="132" y="385" type="curve" smooth="yes"/>
      <point x="132" y="418"/>
      <point x="162" y="426"/>
      <point x="190" y="426" type="curve" smooth="yes"/>
      <point x="219" y="426"/>
      <point x="266" y="415"/>
      <point x="298" y="373" type="curve"/>
      <point x="293" y="456" type="line"/>
      <point x="265" y="472"/>
      <point x="221" y="478"/>
    </contour>
  </outline>
</glyph>
<glyph name="logicalnot" format="1">
  <advance width="508"/>
  <unicode hex="00AC"/>
  <outline>
    <contour>
      <point x="50" y="312" type="line"/>
      <point x="50" y="232" type="line"/>
      <point x="458" y="232" type="line"/>
      <point x="458" y="312" type="line"/>
    </contour>
    <contour>
      <point x="458" y="311" type="line"/>
      <point x="378" y="311" type="line"/>
      <point x="377" y="111" type="line"/>
      <point x="457" y="111" type="line"/>
    </contour>
  </outline>
</glyph>
<glyph name="registered" format="1">
  <advance width="631"/>
  <unicode hex="00AE"/>
  <outline>
    <contour>
      <point x="319" y="726" type="curve" smooth="yes"/>
      <point x="161" y="726"/>
      <point x="50" y="620"/>
      <point x="50" y="458" type="curve" smooth="yes"/>
      <point x="50" y="296"/>
      <point x="160" y="191"/>
      <point x="316" y="190" type="curve" smooth="yes"/>
      <point x="471" y="191"/>
      <point x="581" y="293"/>
      <point x="581" y="457" type="curve" smooth="yes"/>
      <point x="581" y="612"/>
      <point x="482" y="726"/>
    </contour>
    <contour>
      <point x="317" y="660" type="curve" smooth="yes"/>
      <point x="435" y="660"/>
      <point x="506" y="579"/>
      <point x="506" y="457" type="curve" smooth="yes"/>
      <point x="506" y="330"/>
      <point x="428" y="256"/>
      <point x="316" y="256" type="curve" smooth="yes"/>
      <point x="203" y="256"/>
      <point x="125" y="333"/>
      <point x="125" y="458" type="curve" smooth="yes"/>
      <point x="125" y="583"/>
      <point x="203" y="660"/>
    </contour>
    <contour>
      <point x="226" y="596" type="line"/>
      <point x="215" y="596"/>
      <point x="209" y="574"/>
      <point x="209" y="561" type="curve"/>
      <point x="239" y="558" type="line"/>
      <point x="294" y="561" type="line"/>
      <point x="317" y="561" type="line" smooth="yes"/>
      <point x="356" y="561"/>
      <point x="361" y="539"/>
      <point x="361" y="525" type="curve" smooth="yes"/>
      <point x="361" y="497"/>
      <point x="341" y="483"/>
      <point x="296" y="483" type="curve" smooth="yes"/>
      <point x="291" y="483"/>
      <point x="285" y="483"/>
      <point x="279" y="484" type="curve"/>
      <point x="270" y="450" type="line"/>
      <point x="283" y="449"/>
      <point x="294" y="449"/>
      <point x="305" y="449" type="curve" smooth="yes"/>
      <point x="384" y="449"/>
      <point x="418" y="484"/>
      <point x="418" y="529" type="curve" smooth="yes"/>
      <point x="418" y="576"/>
      <point x="380" y="596"/>
      <point x="317" y="596" type="curve" smooth="yes"/>
    </contour>
    <contour>
      <point x="292" y="377" type="line"/>
      <point x="238" y="376" type="line"/>
      <point x="229" y="376" type="line" smooth="yes"/>
      <point x="208" y="374"/>
      <point x="210" y="344"/>
      <point x="210" y="340" type="curve"/>
      <point x="308" y="340" type="line" smooth="yes"/>
      <point x="331" y="340"/>
      <point x="330" y="371"/>
      <point x="329" y="375" type="curve"/>
    </contour>
    <contour>
      <point x="294" y="580" type="line"/>
      <point x="238" y="580" type="line"/>
      <point x="238" y="340" type="line"/>
      <point x="294" y="340" type="line"/>
    </contour>
    <contour>
      <point x="297" y="464" type="line"/>
      <point x="311" y="419"/>
      <point x="356" y="335"/>
      <point x="408" y="335" type="curve" smooth="yes"/>
      <point x="429" y="335"/>
      <point x="448" y="349"/>
      <point x="451" y="372" type="curve"/>
      <point x="414" y="372"/>
      <point x="376" y="410"/>
      <point x="346" y="469" type="curve"/>
    </contour>
  </outline>
</glyph>
<glyph name="plusminus" format="1">
  <advance width="508"/>
  <unicode hex="00B1"/>
  <outline>
    <contour>
      <point x="50" y="307" type="line"/>
      <point x="50" y="227" type="line"/>
      <point x="458" y="227" type="line"/>
      <point x="458" y="307" type="line"/>
    </contour>
    <contour>
      <point x="296" y="471" type="line"/>
      <point x="214" y="471" type="line"/>
      <point x="214" y="129" type="line"/>
      <point x="296" y="129" type="line"/>
    </contour>
    <contour>
      <point x="50" y="80" type="line"/>
      <point x="50" y="0" type="line"/>
      <point x="458" y="0" type="line"/>
      <point x="458" y="80" type="line"/>
    </contour>
  </outline>
</glyph>
<glyph name="threesuperior" format="1">
  <advance width="325"/>
  <unicode hex="00B3"/>
  <outline>
    <contour>
      <point x="168" y="631" type="curve" smooth="yes"/>
      <point x="91" y="631"/>
      <point x="56" y="601"/>
      <point x="56" y="566" type="curve" smooth="yes"/>
      <point x="56" y="545"/>
      <point x="68" y="529"/>
      <point x="106" y="529" type="curve"/>
      <point x="109" y="549"/>
      <point x="119" y="581"/>
      <point x="159" y="581" type="curve" smooth="yes"/>
      <point x="182" y="581"/>
      <point x="195" y="568"/>
      <point x="195" y="550" type="curve" smooth="yes"/>
      <point x="195" y="498"/>
      <point x="131" y="484"/>
      <point x="101" y="484" type="curve"/>
      <point x="102" y="431" type="line"/>
      <point x="158" y="435"/>
      <point x="209" y="427"/>
      <point x="209" y="376" type="curve" smooth="yes"/>
      <point x="209" y="345"/>
      <point x="185" y="324"/>
      <point x="148" y="324" type="curve" smooth="yes"/>
      <point x="111" y="324"/>
      <point x="86" y="346"/>
      <point x="86" y="374" type="curve"/>
      <point x="52" y="374"/>
      <point x="35" y="356"/>
      <point x="35" y="336" type="curve" smooth="yes"/>
      <point x="35" y="305"/>
      <point x="76" y="274"/>
      <point x="154" y="274" type="curve" smooth="yes"/>
      <point x="253" y="274"/>
      <point x="305" y="324"/>
      <point x="305" y="381" type="curve" smooth="yes"/>
      <point x="305" y="443"/>
      <point x="243" y="485"/>
      <point x="131" y="469" type="curve"/>
      <point x="138" y="461" type="line"/>
      <point x="274" y="472"/>
      <point x="291" y="523"/>
      <point x="291" y="553" type="curve" smooth="yes"/>
      <point x="291" y="602"/>
      <point x="243" y="631"/>
    </contour>
  </outline>
</glyph>
<glyph name="acute" format="1">
  <advance width="600"/>
  <unicode hex="00B4"/>
  <outline>
    <contour>
      <point x="240" y="505" type="move" name="_top"/>
    </contour>
    <contour>
      <point x="407" y="662" type="line"/>
      <point x="397" y="683"/>
      <point x="359" y="723"/>
      <point x="325" y="730" type="curve"/>
      <point x="158" y="593" type="line"/>
      <point x="164" y="579"/>
      <point x="176" y="564"/>
      <point x="200" y="552" type="curve"/>
    </contour>
  </outline>
</glyph>
<glyph name="uni00B5" format="1">
  <advance width="586"/>
  <unicode hex="00B5"/>
  <outline>
    <contour>
      <point x="185" y="505" type="line"/>
      <point x="63" y="505" type="line"/>
      <point x="63" y="195" type="line" smooth="yes"/>
      <point x="63" y="42"/>
      <point x="156" y="-15"/>
      <point x="248" y="-15" type="curve" smooth="yes"/>
      <point x="313" y="-15"/>
      <point x="356" y="14"/>
      <point x="393" y="46" type="curve"/>
      <point x="378" y="110" type="line"/>
      <point x="349" y="88"/>
      <point x="322" y="76"/>
      <point x="282" y="76" type="curve" smooth="yes"/>
      <point x="220" y="76"/>
      <point x="185" y="105"/>
      <point x="185" y="190" type="curve" smooth="yes"/>
    </contour>
    <contour>
      <point x="65" y="183" type="line"/>
      <point x="60" y="-226" type="line"/>
      <point x="71" y="-239"/>
      <point x="165" y="-240"/>
      <point x="185" y="-226" type="curve"/>
      <point x="178" y="77" type="line"/>
    </contour>
    <contour>
      <point x="496" y="505" type="line"/>
      <point x="374" y="505" type="line"/>
      <point x="374" y="83" type="line" smooth="yes"/>
      <point x="374" y="32"/>
      <point x="397" y="-15"/>
      <point x="478" y="-15" type="curve" smooth="yes"/>
      <point x="546" y="-15"/>
      <point x="561" y="17"/>
      <point x="561" y="45" type="curve"/>
      <point x="496" y="53" type="line"/>
    </contour>
  </outline>
</glyph>
<glyph name="periodcentered" format="1">
  <advance width="246"/>
  <unicode hex="00B7"/>
  <outline>
    <contour>
      <point x="123" y="198" type="curve" smooth="yes"/>
      <point x="170" y="198"/>
      <point x="206" y="234"/>
      <point x="206" y="281" type="curve" smooth="yes"/>
      <point x="206" y="327"/>
      <point x="170" y="364"/>
      <point x="123" y="364" type="curve" smooth="yes"/>
      <point x="77" y="364"/>
      <point x="40" y="327"/>
      <point x="40" y="281" type="curve" smooth="yes"/>
      <point x="40" y="234"/>
      <point x="77" y="198"/>
    </contour>
  </outline>
</glyph>
<glyph name="onehalf" format="1">
  <advance width="740"/>
  <unicode hex="00BD"/>
  <outline>
    <contour>
      <point x="598" y="630" type="line"/>
      <point x="493" y="630" type="line"/>
      <point x="137" y="0" type="line"/>
      <point x="242" y="0" type="line"/>
    </contour>
    <contour>
      <point x="190" y="327" type="line"/>
      <point x="100" y="326" type="line"/>
      <point x="66" y="324" type="line" smooth="yes"/>
      <point x="34" y="322"/>
      <point x="38" y="282"/>
      <point x="37" y="276" type="curve"/>
      <point x="221" y="276" type="line" smooth="yes"/>
      <point x="254" y="276"/>
      <point x="251" y="317"/>
      <point x="251" y="323" type="curve"/>
    </contour>
    <contour>
      <point x="167" y="625" type="curve" smooth="yes"/>
      <point x="158" y="625"/>
      <point x="132" y="624"/>
      <point x="119" y="617" type="curve" smooth="yes"/>
      <point x="19" y="562" type="line"/>
      <point x="18" y="554"/>
      <point x="35" y="516"/>
      <point x="62" y="524" type="curve" smooth="yes"/>
      <point x="100" y="536" type="line"/>
      <point x="100" y="276" type="line"/>
      <point x="190" y="276" type="line"/>
      <point x="190" y="592" type="line" smooth="yes"/>
      <point x="190" y="614"/>
      <point x="182" y="625"/>
    </contour>
    <contour>
      <point x="572" y="353" type="curve" smooth="yes"/>
      <point x="504" y="353"/>
      <point x="448" y="318"/>
      <point x="448" y="270" type="curve" smooth="yes"/>
      <point x="448" y="230"/>
      <point x="482" y="221"/>
      <point x="517" y="222" type="curve"/>
      <point x="517" y="261"/>
      <point x="532" y="303"/>
      <point x="575" y="303" type="curve" smooth="yes"/>
      <point x="599" y="303"/>
      <point x="613" y="280"/>
      <point x="613" y="253" type="curve" smooth="yes"/>
      <point x="613" y="173"/>
      <point x="503" y="97"/>
      <point x="439" y="46" type="curve"/>
      <point x="437" y="39"/>
      <point x="449" y="5"/>
      <point x="451" y="0" type="curve"/>
      <point x="721" y="0" type="line"/>
      <point x="721" y="111" type="line"/>
      <point x="703" y="116"/>
      <point x="679" y="111"/>
      <point x="677" y="90" type="curve" smooth="yes"/>
      <point x="673" y="54" type="line"/>
      <point x="490" y="54" type="line"/>
      <point x="524" y="43" type="line"/>
      <point x="565" y="61"/>
      <point x="705" y="154"/>
      <point x="705" y="255" type="curve" smooth="yes"/>
      <point x="705" y="311"/>
      <point x="661" y="353"/>
    </contour>
  </outline>
</glyph>
<glyph name="threequarters" format="1">
  <advance width="740"/>
  <unicode hex="00BE"/>
  <outline>
    <contour>
      <point x="630" y="630" type="line"/>
      <point x="525" y="630" type="line"/>
      <point x="169" y="0" type="line"/>
      <point x="274" y="0" type="line"/>
    </contour>
    <contour>
      <point x="168" y="631" type="curve" smooth="yes"/>
      <point x="91" y="631"/>
      <point x="56" y="601"/>
      <point x="56" y="566" type="curve" smooth="yes"/>
      <point x="56" y="545"/>
      <point x="68" y="529"/>
      <point x="106" y="529" type="curve"/>
      <point x="109" y="549"/>
      <point x="119" y="581"/>
      <point x="159" y="581" type="curve" smooth="yes"/>
      <point x="182" y="581"/>
      <point x="195" y="568"/>
      <point x="195" y="550" type="curve" smooth="yes"/>
      <point x="195" y="498"/>
      <point x="131" y="484"/>
      <point x="101" y="484" type="curve"/>
      <point x="102" y="431" type="line"/>
      <point x="158" y="435"/>
      <point x="209" y="427"/>
      <point x="209" y="376" type="curve" smooth="yes"/>
      <point x="209" y="345"/>
      <point x="185" y="324"/>
      <point x="148" y="324" type="curve" smooth="yes"/>
      <point x="111" y="324"/>
      <point x="86" y="346"/>
      <point x="86" y="374" type="curve"/>
      <point x="52" y="374"/>
      <point x="35" y="356"/>
      <point x="35" y="336" type="curve" smooth="yes"/>
      <point x="35" y="305"/>
      <point x="76" y="274"/>
      <point x="154" y="274" type="curve" smooth="yes"/>
      <point x="253" y="274"/>
      <point x="305" y="324"/>
      <point x="305" y="381" type="curve" smooth="yes"/>
      <point x="305" y="443"/>
      <point x="243" y="485"/>
      <point x="131" y="469" type="curve"/>
      <point x="138" y="461" type="line"/>
      <point x="274" y="472"/>
      <point x="291" y="523"/>
      <point x="291" y="553" type="curve" smooth="yes"/>
      <point x="291" y="602"/>
      <point x="243" y="631"/>
    </contour>
    <contour>
      <point x="661" y="353" type="line"/>
      <point x="642" y="355"/>
      <point x="607" y="353"/>
      <point x="586" y="349" type="curve"/>
      <point x="409" y="100" type="line"/>
      <point x="412" y="85"/>
      <point x="417" y="73"/>
      <point x="428" y="60" type="curve"/>
      <point x="706" y="60" type="line"/>
      <point x="706" y="110" type="line"/>
      <point x="439" y="110" type="line"/>
      <point x="473" y="97" type="line"/>
      <point x="634" y="328" type="line"/>
      <point x="571" y="298" type="line"/>
      <point x="571" y="-15" type="line"/>
      <point x="661" y="-10" type="line"/>
    </contour>
  </outline>
</glyph>
<glyph name="Acircumflex" format="1">
  <advance width="660"/>
  <unicode hex="00C2"/>
  <outline>
    <contour>
      <point x="178" y="71" type="line"/>
      <point x="96" y="69" type="line"/>
      <point x="57" y="67" type="line" smooth="yes"/>
      <point x="8" y="64"/>
      <point x="14" y="10"/>
      <point x="13" y="0" type="curve"/>
      <point x="214" y="0" type="line" smooth="yes"/>
      <point x="264" y="0"/>
      <point x="260" y="55"/>
      <point x="259" y="65" type="curve"/>
    </contour>
    <contour>
      <point x="574" y="71" type="line"/>
      <point x="439" y="69" type="line"/>
      <point x="410" y="67" type="line" smooth="yes"/>
      <point x="361" y="64"/>
      <point x="367" y="10"/>
      <point x="366" y="0" type="curve"/>
      <point x="600" y="0" type="line" smooth="yes"/>
      <point x="650" y="0"/>
      <point x="646" y="55"/>
      <point x="645" y="65" type="curve"/>
    </contour>
    <contour>
      <point x="172" y="281" type="line"/>
      <point x="172" y="214" type="line"/>
      <point x="444" y="214" type="line"/>
      <point x="444" y="281" type="line"/>
    </contour>
    <contour>
      <point x="455" y="13" type="line"/>
      <point x="582" y="48" type="line"/>
      <point x="387" y="685" type="line"/>
      <point x="347" y="688"/>
      <point x="326" y="689"/>
      <point x="286" y="685" type="curve"/>
      <point x="73" y="0" type="line"/>
      <point x="157" y="0" type="line"/>
      <point x="338" y="619" type="line"/>
      <point x="290" y="620" type="line"/>
    </contour>
    <contour>
      <point x="376" y="887" type="line"/>
      <point x="344" y="895"/>
      <point x="332" y="894"/>
      <point x="300" y="887" type="curve"/>
      <point x="161" y="761" type="line"/>
      <point x="171" y="742"/>
      <point x="179" y="733"/>
      <point x="196" y="723" type="curve"/>
      <point x="384" y="839" type="line"/>
      <point x="288" y="839" type="line"/>
      <point x="474" y="723" type="line"/>
      <point x="490" y="732"/>
      <point x="502" y="747"/>
      <point x="511" y="761" type="curve"/>
    </contour>
  </outline>
</glyph>
<glyph name="Atilde" format="1">
  <advance width="660"/>
  <unicode hex="00C3"/>
  <outline>
    <contour>
      <point x="178" y="71" type="line"/>
      <point x="96" y="69" type="line"/>
      <point x="57" y="67" type="line" smooth="yes"/>
      <point x="8" y="64"/>
      <point x="14" y="10"/>
      <point x="13" y="0" type="curve"/>
      <point x="214" y="0" type="line" smooth="yes"/>
      <point x="264" y="0"/>
      <point x="260" y="55"/>
      <point x="259" y="65" type="curve"/>
    </contour>
    <contour>
      <point x="574" y="71" type="line"/>
      <point x="439" y="69" type="line"/>
      <point x="410" y="67" type="line" smooth="yes"/>
      <point x="361" y="64"/>
      <point x="367" y="10"/>
      <point x="366" y="0" type="curve"/>
      <point x="600" y="0" type="line" smooth="yes"/>
      <point x="650" y="0"/>
      <point x="646" y="55"/>
      <point x="645" y="65" type="curve"/>
    </contour>
    <contour>
      <point x="172" y="281" type="line"/>
      <point x="172" y="214" type="line"/>
      <point x="444" y="214" type="line"/>
      <point x="444" y="281" type="line"/>
    </contour>
    <contour>
      <point x="455" y="13" type="line"/>
      <point x="582" y="48" type="line"/>
      <point x="387" y="685" type="line"/>
      <point x="347" y="688"/>
      <point x="326" y="689"/>
      <point x="286" y="685" type="curve"/>
      <point x="73" y="0" type="line"/>
      <point x="157" y="0" type="line"/>
      <point x="338" y="619" type="line"/>
      <point x="290" y="620" type="line"/>
    </contour>
    <contour>
      <point x="200" y="750" type="line"/>
      <point x="208" y="776"/>
      <point x="230" y="794"/>
      <point x="255" y="794" type="curve" smooth="yes"/>
      <point x="296" y="794"/>
      <point x="328" y="742"/>
      <point x="400" y="742" type="curve" smooth="yes"/>
      <point x="466" y="742"/>
      <point x="500" y="786"/>
      <point x="511" y="873" type="curve"/>
      <point x="479" y="882" type="line"/>
      <point x="472" y="853"/>
      <point x="449" y="831"/>
      <point x="414" y="831" type="curve" smooth="yes"/>
      <point x="359" y="831"/>
      <point x="334" y="890"/>
      <point x="272" y="890" type="curve" smooth="yes"/>
      <point x="214" y="890"/>
      <point x="176" y="836"/>
      <point x="166" y="762" type="curve"/>
    </contour>
  </outline>
</glyph>
<glyph name="AE" format="1">
  <advance width="904"/>
  <unicode hex="00C6"/>
  <outline>
    <contour>
      <point x="628" y="0" type="move" name="bottom"/>
    </contour>
    <contour>
      <point x="773" y="-22" type="move" name="ogonek"/>
    </contour>
    <contour>
      <point x="650" y="685" type="move" name="top"/>
    </contour>
    <contour>
      <point x="853" y="685" type="line"/>
      <point x="395" y="685" type="line"/>
      <point x="63" y="0" type="line"/>
      <point x="147" y="0" type="line"/>
      <point x="436" y="615" type="line"/>
      <point x="442" y="614" type="line"/>
      <point x="442" y="69" type="line"/>
      <point x="413" y="67" type="line" smooth="yes"/>
      <point x="364" y="64"/>
      <point x="369" y="10"/>
      <point x="369" y="0" type="curve"/>
      <point x="873" y="0" type="line"/>
      <point x="873" y="163" type="line" smooth="yes"/>
      <point x="873" y="207"/>
      <point x="819" y="203"/>
      <point x="809" y="202" type="curve"/>
      <point x="801" y="79" type="line"/>
      <point x="567" y="71" type="line"/>
      <point x="567" y="300" type="line"/>
      <point x="747" y="290" type="line"/>
      <point x="753" y="321"/>
      <point x="752" y="362"/>
      <point x="746" y="389" type="curve"/>
      <point x="567" y="368" type="line"/>
      <point x="567" y="616" type="line"/>
      <point x="780" y="613" type="line"/>
      <point x="789" y="495" type="line"/>
      <point x="799" y="494"/>
      <point x="853" y="490"/>
      <point x="853" y="534" type="curve" smooth="yes"/>
    </contour>
    <contour>
      <point x="178" y="71" type="line"/>
      <point x="96" y="69" type="line"/>
      <point x="57" y="67" type="line" smooth="yes"/>
      <point x="8" y="64"/>
      <point x="14" y="10"/>
      <point x="13" y="0" type="curve"/>
      <point x="214" y="0" type="line" smooth="yes"/>
      <point x="264" y="0"/>
      <point x="260" y="55"/>
      <point x="259" y="65" type="curve"/>
    </contour>
    <contour>
      <point x="526" y="358" type="line"/>
      <point x="254" y="358" type="line"/>
      <point x="254" y="291" type="line"/>
      <point x="526" y="291" type="line"/>
    </contour>
  </outline>
</glyph>
<glyph name="Edieresis" format="1">
  <advance width="573"/>
  <unicode hex="00CB"/>
  <outline>
    <contour>
      <point x="238" y="616" type="line"/>
      <point x="451" y="613" type="line"/>
      <point x="460" y="495" type="line"/>
      <point x="470" y="494"/>
      <point x="524" y="490"/>
      <point x="524" y="534" type="curve" smooth="yes"/>
      <point x="524" y="685" type="line"/>
      <point x="86" y="685" type="line" smooth="yes"/>
      <point x="36" y="685"/>
      <point x="40" y="630"/>
      <point x="41" y="620" type="curve"/>
      <point x="113" y="614" type="line"/>
      <point x="113" y="69" type="line"/>
      <point x="84" y="67" type="line" smooth="yes"/>
      <point x="35" y="64"/>
      <point x="40" y="10"/>
      <point x="40" y="0" type="curve"/>
      <point x="543" y="0" type="line"/>
      <point x="543" y="163" type="line" smooth="yes"/>
      <point x="543" y="207"/>
      <point x="489" y="203"/>
      <point x="479" y="202" type="curve"/>
      <point x="471" y="79" type="line"/>
      <point x="238" y="71" type="line"/>
      <point x="238" y="300" type="line"/>
      <point x="418" y="290" type="line"/>
      <point x="424" y="321"/>
      <point x="423" y="362"/>
      <point x="417" y="389" type="curve"/>
      <point x="238" y="368" type="line"/>
    </contour>
    <contour>
      <point x="221" y="754" type="curve" smooth="yes"/>
      <point x="260" y="754"/>
      <point x="291" y="785"/>
      <point x="291" y="824" type="curve" smooth="yes"/>
      <point x="291" y="862"/>
      <point x="260" y="894"/>
      <point x="221" y="894" type="curve" smooth="yes"/>
      <point x="182" y="894"/>
      <point x="150" y="862"/>
      <point x="150" y="824" type="curve" smooth="yes"/>
      <point x="150" y="785"/>
      <point x="182" y="754"/>
    </contour>
    <contour>
      <point x="411" y="754" type="curve" smooth="yes"/>
      <point x="451" y="754"/>
      <point x="482" y="785"/>
      <point x="482" y="824" type="curve" smooth="yes"/>
      <point x="482" y="862"/>
      <point x="451" y="894"/>
      <point x="411" y="894" type="curve" smooth="yes"/>
      <point x="373" y="894"/>
      <point x="341" y="862"/>
      <point x="341" y="824" type="curve" smooth="yes"/>
      <point x="341" y="785"/>
      <point x="373" y="754"/>
    </contour>
  </outline>
</glyph>
<glyph name="Iacute" format="1">
  <advance width="351"/>
  <unicode hex="00CD"/>
  <outline>
    <contour>
      <point x="238" y="655" type="line"/>
      <point x="113" y="658" type="line"/>
      <point x="113" y="0" type="line"/>
      <point x="238" y="0" type="line"/>
    </contour>
    <contour>
      <point x="239" y="71" type="line"/>
      <point x="113" y="69" type="line"/>
      <point x="84" y="67" type="line" smooth="yes"/>
      <point x="35" y="64"/>
      <point x="41" y="10"/>
      <point x="40" y="0" type="curve"/>
      <point x="265" y="0" type="line" smooth="yes"/>
      <point x="315" y="0"/>
      <point x="311" y="55"/>
      <point x="310" y="65" type="curve"/>
    </contour>
    <contour>
      <point x="112" y="614" type="line"/>
      <point x="238" y="616" type="line"/>
      <point x="267" y="618" type="line" smooth="yes"/>
      <point x="316" y="621"/>
      <point x="310" y="675"/>
      <point x="311" y="685" type="curve"/>
      <point x="86" y="685" type="line" smooth="yes"/>
      <point x="36" y="685"/>
      <point x="40" y="630"/>
      <point x="41" y="620" type="curve"/>
    </contour>
    <contour>
      <point x="342" y="842" type="line"/>
      <point x="332" y="863"/>
      <point x="294" y="903"/>
      <point x="260" y="910" type="curve"/>
      <point x="93" y="773" type="line"/>
      <point x="99" y="759"/>
      <point x="111" y="744"/>
      <point x="135" y="732" type="curve"/>
    </contour>
  </outline>
</glyph>
<glyph name="Icircumflex" format="1">
  <advance width="351"/>
  <unicode hex="00CE"/>
  <outline>
    <contour>
      <point x="238" y="655" type="line"/>
      <point x="113" y="658" type="line"/>
      <point x="113" y="0" type="line"/>
      <point x="238" y="0" type="line"/>
    </contour>
    <contour>
      <point x="239" y="71" type="line"/>
      <point x="113" y="69" type="line"/>
      <point x="84" y="67" type="line" smooth="yes"/>
      <point x="35" y="64"/>
      <point x="41" y="10"/>
      <point x="40" y="0" type="curve"/>
      <point x="265" y="0" type="line" smooth="yes"/>
      <point x="315" y="0"/>
      <point x="311" y="55"/>
      <point x="310" y="65" type="curve"/>
    </contour>
    <contour>
      <point x="112" y="614" type="line"/>
      <point x="238" y="616" type="line"/>
      <point x="267" y="618" type="line" smooth="yes"/>
      <point x="316" y="621"/>
      <point x="310" y="675"/>
      <point x="311" y="685" type="curve"/>
      <point x="86" y="685" type="line" smooth="yes"/>
      <point x="36" y="685"/>
      <point x="40" y="630"/>
      <point x="41" y="620" type="curve"/>
    </contour>
    <contour>
      <point x="215" y="887" type="line"/>
      <point x="183" y="895"/>
      <point x="171" y="894"/>
      <point x="139" y="887" type="curve"/>
      <point x="0" y="761" type="line"/>
      <point x="10" y="742"/>
      <point x="18" y="733"/>
      <point x="35" y="723" type="curve"/>
      <point x="223" y="839" type="line"/>
      <point x="127" y="839" type="line"/>
      <point x="313" y="723" type="line"/>
      <point x="329" y="732"/>
      <point x="341" y="747"/>
      <point x="350" y="761" type="curve"/>
    </contour>
  </outline>
</glyph>
<glyph name="Ntilde" format="1">
  <advance width="694"/>
  <unicode hex="00D1"/>
  <outline>
    <contour>
      <point x="503" y="685" type="line"/>
      <point x="453" y="685"/>
      <point x="457" y="630"/>
      <point x="458" y="620" type="curve"/>
      <point x="529" y="614" type="line"/>
      <point x="529" y="174" type="line"/>
      <point x="554" y="183" type="line"/>
      <point x="217" y="685" type="line"/>
      <point x="86" y="685" type="line" smooth="yes"/>
      <point x="36" y="685"/>
      <point x="40" y="630"/>
      <point x="41" y="620" type="curve"/>
      <point x="113" y="614" type="line"/>
      <point x="113" y="69" type="line"/>
      <point x="84" y="67" type="line" smooth="yes"/>
      <point x="35" y="64"/>
      <point x="41" y="10"/>
      <point x="40" y="0" type="curve"/>
      <point x="215" y="0" type="line" smooth="yes"/>
      <point x="265" y="0"/>
      <point x="261" y="55"/>
      <point x="260" y="65" type="curve"/>
      <point x="188" y="71" type="line"/>
      <point x="188" y="561" type="line"/>
      <point x="157" y="552" type="line"/>
      <point x="527" y="-1" type="line"/>
      <point x="557" y="-1"/>
      <point x="585" y="4"/>
      <point x="604" y="13" type="curve"/>
      <point x="604" y="616" type="line"/>
      <point x="633" y="618" type="line" smooth="yes"/>
      <point x="682" y="621"/>
      <point x="676" y="675"/>
      <point x="677" y="685" type="curve"/>
    </contour>
    <contour>
      <point x="217" y="750" type="line"/>
      <point x="225" y="776"/>
      <point x="247" y="794"/>
      <point x="272" y="794" type="curve" smooth="yes"/>
      <point x="313" y="794"/>
      <point x="345" y="742"/>
      <point x="417" y="742" type="curve" smooth="yes"/>
      <point x="483" y="742"/>
      <point x="517" y="786"/>
      <point x="528" y="873" type="curve"/>
      <point x="496" y="882" type="line"/>
      <point x="489" y="853"/>
      <point x="466" y="831"/>
      <point x="431" y="831" type="curve" smooth="yes"/>
      <point x="376" y="831"/>
      <point x="351" y="890"/>
      <point x="289" y="890" type="curve" smooth="yes"/>
      <point x="231" y="890"/>
      <point x="193" y="836"/>
      <point x="183" y="762" type="curve"/>
    </contour>
  </outline>
</glyph>
<glyph name="Odieresis" format="1">
  <advance width="689"/>
  <unicode hex="00D6"/>
  <outline>
    <contour>
      <point x="360" y="700" type="curve" smooth="yes"/>
      <point x="156" y="700"/>
      <point x="35" y="564"/>
      <point x="35" y="335" type="curve" smooth="yes"/>
      <point x="35" y="115"/>
      <point x="143" y="-15"/>
      <point x="327" y="-15" type="curve" smooth="yes"/>
      <point x="533" y="-15"/>
      <point x="654" y="121"/>
      <point x="654" y="350" type="curve" smooth="yes"/>
      <point x="654" y="570"/>
      <point x="545" y="700"/>
    </contour>
    <contour>
      <point x="344" y="620" type="curve" smooth="yes"/>
      <point x="462" y="620"/>
      <point x="524" y="523"/>
      <point x="524" y="338" type="curve" smooth="yes"/>
      <point x="524" y="161"/>
      <point x="461" y="67"/>
      <point x="340" y="65" type="curve" smooth="yes"/>
      <point x="225" y="67"/>
      <point x="165" y="164"/>
      <point x="165" y="347" type="curve" smooth="yes"/>
      <point x="165" y="526"/>
      <point x="226" y="620"/>
    </contour>
    <contour>
      <point x="252" y="754" type="curve" smooth="yes"/>
      <point x="291" y="754"/>
      <point x="322" y="785"/>
      <point x="322" y="824" type="curve" smooth="yes"/>
      <point x="322" y="862"/>
      <point x="291" y="894"/>
      <point x="252" y="894" type="curve" smooth="yes"/>
      <point x="213" y="894"/>
      <point x="181" y="862"/>
      <point x="181" y="824" type="curve" smooth="yes"/>
      <point x="181" y="785"/>
      <point x="213" y="754"/>
    </contour>
    <contour>
      <point x="442" y="754" type="curve" smooth="yes"/>
      <point x="482" y="754"/>
      <point x="513" y="785"/>
      <point x="513" y="824" type="curve" smooth="yes"/>
      <point x="513" y="862"/>
      <point x="482" y="894"/>
      <point x="442" y="894" type="curve" smooth="yes"/>
      <point x="404" y="894"/>
      <point x="372" y="862"/>
      <point x="372" y="824" type="curve" smooth="yes"/>
      <point x="372" y="785"/>
      <point x="404" y="754"/>
    </contour>
  </outline>
</glyph>
<glyph name="multiply" format="1">
  <advance width="448"/>
  <unicode hex="00D7"/>
  <outline>
    <contour>
      <point x="107" y="440" type="line"/>
      <point x="50" y="383" type="line"/>
      <point x="339" y="94" type="line"/>
      <point x="396" y="151" type="line"/>
    </contour>
    <contour>
      <point x="398" y="381" type="line"/>
      <point x="339" y="440" type="line"/>
      <point x="50" y="151" type="line"/>
      <point x="109" y="92" type="line"/>
    </contour>
  </outline>
</glyph>
<glyph name="Ucircumflex" format="1">
  <advance width="669"/>
  <unicode hex="00DB"/>
  <outline>
    <contour>
      <point x="479" y="685" type="line"/>
      <point x="429" y="685"/>
      <point x="433" y="630"/>
      <point x="434" y="620" type="curve"/>
      <point x="505" y="614" type="line"/>
      <point x="506" y="263" type="line" smooth="yes"/>
      <point x="506" y="121"/>
      <point x="446" y="65"/>
      <point x="348" y="65" type="curve" smooth="yes"/>
      <point x="241" y="65"/>
      <point x="208" y="133"/>
      <point x="208" y="275" type="curve" smooth="yes"/>
      <point x="208" y="616" type="line"/>
      <point x="237" y="618" type="line" smooth="yes"/>
      <point x="286" y="621"/>
      <point x="280" y="675"/>
      <point x="281" y="685" type="curve"/>
      <point x="56" y="685" type="line" smooth="yes"/>
      <point x="6" y="685"/>
      <point x="10" y="630"/>
      <point x="11" y="620" type="curve"/>
      <point x="83" y="614" type="line"/>
      <point x="83" y="291" type="line" smooth="yes"/>
      <point x="83" y="55"/>
      <point x="183" y="-15"/>
      <point x="330" y="-15" type="curve" smooth="yes"/>
      <point x="499" y="-15"/>
      <point x="586" y="77"/>
      <point x="586" y="290" type="curve" smooth="yes"/>
      <point x="586" y="616" type="line"/>
      <point x="615" y="618" type="line" smooth="yes"/>
      <point x="664" y="621"/>
      <point x="658" y="675"/>
      <point x="659" y="685" type="curve"/>
    </contour>
    <contour>
      <point x="380" y="887" type="line"/>
      <point x="348" y="895"/>
      <point x="336" y="894"/>
      <point x="304" y="887" type="curve"/>
      <point x="165" y="761" type="line"/>
      <point x="175" y="742"/>
      <point x="183" y="733"/>
      <point x="200" y="723" type="curve"/>
      <point x="388" y="839" type="line"/>
      <point x="292" y="839" type="line"/>
      <point x="478" y="723" type="line"/>
      <point x="494" y="732"/>
      <point x="506" y="747"/>
      <point x="515" y="761" type="curve"/>
    </contour>
  </outline>
</glyph>
<glyph name="ae" format="1">
  <advance width="786"/>
  <unicode hex="00E6"/>
  <outline>
    <contour>
      <point x="428" y="-21" type="move" name="ogonek"/>
    </contour>
    <contour>
      <point x="250" y="505" type="move" name="top"/>
    </contour>
    <contour>
      <point x="564" y="520" type="curve" smooth="yes"/>
      <point x="503" y="520"/>
      <point x="445" y="501"/>
      <point x="403" y="460" type="curve"/>
      <point x="364" y="505"/>
      <point x="303" y="520"/>
      <point x="241" y="520" type="curve" smooth="yes"/>
      <point x="133" y="520"/>
      <point x="61" y="473"/>
      <point x="61" y="410" type="curve" smooth="yes"/>
      <point x="61" y="364"/>
      <point x="101" y="342"/>
      <point x="154" y="347" type="curve"/>
      <point x="154" y="400"/>
      <point x="183" y="440"/>
      <point x="239" y="440" type="curve" smooth="yes"/>
      <point x="292" y="440"/>
      <point x="324" y="405"/>
      <point x="324" y="313" type="curve" smooth="yes"/>
      <point x="324" y="269" type="line"/>
      <point x="298" y="273"/>
      <point x="270" y="275"/>
      <point x="243" y="275" type="curve" smooth="yes"/>
      <point x="85" y="275"/>
      <point x="30" y="205"/>
      <point x="30" y="124" type="curve" smooth="yes"/>
      <point x="30" y="37"/>
      <point x="94" y="-15"/>
      <point x="187" y="-15" type="curve" smooth="yes"/>
      <point x="256" y="-15"/>
      <point x="321" y="13"/>
      <point x="371" y="63" type="curve"/>
      <point x="411" y="10"/>
      <point x="474" y="-15"/>
      <point x="551" y="-15" type="curve" smooth="yes"/>
      <point x="670" y="-15"/>
      <point x="745" y="45"/>
      <point x="745" y="85" type="curve" smooth="yes"/>
      <point x="745" y="99"/>
      <point x="736" y="121"/>
      <point x="725" y="129" type="curve"/>
      <point x="684" y="96"/>
      <point x="643" y="74"/>
      <point x="582" y="74" type="curve" smooth="yes"/>
      <point x="480" y="74"/>
      <point x="451" y="133"/>
      <point x="451" y="234" type="curve" smooth="yes"/>
      <point x="451" y="238"/>
      <point x="451" y="241"/>
      <point x="451" y="245" type="curve"/>
      <point x="755" y="245" type="line"/>
      <point x="755" y="302" type="line" smooth="yes"/>
      <point x="757" y="420"/>
      <point x="704" y="520"/>
    </contour>
    <contour>
      <point x="249" y="207" type="curve" smooth="yes"/>
      <point x="271" y="207"/>
      <point x="299" y="203"/>
      <point x="324" y="194" type="curve"/>
      <point x="324" y="95" type="line"/>
      <point x="296" y="76"/>
      <point x="263" y="66"/>
      <point x="232" y="66" type="curve" smooth="yes"/>
      <point x="181" y="66"/>
      <point x="157" y="91"/>
      <point x="157" y="132" type="curve" smooth="yes"/>
      <point x="157" y="186"/>
      <point x="200" y="207"/>
    </contour>
    <contour>
      <point x="555" y="440" type="curve" smooth="yes"/>
      <point x="602" y="440"/>
      <point x="635" y="411"/>
      <point x="638" y="314" type="curve"/>
      <point x="456" y="314" type="line"/>
      <point x="467" y="396"/>
      <point x="498" y="440"/>
    </contour>
  </outline>
</glyph>
<glyph name="ecircumflex" format="1">
  <advance width="497"/>
  <unicode hex="00EA"/>
  <outline>
    <contour>
      <point x="277" y="520" type="curve" smooth="yes"/>
      <point x="130" y="520"/>
      <point x="35" y="421"/>
      <point x="35" y="230" type="curve" smooth="yes"/>
      <point x="35" y="72"/>
      <point x="118" y="-15"/>
      <point x="262" y="-15" type="curve" smooth="yes"/>
      <point x="381" y="-15"/>
      <point x="456" y="45"/>
      <point x="456" y="85" type="curve" smooth="yes"/>
      <point x="456" y="99"/>
      <point x="447" y="121"/>
      <point x="436" y="129" type="curve"/>
      <point x="413" y="111"/>
      <point x="368" y="74"/>
      <point x="295" y="74" type="curve" smooth="yes"/>
      <point x="191" y="74"/>
      <point x="162" y="132"/>
      <point x="162" y="234" type="curve" smooth="yes"/>
      <point x="162" y="377"/>
      <point x="198" y="440"/>
      <point x="266" y="440" type="curve" smooth="yes"/>
      <point x="325" y="440"/>
      <point x="357" y="394"/>
      <point x="348" y="254" type="curve"/>
      <point x="403" y="314" type="line"/>
      <point x="104" y="314" type="line"/>
      <point x="98" y="245" type="line"/>
      <point x="466" y="245" type="line"/>
      <point x="466" y="302" type="line" smooth="yes"/>
      <point x="468" y="425"/>
      <point x="410" y="520"/>
    </contour>
    <contour>
      <point x="317" y="707" type="line"/>
      <point x="285" y="715"/>
      <point x="273" y="714"/>
      <point x="241" y="707" type="curve"/>
      <point x="102" y="581" type="line"/>
      <point x="112" y="562"/>
      <point x="120" y="553"/>
      <point x="137" y="543" type="curve"/>
      <point x="325" y="659" type="line"/>
      <point x="229" y="659" type="line"/>
      <point x="415" y="543" type="line"/>
      <point x="431" y="552"/>
      <point x="443" y="567"/>
      <point x="452" y="581" type="curve"/>
    </contour>
  </outline>
</glyph>
<glyph name="otilde" format="1">
  <advance width="542"/>
  <unicode hex="00F5"/>
  <outline>
    <contour>
      <point x="282" y="520" type="curve" smooth="yes"/>
      <point x="121" y="520"/>
      <point x="35" y="415"/>
      <point x="35" y="238" type="curve" smooth="yes"/>
      <point x="35" y="78"/>
      <point x="112" y="-15"/>
      <point x="259" y="-15" type="curve" smooth="yes"/>
      <point x="420" y="-15"/>
      <point x="507" y="85"/>
      <point x="507" y="255" type="curve" smooth="yes"/>
      <point x="507" y="418"/>
      <point x="425" y="520"/>
    </contour>
    <contour>
      <point x="271" y="443" type="curve" smooth="yes"/>
      <point x="341" y="443"/>
      <point x="380" y="367"/>
      <point x="380" y="243" type="curve" smooth="yes"/>
      <point x="380" y="130"/>
      <point x="341" y="61"/>
      <point x="271" y="61" type="curve" smooth="yes"/>
      <point x="201" y="61"/>
      <point x="162" y="130"/>
      <point x="162" y="251" type="curve" smooth="yes"/>
      <point x="162" y="367"/>
      <point x="201" y="443"/>
    </contour>
    <contour>
      <point x="139" y="570" type="line"/>
      <point x="147" y="596"/>
      <point x="169" y="614"/>
      <point x="194" y="614" type="curve" smooth="yes"/>
      <point x="235" y="614"/>
      <point x="267" y="562"/>
      <point x="339" y="562" type="curve" smooth="yes"/>
      <point x="405" y="562"/>
      <point x="439" y="606"/>
      <point x="450" y="693" type="curve"/>
      <point x="418" y="702" type="line"/>
      <point x="411" y="673"/>
      <point x="388" y="651"/>
      <point x="353" y="651" type="curve" smooth="yes"/>
      <point x="298" y="651"/>
      <point x="273" y="710"/>
      <point x="211" y="710" type="curve" smooth="yes"/>
      <point x="153" y="710"/>
      <point x="115" y="656"/>
      <point x="105" y="582" type="curve"/>
    </contour>
  </outline>
</glyph>
<glyph name="ucircumflex" format="1">
  <advance width="601"/>
  <unicode hex="00FB"/>
  <outline>
    <contour>
      <point x="520" y="67" type="line"/>
      <point x="520" y="505" type="line"/>
      <point x="364" y="505" type="line" smooth="yes"/>
      <point x="315" y="505"/>
      <point x="321" y="444"/>
      <point x="320" y="434" type="curve"/>
      <point x="398" y="434" type="line"/>
      <point x="398" y="110" type="line"/>
      <point x="369" y="88"/>
      <point x="342" y="76"/>
      <point x="302" y="76" type="curve" smooth="yes"/>
      <point x="240" y="76"/>
      <point x="205" y="105"/>
      <point x="205" y="190" type="curve" smooth="yes"/>
      <point x="205" y="505" type="line"/>
      <point x="54" y="505" type="line" smooth="yes"/>
      <point x="5" y="505"/>
      <point x="11" y="444"/>
      <point x="10" y="434" type="curve"/>
      <point x="83" y="434" type="line"/>
      <point x="83" y="195" type="line" smooth="yes"/>
      <point x="83" y="42"/>
      <point x="176" y="-15"/>
      <point x="268" y="-15" type="curve" smooth="yes"/>
      <point x="333" y="-15"/>
      <point x="376" y="14"/>
      <point x="413" y="46" type="curve"/>
      <point x="434" y="-10" type="line"/>
      <point x="576" y="4" type="line"/>
      <point x="576" y="17"/>
      <point x="577" y="66"/>
      <point x="542" y="67" type="curve" smooth="yes"/>
    </contour>
    <contour>
      <point x="331" y="707" type="line"/>
      <point x="299" y="715"/>
      <point x="287" y="714"/>
      <point x="255" y="707" type="curve"/>
      <point x="116" y="581" type="line"/>
      <point x="126" y="562"/>
      <point x="134" y="553"/>
      <point x="151" y="543" type="curve"/>
      <point x="339" y="659" type="line"/>
      <point x="243" y="659" type="line"/>
      <point x="429" y="543" type="line"/>
      <point x="445" y="552"/>
      <point x="457" y="567"/>
      <point x="466" y="581" type="curve"/>
    </contour>
  </outline>
</glyph>
<glyph name="Aogonek" format="1">
  <advance width="660"/>
  <unicode hex="0104"/>
  <outline>
    <contour>
      <point x="178" y="71" type="line"/>
      <point x="96" y="69" type="line"/>
      <point x="57" y="67" type="line" smooth="yes"/>
      <point x="8" y="64"/>
      <point x="14" y="10"/>
      <point x="13" y="0" type="curve"/>
      <point x="214" y="0" type="line" smooth="yes"/>
      <point x="264" y="0"/>
      <point x="260" y="55"/>
      <point x="259" y="65" type="curve"/>
    </contour>
    <contour>
      <point x="574" y="71" type="line"/>
      <point x="439" y="69" type="line"/>
      <point x="410" y="67" type="line" smooth="yes"/>
      <point x="361" y="64"/>
      <point x="367" y="10"/>
      <point x="366" y="0" type="curve"/>
      <point x="600" y="0" type="line" smooth="yes"/>
      <point x="650" y="0"/>
      <point x="646" y="55"/>
      <point x="645" y="65" type="curve"/>
    </contour>
    <contour>
      <point x="172" y="281" type="line"/>
      <point x="172" y="214" type="line"/>
      <point x="444" y="214" type="line"/>
      <point x="444" y="281" type="line"/>
    </contour>
    <contour>
      <point x="455" y="13" type="line"/>
      <point x="582" y="48" type="line"/>
      <point x="387" y="685" type="line"/>
      <point x="347" y="688"/>
      <point x="326" y="689"/>
      <point x="286" y="685" type="curve"/>
      <point x="73" y="0" type="line"/>
      <point x="157" y="0" type="line"/>
      <point x="338" y="619" type="line"/>
      <point x="290" y="620" type="line"/>
    </contour>
    <contour>
      <point x="610" y="32" type="line"/>
      <point x="551" y="15"/>
      <point x="485" y="-33"/>
      <point x="485" y="-105" type="curve" smooth="yes"/>
      <point x="485" y="-147"/>
      <point x="518" y="-184"/>
      <point x="580" y="-184" type="curve" smooth="yes"/>
      <point x="614" y="-184"/>
      <point x="648" y="-171"/>
      <point x="662" y="-151" type="curve"/>
      <point x="664" y="-140"/>
      <point x="661" y="-114"/>
      <point x="655" y="-110" type="curve"/>
      <point x="644" y="-119"/>
      <point x="623" y="-131"/>
      <point x="603" y="-131" type="curve" smooth="yes"/>
      <point x="580" y="-131"/>
      <point x="562" y="-115"/>
      <point x="562" y="-82" type="curve" smooth="yes"/>
      <point x="562" y="-39"/>
      <point x="583" y="-12"/>
      <point x="624" y="8" type="curve"/>
    </contour>
  </outline>
</glyph>
<glyph name="aogonek" format="1">
  <advance width="521"/>
  <unicode hex="0105"/>
  <outline>
    <contour>
      <point x="240" y="520" type="curve" smooth="yes"/>
      <point x="133" y="520"/>
      <point x="61" y="473"/>
      <point x="61" y="410" type="curve" smooth="yes"/>
      <point x="61" y="363"/>
      <point x="103" y="342"/>
      <point x="154" y="347" type="curve"/>
      <point x="154" y="408"/>
      <point x="194" y="440"/>
      <point x="233" y="440" type="curve" smooth="yes"/>
      <point x="292" y="440"/>
      <point x="324" y="409"/>
      <point x="324" y="313" type="curve" smooth="yes"/>
      <point x="324" y="83" type="line" smooth="yes"/>
      <point x="324" y="32"/>
      <point x="347" y="-15"/>
      <point x="428" y="-15" type="curve" smooth="yes"/>
      <point x="496" y="-15"/>
      <point x="511" y="17"/>
      <point x="511" y="45" type="curve"/>
      <point x="446" y="53" type="line"/>
      <point x="446" y="320" type="line" smooth="yes"/>
      <point x="446" y="462"/>
      <point x="365" y="520"/>
    </contour>
    <contour>
      <point x="242" y="275" type="curve" smooth="yes"/>
      <point x="85" y="275"/>
      <point x="30" y="205"/>
      <point x="30" y="124" type="curve" smooth="yes"/>
      <point x="30" y="37"/>
      <point x="95" y="-15"/>
      <point x="186" y="-15" type="curve" smooth="yes"/>
      <point x="272" y="-15"/>
      <point x="337" y="27"/>
      <point x="387" y="95" type="curve"/>
      <point x="382" y="144" type="line"/>
      <point x="337" y="100"/>
      <point x="296" y="66"/>
      <point x="229" y="66" type="curve" smooth="yes"/>
      <point x="182" y="66"/>
      <point x="157" y="91"/>
      <point x="157" y="132" type="curve" smooth="yes"/>
      <point x="157" y="186"/>
      <point x="201" y="207"/>
      <point x="247" y="207" type="curve" smooth="yes"/>
      <point x="308" y="207"/>
      <point x="371" y="184"/>
      <point x="410" y="133" type="curve"/>
      <point x="404" y="243" type="line"/>
      <point x="366" y="265"/>
      <point x="305" y="275"/>
    </contour>
    <contour>
      <point x="481" y="30" type="line"/>
      <point x="422" y="13"/>
      <point x="356" y="-35"/>
      <point x="356" y="-107" type="curve" smooth="yes"/>
      <point x="356" y="-149"/>
      <point x="389" y="-186"/>
      <point x="451" y="-186" type="curve" smooth="yes"/>
      <point x="485" y="-186"/>
      <point x="519" y="-173"/>
      <point x="533" y="-153" type="curve"/>
      <point x="535" y="-142"/>
      <point x="532" y="-116"/>
      <point x="526" y="-112" type="curve"/>
      <point x="515" y="-121"/>
      <point x="494" y="-133"/>
      <point x="474" y="-133" type="curve" smooth="yes"/>
      <point x="451" y="-133"/>
      <point x="433" y="-117"/>
      <point x="433" y="-84" type="curve" smooth="yes"/>
      <point x="433" y="-41"/>
      <point x="454" y="-14"/>
      <point x="495" y="6" type="curve"/>
    </contour>
  </outline>
</glyph>
<glyph name="ccaron" format="1">
  <advance width="472"/>
  <unicode hex="010D"/>
  <outline>
    <contour>
      <point x="284" y="520" type="curve" smooth="yes"/>
      <point x="135" y="520"/>
      <point x="35" y="414"/>
      <point x="35" y="241" type="curve" smooth="yes"/>
      <point x="35" y="83"/>
      <point x="120" y="-15"/>
      <point x="262" y="-15" type="curve" smooth="yes"/>
      <point x="370" y="-15"/>
      <point x="455" y="46"/>
      <point x="455" y="85" type="curve" smooth="yes"/>
      <point x="455" y="96"/>
      <point x="447" y="120"/>
      <point x="433" y="129" type="curve"/>
      <point x="398" y="98"/>
      <point x="357" y="75"/>
      <point x="305" y="75" type="curve" smooth="yes"/>
      <point x="195" y="75"/>
      <point x="162" y="158"/>
      <point x="162" y="261" type="curve" smooth="yes"/>
      <point x="162" y="372"/>
      <point x="200" y="438"/>
      <point x="270" y="438" type="curve" smooth="yes"/>
      <point x="335" y="438"/>
      <point x="359" y="380"/>
      <point x="360" y="331" type="curve"/>
      <point x="394" y="327"/>
      <point x="447" y="345"/>
      <point x="447" y="407" type="curve" smooth="yes"/>
      <point x="447" y="478"/>
      <point x="378" y="520"/>
    </contour>
    <contour>
      <point x="311" y="561" type="line"/>
      <point x="279" y="553"/>
      <point x="267" y="554"/>
      <point x="235" y="561" type="curve"/>
      <point x="96" y="687" type="line"/>
      <point x="106" y="706"/>
      <point x="114" y="715"/>
      <point x="131" y="725" type="curve"/>
      <point x="319" y="609" type="line"/>
      <point x="223" y="609" type="line"/>
      <point x="409" y="725" type="line"/>
      <point x="425" y="716"/>
      <point x="437" y="701"/>
      <point x="446" y="687" type="curve"/>
    </contour>
  </outline>
</glyph>
<glyph name="dcaron" format="1">
  <advance width="701"/>
  <unicode hex="010F"/>
  <outline>
    <contour>
      <point x="556" y="761" type="curve"/>
      <point x="571" y="713"/>
      <point x="575" y="614"/>
      <point x="553" y="560" type="curve"/>
      <point x="553" y="552"/>
      <point x="592" y="533"/>
      <point x="600" y="538" type="curve"/>
      <point x="645" y="590"/>
      <point x="674" y="666"/>
      <point x="671" y="745" type="curve"/>
      <point x="659" y="775"/>
      <point x="574" y="782"/>
    </contour>
    <component base="d"/>
  </outline>
</glyph>
<glyph name="dcroat" format="1">
  <advance width="590"/>
  <unicode hex="0111"/>
  <outline>
    <contour>
      <point x="306" y="599" type="line"/>
      <point x="306" y="539" type="line"/>
      <point x="580" y="539" type="line"/>
      <point x="580" y="599" type="line"/>
    </contour>
    <component base="d"/>
  </outline>
</glyph>
<glyph name="Eogonek" format="1">
  <advance width="573"/>
  <unicode hex="0118"/>
  <outline>
    <contour>
      <point x="238" y="616" type="line"/>
      <point x="451" y="613" type="line"/>
      <point x="460" y="495" type="line"/>
      <point x="470" y="494"/>
      <point x="524" y="490"/>
      <point x="524" y="534" type="curve" smooth="yes"/>
      <point x="524" y="685" type="line"/>
      <point x="86" y="685" type="line" smooth="yes"/>
      <point x="36" y="685"/>
      <point x="40" y="630"/>
      <point x="41" y="620" type="curve"/>
      <point x="113" y="614" type="line"/>
      <point x="113" y="69" type="line"/>
      <point x="84" y="67" type="line" smooth="yes"/>
      <point x="35" y="64"/>
      <point x="40" y="10"/>
      <point x="40" y="0" type="curve"/>
      <point x="543" y="0" type="line"/>
      <point x="543" y="163" type="line" smooth="yes"/>
      <point x="543" y="207"/>
      <point x="489" y="203"/>
      <point x="479" y="202" type="curve"/>
      <point x="471" y="79" type="line"/>
      <point x="238" y="71" type="line"/>
      <point x="238" y="300" type="line"/>
      <point x="418" y="290" type="line"/>
      <point x="424" y="321"/>
      <point x="423" y="362"/>
      <point x="417" y="389" type="curve"/>
      <point x="238" y="368" type="line"/>
    </contour>
    <contour>
      <point x="497" y="29" type="line"/>
      <point x="438" y="12"/>
      <point x="372" y="-36"/>
      <point x="372" y="-108" type="curve" smooth="yes"/>
      <point x="372" y="-150"/>
      <point x="405" y="-187"/>
      <point x="467" y="-187" type="curve" smooth="yes"/>
      <point x="501" y="-187"/>
      <point x="535" y="-174"/>
      <point x="549" y="-154" type="curve"/>
      <point x="551" y="-143"/>
      <point x="548" y="-117"/>
      <point x="542" y="-113" type="curve"/>
      <point x="531" y="-122"/>
      <point x="510" y="-134"/>
      <point x="490" y="-134" type="curve" smooth="yes"/>
      <point x="467" y="-134"/>
      <point x="449" y="-118"/>
      <point x="449" y="-85" type="curve" smooth="yes"/>
      <point x="449" y="-42"/>
      <point x="470" y="-15"/>
      <point x="511" y="5" type="curve"/>
    </contour>
  </outline>
</glyph>
<glyph name="eogonek" format="1">
  <advance width="497"/>
  <unicode hex="0119"/>
  <outline>
    <contour>
      <point x="277" y="520" type="curve" smooth="yes"/>
      <point x="130" y="520"/>
      <point x="35" y="421"/>
      <point x="35" y="230" type="curve" smooth="yes"/>
      <point x="35" y="72"/>
      <point x="118" y="-15"/>
      <point x="262" y="-15" type="curve" smooth="yes"/>
      <point x="381" y="-15"/>
      <point x="456" y="45"/>
      <point x="456" y="85" type="curve" smooth="yes"/>
      <point x="456" y="99"/>
      <point x="447" y="121"/>
      <point x="436" y="129" type="curve"/>
      <point x="413" y="111"/>
      <point x="368" y="74"/>
      <point x="295" y="74" type="curve" smooth="yes"/>
      <point x="191" y="74"/>
      <point x="162" y="132"/>
      <point x="162" y="234" type="curve" smooth="yes"/>
      <point x="162" y="377"/>
      <point x="198" y="440"/>
      <point x="266" y="440" type="curve" smooth="yes"/>
      <point x="325" y="440"/>
      <point x="357" y="394"/>
      <point x="348" y="254" type="curve"/>
      <point x="403" y="314" type="line"/>
      <point x="104" y="314" type="line"/>
      <point x="98" y="245" type="line"/>
      <point x="466" y="245" type="line"/>
      <point x="466" y="302" type="line" smooth="yes"/>
      <point x="468" y="425"/>
      <point x="410" y="520"/>
    </contour>
    <contour>
      <point x="409" y="54" type="line"/>
      <point x="350" y="37"/>
      <point x="284" y="-11"/>
      <point x="284" y="-83" type="curve" smooth="yes"/>
      <point x="284" y="-125"/>
      <point x="317" y="-162"/>
      <point x="379" y="-162" type="curve" smooth="yes"/>
      <point x="413" y="-162"/>
      <point x="447" y="-149"/>
      <point x="461" y="-129" type="curve"/>
      <point x="463" y="-118"/>
      <point x="460" y="-92"/>
      <point x="454" y="-88" type="curve"/>
      <point x="443" y="-97"/>
      <point x="422" y="-109"/>
      <point x="402" y="-109" type="curve" smooth="yes"/>
      <point x="379" y="-109"/>
      <point x="361" y="-93"/>
      <point x="361" y="-60" type="curve" smooth="yes"/>
      <point x="361" y="-17"/>
      <point x="382" y="10"/>
      <point x="423" y="30" type="curve"/>
    </contour>
  </outline>
</glyph>
<glyph name="gbreve" format="1">
  <advance width="483"/>
  <unicode hex="011F"/>
  <outline>
    <contour>
      <point x="418" y="335" type="curve" smooth="yes"/>
      <point x="425" y="466"/>
      <point x="331" y="520"/>
      <point x="232" y="520" type="curve" smooth="yes"/>
      <point x="109" y="520"/>
      <point x="35" y="436"/>
      <point x="35" y="328" type="curve" smooth="yes"/>
      <point x="35" y="219"/>
      <point x="110" y="146"/>
      <point x="222" y="146" type="curve" smooth="yes"/>
      <point x="335" y="146"/>
      <point x="412" y="221"/>
    </contour>
    <contour>
      <point x="224" y="219" type="curve" smooth="yes"/>
      <point x="179" y="219"/>
      <point x="149" y="252"/>
      <point x="149" y="330" type="curve" smooth="yes"/>
      <point x="149" y="400"/>
      <point x="174" y="444"/>
      <point x="225" y="444" type="curve" smooth="yes"/>
      <point x="275" y="444"/>
      <point x="302" y="402"/>
      <point x="302" y="332" type="curve" smooth="yes"/>
      <point x="302" y="259"/>
      <point x="272" y="219"/>
    </contour>
    <contour>
      <point x="136" y="201" type="line"/>
      <point x="94" y="160"/>
      <point x="62" y="113"/>
      <point x="62" y="65" type="curve" smooth="yes"/>
      <point x="62" y="-14"/>
      <point x="138" y="-17"/>
      <point x="234" y="-21" type="curve" smooth="yes"/>
      <point x="327" y="-25"/>
      <point x="386" y="-28"/>
      <point x="386" y="-62" type="curve" smooth="yes"/>
      <point x="386" y="-108"/>
      <point x="323" y="-144"/>
      <point x="235" y="-144" type="curve" smooth="yes"/>
      <point x="148" y="-144"/>
      <point x="108" y="-113"/>
      <point x="108" y="-71" type="curve" smooth="yes"/>
      <point x="108" y="-18"/>
      <point x="172" y="28"/>
      <point x="224" y="64" type="curve"/>
      <point x="186" y="80" type="line"/>
      <point x="120" y="60"/>
      <point x="19" y="-7"/>
      <point x="19" y="-98" type="curve" smooth="yes"/>
      <point x="19" y="-172"/>
      <point x="85" y="-233"/>
      <point x="218" y="-233" type="curve" smooth="yes"/>
      <point x="363" y="-233"/>
      <point x="471" y="-155"/>
      <point x="471" y="-31" type="curve" smooth="yes"/>
      <point x="471" y="62"/>
      <point x="403" y="90"/>
      <point x="275" y="95" type="curve" smooth="yes"/>
      <point x="187" y="98"/>
      <point x="158" y="100"/>
      <point x="158" y="115" type="curve" smooth="yes"/>
      <point x="158" y="125"/>
      <point x="171" y="158"/>
      <point x="195" y="184" type="curve"/>
    </contour>
    <contour>
      <point x="329" y="494" type="line"/>
      <point x="351" y="446" type="line"/>
      <point x="358" y="448"/>
      <point x="448" y="439"/>
      <point x="470" y="451" type="curve"/>
      <point x="486" y="463"/>
      <point x="481" y="518"/>
      <point x="470" y="532" type="curve"/>
    </contour>
    <contour>
      <point x="233" y="644" type="curve" smooth="yes"/>
      <point x="153" y="644"/>
      <point x="115" y="698"/>
      <point x="103" y="726" type="curve"/>
      <point x="67" y="706" type="line"/>
      <point x="76" y="634"/>
      <point x="127" y="559"/>
      <point x="232" y="559" type="curve" smooth="yes"/>
      <point x="336" y="559"/>
      <point x="388" y="634"/>
      <point x="397" y="706" type="curve"/>
      <point x="361" y="726" type="line"/>
      <point x="349" y="698"/>
      <point x="322" y="644"/>
    </contour>
  </outline>
</glyph>
<glyph name="Hbar" format="1">
  <advance width="766"/>
  <unicode hex="0126"/>
  <outline>
    <contour>
      <point x="49" y="522" type="line"/>
      <point x="49" y="452" type="line"/>
      <point x="721" y="452" type="line"/>
      <point x="721" y="522" type="line"/>
    </contour>
    <component base="H"/>
  </outline>
</glyph>
<glyph name="hbar" format="1">
  <advance width="649"/>
  <unicode hex="0127"/>
  <outline>
    <contour>
      <point x="37" y="590" type="line"/>
      <point x="37" y="530" type="line"/>
      <point x="311" y="530" type="line"/>
      <point x="311" y="590" type="line"/>
    </contour>
    <component base="h"/>
  </outline>
</glyph>
<glyph name="Iogonek" format="1">
  <advance width="351"/>
  <unicode hex="012E"/>
  <outline>
    <contour>
      <point x="238" y="655" type="line"/>
      <point x="113" y="658" type="line"/>
      <point x="113" y="0" type="line"/>
      <point x="238" y="0" type="line"/>
    </contour>
    <contour>
      <point x="239" y="71" type="line"/>
      <point x="113" y="69" type="line"/>
      <point x="84" y="67" type="line" smooth="yes"/>
      <point x="35" y="64"/>
      <point x="41" y="10"/>
      <point x="40" y="0" type="curve"/>
      <point x="265" y="0" type="line" smooth="yes"/>
      <point x="315" y="0"/>
      <point x="311" y="55"/>
      <point x="310" y="65" type="curve"/>
    </contour>
    <contour>
      <point x="112" y="614" type="line"/>
      <point x="238" y="616" type="line"/>
      <point x="267" y="618" type="line" smooth="yes"/>
      <point x="316" y="621"/>
      <point x="310" y="675"/>
      <point x="311" y="685" type="curve"/>
      <point x="86" y="685" type="line" smooth="yes"/>
      <point x="36" y="685"/>
      <point x="40" y="630"/>
      <point x="41" y="620" type="curve"/>
    </contour>
    <contour>
      <point x="270" y="34" type="line"/>
      <point x="211" y="17"/>
      <point x="145" y="-31"/>
      <point x="145" y="-103" type="curve" smooth="yes"/>
      <point x="145" y="-145"/>
      <point x="178" y="-182"/>
      <point x="240" y="-182" type="curve" smooth="yes"/>
      <point x="274" y="-182"/>
      <point x="308" y="-169"/>
      <point x="322" y="-149" type="curve"/>
      <point x="324" y="-138"/>
      <point x="321" y="-112"/>
      <point x="315" y="-108" type="curve"/>
      <point x="304" y="-117"/>
      <point x="283" y="-129"/>
      <point x="263" y="-129" type="curve" smooth="yes"/>
      <point x="240" y="-129"/>
      <point x="222" y="-113"/>
      <point x="222" y="-80" type="curve" smooth="yes"/>
      <point x="222" y="-37"/>
      <point x="243" y="-10"/>
      <point x="284" y="10" type="curve"/>
    </contour>
  </outline>
</glyph>
<glyph name="iogonek" format="1">
  <advance width="319"/>
  <unicode hex="012F"/>
  <outline>
    <contour>
      <point x="229" y="520" type="line"/>
      <point x="31" y="498" type="line"/>
      <point x="30" y="485"/>
      <point x="30" y="440"/>
      <point x="68" y="436" type="curve" smooth="yes"/>
      <point x="107" y="432" type="line"/>
      <point x="107" y="0" type="line"/>
      <point x="229" y="0" type="line"/>
    </contour>
    <contour>
      <point x="229" y="71" type="line"/>
      <point x="107" y="69" type="line"/>
      <point x="76" y="67" type="line" smooth="yes"/>
      <point x="27" y="64"/>
      <point x="33" y="10"/>
      <point x="32" y="0" type="curve"/>
      <point x="255" y="0" type="line" smooth="yes"/>
      <point x="305" y="0"/>
      <point x="301" y="55"/>
      <point x="300" y="65" type="curve"/>
    </contour>
    <contour>
      <point x="167" y="566" type="curve" smooth="yes"/>
      <point x="209" y="566"/>
      <point x="241" y="598"/>
      <point x="241" y="640" type="curve" smooth="yes"/>
      <point x="241" y="681"/>
      <point x="209" y="714"/>
      <point x="167" y="714" type="curve" smooth="yes"/>
      <point x="126" y="714"/>
      <point x="93" y="681"/>
      <point x="93" y="640" type="curve" smooth="yes"/>
      <point x="93" y="598"/>
      <point x="126" y="566"/>
    </contour>
    <contour>
      <point x="261" y="28" type="line"/>
      <point x="202" y="11"/>
      <point x="136" y="-37"/>
      <point x="136" y="-109" type="curve" smooth="yes"/>
      <point x="136" y="-151"/>
      <point x="169" y="-188"/>
      <point x="231" y="-188" type="curve" smooth="yes"/>
      <point x="265" y="-188"/>
      <point x="299" y="-175"/>
      <point x="313" y="-155" type="curve"/>
      <point x="315" y="-144"/>
      <point x="312" y="-118"/>
      <point x="306" y="-114" type="curve"/>
      <point x="295" y="-123"/>
      <point x="274" y="-135"/>
      <point x="254" y="-135" type="curve" smooth="yes"/>
      <point x="231" y="-135"/>
      <point x="213" y="-119"/>
      <point x="213" y="-86" type="curve" smooth="yes"/>
      <point x="213" y="-43"/>
      <point x="234" y="-16"/>
      <point x="275" y="4" type="curve"/>
    </contour>
  </outline>
</glyph>
<glyph name="dotlessi" format="1">
  <advance width="319"/>
  <unicode hex="0131"/>
  <outline>
    <contour>
      <point x="208" y="-23" type="move" name="ogonek"/>
    </contour>
    <contour>
      <point x="161" y="505" type="move" name="top"/>
    </contour>
    <contour>
      <point x="229" y="520" type="line"/>
      <point x="31" y="498" type="line"/>
      <point x="30" y="485"/>
      <point x="30" y="440"/>
      <point x="68" y="436" type="curve" smooth="yes"/>
      <point x="107" y="432" type="line"/>
      <point x="107" y="0" type="line"/>
      <point x="229" y="0" type="line"/>
    </contour>
    <contour>
      <point x="229" y="71" type="line"/>
      <point x="107" y="69" type="line"/>
      <point x="76" y="67" type="line" smooth="yes"/>
      <point x="27" y="64"/>
      <point x="33" y="10"/>
      <point x="32" y="0" type="curve"/>
      <point x="255" y="0" type="line" smooth="yes"/>
      <point x="305" y="0"/>
      <point x="301" y="55"/>
      <point x="300" y="65" type="curve"/>
    </contour>
  </outline>
</glyph>
<glyph name="IJ" format="1">
  <advance width="663"/>
  <unicode hex="0132"/>
  <outline>
    <contour>
      <point x="509" y="685" type="move" name="top"/>
    </contour>
    <contour>
      <point x="572" y="655" type="line"/>
      <point x="447" y="658" type="line"/>
      <point x="447" y="40" type="line" smooth="yes"/>
      <point x="447" y="-51"/>
      <point x="433" y="-71"/>
      <point x="411" y="-71" type="curve" smooth="yes"/>
      <point x="375" y="-71"/>
      <point x="361" y="-39"/>
      <point x="361" y="8" type="curve"/>
      <point x="297" y="8"/>
      <point x="276" y="-29"/>
      <point x="276" y="-72" type="curve" smooth="yes"/>
      <point x="276" y="-115"/>
      <point x="316" y="-155"/>
      <point x="382" y="-155" type="curve" smooth="yes"/>
      <point x="500" y="-155"/>
      <point x="572" y="-45"/>
      <point x="572" y="71" type="curve" smooth="yes"/>
    </contour>
    <contour>
      <point x="418" y="685" type="line"/>
      <point x="368" y="685"/>
      <point x="372" y="630"/>
      <point x="373" y="620" type="curve"/>
      <point x="446" y="614" type="line"/>
      <point x="572" y="616" type="line"/>
      <point x="601" y="618" type="line" smooth="yes"/>
      <point x="650" y="621"/>
      <point x="644" y="675"/>
      <point x="645" y="685" type="curve"/>
    </contour>
    <component base="I"/>
  </outline>
</glyph>
<glyph name="Lacute" format="1">
  <advance width="559"/>
  <unicode hex="0139"/>
  <outline>
    <contour>
      <point x="113" y="658" type="line"/>
      <point x="113" y="22" type="line"/>
      <point x="238" y="22" type="line"/>
      <point x="238" y="655" type="line"/>
    </contour>
    <contour>
      <point x="534" y="80" type="line"/>
      <point x="238" y="71" type="line"/>
      <point x="113" y="69" type="line"/>
      <point x="84" y="67" type="line" smooth="yes"/>
      <point x="35" y="64"/>
      <point x="41" y="10"/>
      <point x="40" y="0" type="curve"/>
      <point x="534" y="0" type="line"/>
    </contour>
    <contour>
      <point x="449" y="35" type="line"/>
      <point x="466" y="0" type="line"/>
      <point x="534" y="0" type="line"/>
      <point x="534" y="177" type="line" smooth="yes"/>
      <point x="534" y="221"/>
      <point x="480" y="217"/>
      <point x="470" y="216" type="curve"/>
    </contour>
    <contour>
      <point x="88" y="685" type="line"/>
      <point x="38" y="685"/>
      <point x="42" y="630"/>
      <point x="43" y="620" type="curve"/>
      <point x="114" y="614" type="line"/>
      <point x="240" y="616" type="line"/>
      <point x="289" y="618" type="line" smooth="yes"/>
      <point x="338" y="620"/>
      <point x="332" y="675"/>
      <point x="333" y="685" type="curve"/>
    </contour>
    <contour>
      <point x="394" y="842" type="line"/>
      <point x="384" y="863"/>
      <point x="346" y="903"/>
      <point x="312" y="910" type="curve"/>
      <point x="145" y="773" type="line"/>
      <point x="151" y="759"/>
      <point x="163" y="744"/>
      <point x="187" y="732" type="curve"/>
    </contour>
  </outline>
</glyph>
<glyph name="Lcaron" format="1">
  <advance width="600"/>
  <unicode hex="013D"/>
  <outline>
    <contour>
      <point x="383" y="761" type="curve"/>
      <point x="398" y="713"/>
      <point x="403" y="609"/>
      <point x="381" y="555" type="curve"/>
      <point x="381" y="547"/>
      <point x="426" y="524"/>
      <point x="434" y="529" type="curve"/>
      <point x="487" y="579"/>
      <point x="516" y="664"/>
      <point x="513" y="743" type="curve"/>
      <point x="501" y="777"/>
      <point x="401" y="784"/>
    </contour>
    <component base="L"/>
  </outline>
</glyph>
<glyph name="lcaron" format="1">
  <advance width="405"/>
  <unicode hex="013E"/>
  <outline>
    <contour>
      <point x="280" y="761" type="curve"/>
      <point x="295" y="713"/>
      <point x="299" y="614"/>
      <point x="277" y="560" type="curve"/>
      <point x="277" y="552"/>
      <point x="316" y="533"/>
      <point x="324" y="538" type="curve"/>
      <point x="369" y="590"/>
      <point x="398" y="666"/>
      <point x="395" y="745" type="curve"/>
      <point x="383" y="775"/>
      <point x="298" y="782"/>
    </contour>
    <component base="l"/>
  </outline>
</glyph>
<glyph name="Lslash" format="1">
  <advance width="559"/>
  <unicode hex="0141"/>
  <outline>
    <contour>
      <point x="337" y="483" type="line"/>
      <point x="13" y="230" type="line"/>
      <point x="59" y="175" type="line"/>
      <point x="382" y="428" type="line"/>
    </contour>
    <component base="L"/>
  </outline>
</glyph>
<glyph name="lslash" format="1">
  <advance width="330"/>
  <unicode hex="0142"/>
  <outline>
    <contour>
      <point x="306" y="528" type="line"/>
      <point x="-3" y="255" type="line"/>
      <point x="44" y="198" type="line"/>
      <point x="353" y="474" type="line"/>
    </contour>
    <component base="l"/>
  </outline>
</glyph>
<glyph name="Nacute" format="1">
  <advance width="694"/>
  <unicode hex="0143"/>
  <outline>
    <contour>
      <point x="503" y="685" type="line"/>
      <point x="453" y="685"/>
      <point x="457" y="630"/>
      <point x="458" y="620" type="curve"/>
      <point x="529" y="614" type="line"/>
      <point x="529" y="174" type="line"/>
      <point x="554" y="183" type="line"/>
      <point x="217" y="685" type="line"/>
      <point x="86" y="685" type="line" smooth="yes"/>
      <point x="36" y="685"/>
      <point x="40" y="630"/>
      <point x="41" y="620" type="curve"/>
      <point x="113" y="614" type="line"/>
      <point x="113" y="69" type="line"/>
      <point x="84" y="67" type="line" smooth="yes"/>
      <point x="35" y="64"/>
      <point x="41" y="10"/>
      <point x="40" y="0" type="curve"/>
      <point x="215" y="0" type="line" smooth="yes"/>
      <point x="265" y="0"/>
      <point x="261" y="55"/>
      <point x="260" y="65" type="curve"/>
      <point x="188" y="71" type="line"/>
      <point x="188" y="561" type="line"/>
      <point x="157" y="552" type="line"/>
      <point x="527" y="-1" type="line"/>
      <point x="557" y="-1"/>
      <point x="585" y="4"/>
      <point x="604" y="13" type="curve"/>
      <point x="604" y="616" type="line"/>
      <point x="633" y="618" type="line" smooth="yes"/>
      <point x="682" y="621"/>
      <point x="676" y="675"/>
      <point x="677" y="685" type="curve"/>
    </contour>
    <contour>
      <point x="520" y="842" type="line"/>
      <point x="510" y="863"/>
      <point x="472" y="903"/>
      <point x="438" y="910" type="curve"/>
      <point x="271" y="773" type="line"/>
      <point x="277" y="759"/>
      <point x="289" y="744"/>
      <point x="313" y="732" type="curve"/>
    </contour>
  </outline>
</glyph>
<glyph name="Ncaron" format="1">
  <advance width="694"/>
  <unicode hex="0147"/>
  <outline>
    <contour>
      <point x="503" y="685" type="line"/>
      <point x="453" y="685"/>
      <point x="457" y="630"/>
      <point x="458" y="620" type="curve"/>
      <point x="529" y="614" type="line"/>
      <point x="529" y="174" type="line"/>
      <point x="554" y="183" type="line"/>
      <point x="217" y="685" type="line"/>
      <point x="86" y="685" type="line" smooth="yes"/>
      <point x="36" y="685"/>
      <point x="40" y="630"/>
      <point x="41" y="620" type="curve"/>
      <point x="113" y="614" type="line"/>
      <point x="113" y="69" type="line"/>
      <point x="84" y="67" type="line" smooth="yes"/>
      <point x="35" y="64"/>
      <point x="41" y="10"/>
      <point x="40" y="0" type="curve"/>
      <point x="215" y="0" type="line" smooth="yes"/>
      <point x="265" y="0"/>
      <point x="261" y="55"/>
      <point x="260" y="65" type="curve"/>
      <point x="188" y="71" type="line"/>
      <point x="188" y="561" type="line"/>
      <point x="157" y="552" type="line"/>
      <point x="527" y="-1" type="line"/>
      <point x="557" y="-1"/>
      <point x="585" y="4"/>
      <point x="604" y="13" type="curve"/>
      <point x="604" y="616" type="line"/>
      <point x="633" y="618" type="line" smooth="yes"/>
      <point x="682" y="621"/>
      <point x="676" y="675"/>
      <point x="677" y="685" type="curve"/>
    </contour>
    <contour>
      <point x="391" y="741" type="line"/>
      <point x="359" y="733"/>
      <point x="347" y="734"/>
      <point x="315" y="741" type="curve"/>
      <point x="176" y="867" type="line"/>
      <point x="186" y="886"/>
      <point x="194" y="895"/>
      <point x="211" y="905" type="curve"/>
      <point x="399" y="789" type="line"/>
      <point x="303" y="789" type="line"/>
      <point x="489" y="905" type="line"/>
      <point x="505" y="896"/>
      <point x="517" y="881"/>
      <point x="526" y="867" type="curve"/>
    </contour>
  </outline>
</glyph>
<glyph name="ncaron" format="1">
  <advance width="649"/>
  <unicode hex="0148"/>
  <outline>
    <contour>
      <point x="559" y="71" type="line"/>
      <point x="559" y="310" type="line" smooth="yes"/>
      <point x="559" y="463"/>
      <point x="466" y="520"/>
      <point x="375" y="520" type="curve" smooth="yes"/>
      <point x="305" y="520"/>
      <point x="261" y="487"/>
      <point x="222" y="453" type="curve"/>
      <point x="219" y="453" type="line"/>
      <point x="212" y="514" type="line"/>
      <point x="31" y="492" type="line"/>
      <point x="30" y="479"/>
      <point x="30" y="434"/>
      <point x="68" y="430" type="curve" smooth="yes"/>
      <point x="107" y="426" type="line"/>
      <point x="107" y="69" type="line"/>
      <point x="76" y="67" type="line" smooth="yes"/>
      <point x="27" y="64"/>
      <point x="33" y="10"/>
      <point x="32" y="0" type="curve"/>
      <point x="255" y="0" type="line" smooth="yes"/>
      <point x="305" y="0"/>
      <point x="301" y="55"/>
      <point x="300" y="65" type="curve"/>
      <point x="229" y="71" type="line"/>
      <point x="229" y="374" type="line"/>
      <point x="263" y="403"/>
      <point x="292" y="420"/>
      <point x="348" y="420" type="curve" smooth="yes"/>
      <point x="402" y="420"/>
      <point x="437" y="396"/>
      <point x="437" y="315" type="curve" smooth="yes"/>
      <point x="437" y="69" type="line"/>
      <point x="408" y="67" type="line" smooth="yes"/>
      <point x="359" y="64"/>
      <point x="365" y="10"/>
      <point x="364" y="0" type="curve"/>
      <point x="585" y="0" type="line" smooth="yes"/>
      <point x="635" y="0"/>
      <point x="631" y="55"/>
      <point x="630" y="65" type="curve"/>
    </contour>
    <contour>
      <point x="382" y="561" type="line"/>
      <point x="350" y="553"/>
      <point x="338" y="554"/>
      <point x="306" y="561" type="curve"/>
      <point x="167" y="687" type="line"/>
      <point x="177" y="706"/>
      <point x="185" y="715"/>
      <point x="202" y="725" type="curve"/>
      <point x="390" y="609" type="line"/>
      <point x="294" y="609" type="line"/>
      <point x="480" y="725" type="line"/>
      <point x="496" y="716"/>
      <point x="508" y="701"/>
      <point x="517" y="687" type="curve"/>
    </contour>
  </outline>
</glyph>
<glyph name="Eng" format="1">
  <advance width="697"/>
  <unicode hex="014A"/>
  <outline>
    <contour>
      <point x="365" y="0" type="move" name="bottom"/>
    </contour>
    <contour>
      <point x="365" y="685" type="move" name="top"/>
    </contour>
    <contour>
      <point x="503" y="685" type="line"/>
      <point x="453" y="685"/>
      <point x="457" y="630"/>
      <point x="458" y="620" type="curve"/>
      <point x="529" y="614" type="line"/>
      <point x="529" y="173" type="line"/>
      <point x="553" y="182" type="line"/>
      <point x="216" y="685" type="line"/>
      <point x="86" y="685" type="line" smooth="yes"/>
      <point x="36" y="685"/>
      <point x="40" y="630"/>
      <point x="41" y="620" type="curve"/>
      <point x="113" y="614" type="line"/>
      <point x="113" y="69" type="line"/>
      <point x="84" y="67" type="line" smooth="yes"/>
      <point x="35" y="64"/>
      <point x="41" y="10"/>
      <point x="40" y="0" type="curve"/>
      <point x="217" y="0" type="line" smooth="yes"/>
      <point x="267" y="0"/>
      <point x="263" y="55"/>
      <point x="262" y="65" type="curve"/>
      <point x="190" y="71" type="line"/>
      <point x="190" y="561" type="line"/>
      <point x="159" y="552" type="line"/>
      <point x="522" y="9" type="line"/>
      <point x="522" y="-38"/>
      <point x="503" y="-103"/>
      <point x="446" y="-103" type="curve" smooth="yes"/>
      <point x="410" y="-103"/>
      <point x="396" y="-71"/>
      <point x="396" y="-24" type="curve"/>
      <point x="332" y="-24"/>
      <point x="311" y="-61"/>
      <point x="311" y="-104" type="curve" smooth="yes"/>
      <point x="311" y="-147"/>
      <point x="351" y="-187"/>
      <point x="417" y="-187" type="curve" smooth="yes"/>
      <point x="535" y="-187"/>
      <point x="607" y="-88"/>
      <point x="607" y="39" type="curve" smooth="yes"/>
      <point x="607" y="616" type="line"/>
      <point x="636" y="618" type="line" smooth="yes"/>
      <point x="685" y="621"/>
      <point x="679" y="675"/>
      <point x="680" y="685" type="curve"/>
    </contour>
  </outline>
</glyph>
<glyph name="eng" format="1">
  <advance width="633"/>
  <unicode hex="014B"/>
  <outline>
    <contour>
      <point x="327" y="0" type="move" name="bottom"/>
    </contour>
    <contour>
      <point x="327" y="505" type="move" name="top"/>
    </contour>
    <contour>
      <point x="375" y="520" type="curve" smooth="yes"/>
      <point x="305" y="520"/>
      <point x="261" y="487"/>
      <point x="222" y="453" type="curve"/>
      <point x="219" y="453" type="line"/>
      <point x="212" y="514" type="line"/>
      <point x="31" y="492" type="line"/>
      <point x="30" y="479"/>
      <point x="30" y="434"/>
      <point x="68" y="430" type="curve" smooth="yes"/>
      <point x="107" y="426" type="line"/>
      <point x="107" y="69" type="line"/>
      <point x="76" y="67" type="line" smooth="yes"/>
      <point x="27" y="64"/>
      <point x="33" y="10"/>
      <point x="32" y="0" type="curve"/>
      <point x="255" y="0" type="line" smooth="yes"/>
      <point x="305" y="0"/>
      <point x="301" y="55"/>
      <point x="300" y="65" type="curve"/>
      <point x="229" y="71" type="line"/>
      <point x="229" y="374" type="line"/>
      <point x="263" y="403"/>
      <point x="292" y="420"/>
      <point x="348" y="420" type="curve" smooth="yes"/>
      <point x="402" y="420"/>
      <point x="437" y="396"/>
      <point x="437" y="315" type="curve" smooth="yes"/>
      <point x="437" y="-22" type="line" smooth="yes"/>
      <point x="437" y="-143"/>
      <point x="411" y="-154"/>
      <point x="378" y="-154" type="curve" smooth="yes"/>
      <point x="350" y="-154"/>
      <point x="339" y="-127"/>
      <point x="339" y="-99" type="curve"/>
      <point x="300" y="-99"/>
      <point x="265" y="-118"/>
      <point x="265" y="-160" type="curve" smooth="yes"/>
      <point x="265" y="-225"/>
      <point x="333" y="-233"/>
      <point x="350" y="-233" type="curve" smooth="yes"/>
      <point x="466" y="-234"/>
      <point x="559" y="-148"/>
      <point x="559" y="75" type="curve" smooth="yes"/>
      <point x="559" y="310" type="line" smooth="yes"/>
      <point x="559" y="463"/>
      <point x="466" y="520"/>
    </contour>
  </outline>
</glyph>
<glyph name="oe" format="1">
  <advance width="843"/>
  <unicode hex="0153"/>
  <outline>
    <contour>
      <point x="895" y="3" type="move" name="ogonek"/>
    </contour>
    <contour>
      <point x="816" y="505" type="move" name="top"/>
    </contour>
    <contour>
      <point x="623" y="520" type="curve" smooth="yes"/>
      <point x="550" y="520"/>
      <point x="490" y="491"/>
      <point x="448" y="443" type="curve"/>
      <point x="410" y="489"/>
      <point x="354" y="520"/>
      <point x="282" y="520" type="curve" smooth="yes"/>
      <point x="121" y="520"/>
      <point x="35" y="415"/>
      <point x="35" y="238" type="curve" smooth="yes"/>
      <point x="35" y="78"/>
      <point x="112" y="-15"/>
      <point x="259" y="-15" type="curve" smooth="yes"/>
      <point x="336" y="-15"/>
      <point x="396" y="13"/>
      <point x="438" y="56" type="curve"/>
      <point x="477" y="13"/>
      <point x="535" y="-15"/>
      <point x="608" y="-15" type="curve" smooth="yes"/>
      <point x="727" y="-15"/>
      <point x="802" y="45"/>
      <point x="802" y="85" type="curve" smooth="yes"/>
      <point x="802" y="99"/>
      <point x="793" y="121"/>
      <point x="782" y="129" type="curve"/>
      <point x="759" y="111"/>
      <point x="714" y="74"/>
      <point x="641" y="74" type="curve" smooth="yes"/>
      <point x="537" y="74"/>
      <point x="508" y="132"/>
      <point x="508" y="234" type="curve" smooth="yes"/>
      <point x="508" y="238"/>
      <point x="508" y="241"/>
      <point x="508" y="245" type="curve"/>
      <point x="812" y="245" type="line"/>
      <point x="812" y="302" type="line" smooth="yes"/>
      <point x="814" y="425"/>
      <point x="756" y="520"/>
    </contour>
    <contour>
      <point x="271" y="443" type="curve" smooth="yes"/>
      <point x="341" y="443"/>
      <point x="380" y="367"/>
      <point x="380" y="243" type="curve" smooth="yes"/>
      <point x="380" y="130"/>
      <point x="341" y="61"/>
      <point x="271" y="61" type="curve" smooth="yes"/>
      <point x="201" y="61"/>
      <point x="162" y="130"/>
      <point x="162" y="251" type="curve" smooth="yes"/>
      <point x="162" y="367"/>
      <point x="201" y="443"/>
    </contour>
    <contour>
      <point x="612" y="440" type="curve" smooth="yes"/>
      <point x="662" y="440"/>
      <point x="692" y="408"/>
      <point x="695" y="314" type="curve"/>
      <point x="513" y="314" type="line"/>
      <point x="525" y="401"/>
      <point x="558" y="440"/>
    </contour>
  </outline>
</glyph>
<glyph name="scaron" format="1">
  <advance width="434"/>
  <unicode hex="0161"/>
  <outline>
    <contour>
      <point x="236" y="520" type="curve" smooth="yes"/>
      <point x="136" y="520"/>
      <point x="39" y="470"/>
      <point x="39" y="368" type="curve" smooth="yes"/>
      <point x="39" y="274"/>
      <point x="122" y="233"/>
      <point x="200" y="202" type="curve" smooth="yes"/>
      <point x="261" y="178"/>
      <point x="308" y="161"/>
      <point x="308" y="116" type="curve" smooth="yes"/>
      <point x="308" y="75"/>
      <point x="268" y="61"/>
      <point x="225" y="61" type="curve" smooth="yes"/>
      <point x="153" y="61"/>
      <point x="117" y="101"/>
      <point x="109" y="163" type="curve"/>
      <point x="67" y="163"/>
      <point x="25" y="139"/>
      <point x="25" y="89" type="curve" smooth="yes"/>
      <point x="25" y="14"/>
      <point x="118" y="-15"/>
      <point x="200" y="-15" type="curve" smooth="yes"/>
      <point x="330" y="-15"/>
      <point x="409" y="59"/>
      <point x="409" y="155" type="curve" smooth="yes"/>
      <point x="409" y="248"/>
      <point x="335" y="282"/>
      <point x="254" y="315" type="curve" smooth="yes"/>
      <point x="185" y="343"/>
      <point x="136" y="364"/>
      <point x="136" y="399" type="curve" smooth="yes"/>
      <point x="136" y="425"/>
      <point x="164" y="446"/>
      <point x="204" y="446" type="curve" smooth="yes"/>
      <point x="258" y="446"/>
      <point x="303" y="407"/>
      <point x="303" y="358" type="curve"/>
      <point x="349" y="351"/>
      <point x="383" y="379"/>
      <point x="383" y="427" type="curve" smooth="yes"/>
      <point x="383" y="500"/>
      <point x="300" y="520"/>
    </contour>
    <contour>
      <point x="264" y="561" type="line"/>
      <point x="232" y="553"/>
      <point x="220" y="554"/>
      <point x="188" y="561" type="curve"/>
      <point x="49" y="687" type="line"/>
      <point x="59" y="706"/>
      <point x="67" y="715"/>
      <point x="84" y="725" type="curve"/>
      <point x="272" y="609" type="line"/>
      <point x="176" y="609" type="line"/>
      <point x="362" y="725" type="line"/>
      <point x="378" y="716"/>
      <point x="390" y="701"/>
      <point x="399" y="687" type="curve"/>
    </contour>
  </outline>
</glyph>
<glyph name="tcaron" format="1">
  <advance width="410"/>
  <unicode hex="0165"/>
  <outline>
    <contour>
      <point x="252" y="761" type="curve"/>
      <point x="267" y="713"/>
      <point x="271" y="614"/>
      <point x="249" y="560" type="curve"/>
      <point x="249" y="552"/>
      <point x="288" y="533"/>
      <point x="296" y="538" type="curve"/>
      <point x="341" y="590"/>
      <point x="370" y="666"/>
      <point x="367" y="745" type="curve"/>
      <point x="355" y="775"/>
      <point x="270" y="782"/>
    </contour>
    <component base="t"/>
  </outline>
</glyph>
<glyph name="tbar" format="1">
  <advance width="410"/>
  <unicode hex="0167"/>
  <outline>
    <contour>
      <point x="-1" y="324" type="line"/>
      <point x="-1" y="264" type="line"/>
      <point x="363" y="264" type="line"/>
      <point x="363" y="324" type="line"/>
    </contour>
    <component base="t"/>
  </outline>
</glyph>
<glyph name="Uring" format="1">
  <advance width="669"/>
  <unicode hex="016E"/>
  <outline>
    <contour>
      <point x="479" y="685" type="line"/>
      <point x="429" y="685"/>
      <point x="433" y="630"/>
      <point x="434" y="620" type="curve"/>
      <point x="505" y="614" type="line"/>
      <point x="506" y="263" type="line" smooth="yes"/>
      <point x="506" y="121"/>
      <point x="446" y="65"/>
      <point x="348" y="65" type="curve" smooth="yes"/>
      <point x="241" y="65"/>
      <point x="208" y="133"/>
      <point x="208" y="275" type="curve" smooth="yes"/>
      <point x="208" y="616" type="line"/>
      <point x="237" y="618" type="line" smooth="yes"/>
      <point x="286" y="621"/>
      <point x="280" y="675"/>
      <point x="281" y="685" type="curve"/>
      <point x="56" y="685" type="line" smooth="yes"/>
      <point x="6" y="685"/>
      <point x="10" y="630"/>
      <point x="11" y="620" type="curve"/>
      <point x="83" y="614" type="line"/>
      <point x="83" y="291" type="line" smooth="yes"/>
      <point x="83" y="55"/>
      <point x="183" y="-15"/>
      <point x="330" y="-15" type="curve" smooth="yes"/>
      <point x="499" y="-15"/>
      <point x="586" y="77"/>
      <point x="586" y="290" type="curve" smooth="yes"/>
      <point x="586" y="616" type="line"/>
      <point x="615" y="618" type="line" smooth="yes"/>
      <point x="664" y="621"/>
      <point x="658" y="675"/>
      <point x="659" y="685" type="curve"/>
    </contour>
    <contour>
      <point x="345" y="909" type="curve" smooth="yes"/>
      <point x="287" y="909"/>
      <point x="248" y="872"/>
      <point x="248" y="816" type="curve" smooth="yes"/>
      <point x="248" y="763"/>
      <point x="285" y="727"/>
      <point x="341" y="727" type="curve" smooth="yes"/>
      <point x="398" y="727"/>
      <point x="437" y="764"/>
      <point x="438" y="820" type="curve" smooth="yes"/>
      <point x="439" y="873"/>
      <point x="402" y="909"/>
    </contour>
    <contour>
      <point x="343" y="860" type="curve" smooth="yes"/>
      <point x="369" y="860"/>
      <point x="386" y="844"/>
      <point x="386" y="818" type="curve" smooth="yes"/>
      <point x="386" y="792"/>
      <point x="369" y="775"/>
      <point x="343" y="775" type="curve" smooth="yes"/>
      <point x="317" y="775"/>
      <point x="301" y="792"/>
      <point x="301" y="818" type="curve" smooth="yes"/>
      <point x="301" y="844"/>
      <point x="317" y="860"/>
    </contour>
  </outline>
</glyph>
<glyph name="uring" format="1">
  <advance width="601"/>
  <unicode hex="016F"/>
  <outline>
    <contour>
      <point x="520" y="67" type="line"/>
      <point x="520" y="505" type="line"/>
      <point x="364" y="505" type="line" smooth="yes"/>
      <point x="315" y="505"/>
      <point x="321" y="444"/>
      <point x="320" y="434" type="curve"/>
      <point x="398" y="434" type="line"/>
      <point x="398" y="110" type="line"/>
      <point x="369" y="88"/>
      <point x="342" y="76"/>
      <point x="302" y="76" type="curve" smooth="yes"/>
      <point x="240" y="76"/>
      <point x="205" y="105"/>
      <point x="205" y="190" type="curve" smooth="yes"/>
      <point x="205" y="505" type="line"/>
      <point x="54" y="505" type="line" smooth="yes"/>
      <point x="5" y="505"/>
      <point x="11" y="444"/>
      <point x="10" y="434" type="curve"/>
      <point x="83" y="434" type="line"/>
      <point x="83" y="195" type="line" smooth="yes"/>
      <point x="83" y="42"/>
      <point x="176" y="-15"/>
      <point x="268" y="-15" type="curve" smooth="yes"/>
      <point x="333" y="-15"/>
      <point x="376" y="14"/>
      <point x="413" y="46" type="curve"/>
      <point x="434" y="-10" type="line"/>
      <point x="576" y="4" type="line"/>
      <point x="576" y="17"/>
      <point x="577" y="66"/>
      <point x="542" y="67" type="curve" smooth="yes"/>
    </contour>
    <contour>
      <point x="296" y="729" type="curve" smooth="yes"/>
      <point x="238" y="729"/>
      <point x="199" y="692"/>
      <point x="199" y="636" type="curve" smooth="yes"/>
      <point x="199" y="583"/>
      <point x="236" y="547"/>
      <point x="292" y="547" type="curve" smooth="yes"/>
      <point x="349" y="547"/>
      <point x="388" y="584"/>
      <point x="389" y="640" type="curve" smooth="yes"/>
      <point x="390" y="693"/>
      <point x="353" y="729"/>
    </contour>
    <contour>
      <point x="294" y="680" type="curve" smooth="yes"/>
      <point x="320" y="680"/>
      <point x="337" y="664"/>
      <point x="337" y="638" type="curve" smooth="yes"/>
      <point x="337" y="612"/>
      <point x="320" y="595"/>
      <point x="294" y="595" type="curve" smooth="yes"/>
      <point x="268" y="595"/>
      <point x="252" y="612"/>
      <point x="252" y="638" type="curve" smooth="yes"/>
      <point x="252" y="664"/>
      <point x="268" y="680"/>
    </contour>
  </outline>
</glyph>
<glyph name="Uogonek" format="1">
  <advance width="669"/>
  <unicode hex="0172"/>
  <outline>
    <contour>
      <point x="479" y="685" type="line"/>
      <point x="429" y="685"/>
      <point x="433" y="630"/>
      <point x="434" y="620" type="curve"/>
      <point x="505" y="614" type="line"/>
      <point x="506" y="263" type="line" smooth="yes"/>
      <point x="506" y="121"/>
      <point x="446" y="65"/>
      <point x="348" y="65" type="curve" smooth="yes"/>
      <point x="241" y="65"/>
      <point x="208" y="133"/>
      <point x="208" y="275" type="curve" smooth="yes"/>
      <point x="208" y="616" type="line"/>
      <point x="237" y="618" type="line" smooth="yes"/>
      <point x="286" y="621"/>
      <point x="280" y="675"/>
      <point x="281" y="685" type="curve"/>
      <point x="56" y="685" type="line" smooth="yes"/>
      <point x="6" y="685"/>
      <point x="10" y="630"/>
      <point x="11" y="620" type="curve"/>
      <point x="83" y="614" type="line"/>
      <point x="83" y="291" type="line" smooth="yes"/>
      <point x="83" y="55"/>
      <point x="183" y="-15"/>
      <point x="330" y="-15" type="curve" smooth="yes"/>
      <point x="499" y="-15"/>
      <point x="586" y="77"/>
      <point x="586" y="290" type="curve" smooth="yes"/>
      <point x="586" y="616" type="line"/>
      <point x="615" y="618" type="line" smooth="yes"/>
      <point x="664" y="621"/>
      <point x="658" y="675"/>
      <point x="659" y="685" type="curve"/>
    </contour>
    <contour>
      <point x="401" y="19" type="line"/>
      <point x="342" y="2"/>
      <point x="276" y="-46"/>
      <point x="276" y="-118" type="curve" smooth="yes"/>
      <point x="276" y="-160"/>
      <point x="309" y="-197"/>
      <point x="371" y="-197" type="curve" smooth="yes"/>
      <point x="405" y="-197"/>
      <point x="439" y="-184"/>
      <point x="453" y="-164" type="curve"/>
      <point x="455" y="-153"/>
      <point x="452" y="-127"/>
      <point x="446" y="-123" type="curve"/>
      <point x="435" y="-132"/>
      <point x="414" y="-144"/>
      <point x="394" y="-144" type="curve" smooth="yes"/>
      <point x="371" y="-144"/>
      <point x="353" y="-128"/>
      <point x="353" y="-95" type="curve" smooth="yes"/>
      <point x="353" y="-52"/>
      <point x="374" y="-25"/>
      <point x="415" y="-5" type="curve"/>
    </contour>
  </outline>
</glyph>
<glyph name="Zdotaccent" format="1">
  <advance width="590"/>
  <unicode hex="017B"/>
  <outline>
    <contour>
      <point x="65" y="685" type="line"/>
      <point x="68" y="599" type="line"/>
      <point x="495" y="614" type="line"/>
      <point x="429" y="664" type="line"/>
      <point x="14" y="53" type="line"/>
      <point x="17" y="32"/>
      <point x="25" y="17"/>
      <point x="33" y="0" type="curve"/>
      <point x="556" y="0" type="line"/>
      <point x="517" y="90" type="line"/>
      <point x="59" y="66" type="line"/>
      <point x="156" y="34" type="line"/>
      <point x="557" y="636" type="line"/>
      <point x="557" y="659"/>
      <point x="543" y="676"/>
      <point x="530" y="685" type="curve"/>
    </contour>
    <contour>
      <point x="556" y="224" type="line"/>
      <point x="518" y="231"/>
      <point x="488" y="224"/>
      <point x="481" y="171" type="curve" smooth="yes"/>
      <point x="463" y="43" type="line"/>
      <point x="556" y="0" type="line"/>
    </contour>
    <contour>
      <point x="65" y="464" type="line"/>
      <point x="100" y="457"/>
      <point x="135" y="464"/>
      <point x="142" y="519" type="curve" smooth="yes"/>
      <point x="155" y="642" type="line"/>
      <point x="65" y="685" type="line"/>
    </contour>
    <contour>
      <point x="315" y="746" type="curve" smooth="yes"/>
      <point x="357" y="746"/>
      <point x="389" y="778"/>
      <point x="389" y="820" type="curve" smooth="yes"/>
      <point x="389" y="861"/>
      <point x="357" y="894"/>
      <point x="315" y="894" type="curve" smooth="yes"/>
      <point x="274" y="894"/>
      <point x="241" y="861"/>
      <point x="241" y="820" type="curve" smooth="yes"/>
      <point x="241" y="778"/>
      <point x="274" y="746"/>
    </contour>
  </outline>
</glyph>
<glyph name="longs" format="1">
  <advance width="394"/>
  <unicode hex="017F"/>
  <outline>
    <contour>
      <point x="296" y="730" type="curve" smooth="yes"/>
      <point x="180" y="728"/>
      <point x="103" y="639"/>
      <point x="103" y="489" type="curve" smooth="yes"/>
      <point x="103" y="0" type="line"/>
      <point x="225" y="0" type="line"/>
      <point x="225" y="536" type="line" smooth="yes"/>
      <point x="225" y="634"/>
      <point x="250" y="660"/>
      <point x="280" y="660" type="curve" smooth="yes"/>
      <point x="307" y="660"/>
      <point x="329" y="643"/>
      <point x="329" y="596" type="curve"/>
      <point x="371" y="596"/>
      <point x="408" y="614"/>
      <point x="408" y="662" type="curve" smooth="yes"/>
      <point x="408" y="712"/>
      <point x="363" y="731"/>
    </contour>
    <contour>
      <point x="226" y="71" type="line"/>
      <point x="103" y="69" type="line"/>
      <point x="74" y="67" type="line" smooth="yes"/>
      <point x="25" y="64"/>
      <point x="31" y="10"/>
      <point x="30" y="0" type="curve"/>
      <point x="282" y="0" type="line" smooth="yes"/>
      <point x="332" y="0"/>
      <point x="328" y="55"/>
      <point x="327" y="65" type="curve"/>
    </contour>
    <contour>
      <point x="148" y="505" type="line"/>
      <point x="81" y="505" type="line" smooth="yes"/>
      <point x="39" y="505"/>
      <point x="32" y="467"/>
      <point x="32" y="435" type="curve"/>
      <point x="148" y="435" type="line"/>
    </contour>
  </outline>
</glyph>
<glyph name="dotlessj" format="1">
  <advance width="286"/>
  <unicode hex="0237"/>
  <outline>
    <contour>
      <point x="150" y="505" type="move" name="top"/>
    </contour>
    <contour>
      <point x="212" y="520" type="line"/>
      <point x="13" y="499" type="line"/>
      <point x="13" y="486"/>
      <point x="13" y="440"/>
      <point x="47" y="437" type="curve" smooth="yes"/>
      <point x="90" y="433" type="line"/>
      <point x="90" y="-22" type="line" smooth="yes"/>
      <point x="90" y="-143"/>
      <point x="64" y="-154"/>
      <point x="31" y="-154" type="curve" smooth="yes"/>
      <point x="3" y="-154"/>
      <point x="-8" y="-127"/>
      <point x="-8" y="-99" type="curve"/>
      <point x="-47" y="-99"/>
      <point x="-82" y="-118"/>
      <point x="-82" y="-160" type="curve" smooth="yes"/>
      <point x="-82" y="-225"/>
      <point x="-14" y="-233"/>
      <point x="3" y="-233" type="curve" smooth="yes"/>
      <point x="119" y="-234"/>
      <point x="212" y="-148"/>
      <point x="212" y="75" type="curve" smooth="yes"/>
    </contour>
  </outline>
</glyph>
<glyph name="ring" format="1">
  <advance width="320"/>
  <unicode hex="02DA"/>
  <outline>
    <contour>
      <point x="160" y="505" type="move" name="_top"/>
    </contour>
    <contour>
      <point x="165" y="729" type="curve" smooth="yes"/>
      <point x="107" y="729"/>
      <point x="68" y="692"/>
      <point x="68" y="636" type="curve" smooth="yes"/>
      <point x="68" y="583"/>
      <point x="105" y="547"/>
      <point x="161" y="547" type="curve" smooth="yes"/>
      <point x="218" y="547"/>
      <point x="257" y="584"/>
      <point x="258" y="640" type="curve" smooth="yes"/>
      <point x="259" y="693"/>
      <point x="222" y="729"/>
    </contour>
    <contour>
      <point x="163" y="680" type="curve" smooth="yes"/>
      <point x="189" y="680"/>
      <point x="206" y="664"/>
      <point x="206" y="638" type="curve" smooth="yes"/>
      <point x="206" y="612"/>
      <point x="189" y="595"/>
      <point x="163" y="595" type="curve" smooth="yes"/>
      <point x="137" y="595"/>
      <point x="121" y="612"/>
      <point x="121" y="638" type="curve" smooth="yes"/>
      <point x="121" y="664"/>
      <point x="137" y="680"/>
    </contour>
  </outline>
</glyph>
<glyph name="pi" format="1">
  <advance width="680"/>
  <unicode hex="03C0"/>
  <outline>
    <contour>
      <point x="626" y="544" type="line"/>
      <point x="603" y="518"/>
      <point x="584" y="505"/>
      <point x="537" y="505" type="curve" smooth="yes"/>
      <point x="178" y="505" type="line" smooth="yes"/>
      <point x="81" y="505"/>
      <point x="36" y="447"/>
      <point x="10" y="394" type="curve"/>
      <point x="62" y="364" type="line"/>
      <point x="80" y="392"/>
      <point x="99" y="409"/>
      <point x="150" y="409" type="curve" smooth="yes"/>
      <point x="529" y="407" type="line" smooth="yes"/>
      <point x="615" y="407"/>
      <point x="664" y="487"/>
      <point x="670" y="506" type="curve"/>
    </contour>
    <contour>
      <point x="173" y="429" type="line"/>
      <point x="167" y="318"/>
      <point x="158" y="60"/>
      <point x="154" y="0" type="curve"/>
      <point x="272" y="0" type="line"/>
      <point x="272" y="0"/>
      <point x="288" y="388"/>
      <point x="290" y="442" type="curve"/>
    </contour>
    <contour>
      <point x="433" y="431" type="line"/>
      <point x="430" y="310"/>
      <point x="428" y="161"/>
      <point x="428" y="91" type="curve" smooth="yes"/>
      <point x="428" y="29"/>
      <point x="445" y="-15"/>
      <point x="518" y="-15" type="curve" smooth="yes"/>
      <point x="592" y="-15"/>
      <point x="616" y="27"/>
      <point x="616" y="64" type="curve"/>
      <point x="540" y="73" type="line"/>
      <point x="540" y="87"/>
      <point x="540" y="330"/>
      <point x="543" y="437" type="curve"/>
    </contour>
  </outline>
</glyph>
<glyph name="dvAnusvara" format="1">
  <advance width="0"/>
  <unicode hex="0902"/>
  <outline>
    <contour>
      <point x="-155" y="686" type="curve" smooth="yes"/>
      <point x="-138" y="686"/>
      <point x="-82" y="736"/>
      <point x="-82" y="747" type="curve" smooth="yes"/>
      <point x="-82" y="767"/>
      <point x="-131" y="825"/>
      <point x="-148" y="825" type="curve" smooth="yes"/>
      <point x="-163" y="825"/>
      <point x="-221" y="778"/>
      <point x="-221" y="759" type="curve" smooth="yes"/>
      <point x="-221" y="743"/>
      <point x="-175" y="686"/>
    </contour>
    <contour>
      <point x="-88" y="625" type="move" name="_abvm_Anusvara"/>
    </contour>
  </outline>
</glyph>
<glyph name="dvVisarga" format="1">
  <advance width="305"/>
  <unicode hex="0903"/>
  <outline>
    <contour>
      <point x="126" y="38" type="curve" smooth="yes"/>
      <point x="143" y="38"/>
      <point x="198" y="88"/>
      <point x="198" y="99" type="curve" smooth="yes"/>
      <point x="198" y="118"/>
      <point x="149" y="175"/>
      <point x="133" y="175" type="curve" smooth="yes"/>
      <point x="118" y="175"/>
      <point x="61" y="128"/>
      <point x="61" y="110" type="curve" smooth="yes"/>
      <point x="61" y="95"/>
      <point x="107" y="38"/>
    </contour>
    <contour>
      <point x="126" y="334" type="curve" smooth="yes"/>
      <point x="143" y="334"/>
      <point x="198" y="384"/>
      <point x="198" y="395" type="curve" smooth="yes"/>
      <point x="198" y="414"/>
      <point x="149" y="471"/>
      <point x="133" y="471" type="curve" smooth="yes"/>
      <point x="118" y="471"/>
      <point x="61" y="424"/>
      <point x="61" y="407" type="curve" smooth="yes"/>
      <point x="61" y="390"/>
      <point x="107" y="334"/>
    </contour>
  </outline>
</glyph>
<glyph name="dvII" format="1">
  <advance width="506"/>
  <unicode hex="0908"/>
  <outline>
    <contour>
      <point x="392" y="575" type="curve"/>
      <point x="424" y="596" type="line"/>
      <point x="406" y="614"/>
      <point x="354" y="665"/>
      <point x="354" y="739" type="curve" smooth="yes"/>
      <point x="354" y="796"/>
      <point x="386" y="833"/>
      <point x="435" y="833" type="curve" smooth="yes"/>
      <point x="480" y="833"/>
      <point x="500" y="813"/>
      <point x="514" y="798" type="curve"/>
      <point x="545" y="820" type="line"/>
      <point x="533" y="869"/>
      <point x="491" y="921"/>
      <point x="412" y="921" type="curve" smooth="yes"/>
      <point x="316" y="921"/>
      <point x="250" y="847"/>
      <point x="250" y="767" type="curve" smooth="yes"/>
      <point x="250" y="663"/>
      <point x="364" y="590"/>
    </contour>
    <contour>
      <point x="418" y="543" type="line"/>
      <point x="298" y="543" type="line"/>
      <point x="298" y="461" type="line"/>
      <point x="193" y="461" type="line" smooth="yes"/>
      <point x="104" y="461"/>
      <point x="48" y="413"/>
      <point x="48" y="334" type="curve" smooth="yes"/>
      <point x="48" y="225"/>
      <point x="153" y="160"/>
      <point x="203" y="160" type="curve" smooth="yes"/>
      <point x="244" y="160"/>
      <point x="341" y="203"/>
      <point x="373" y="203" type="curve" smooth="yes"/>
      <point x="388" y="203"/>
      <point x="400" y="194"/>
      <point x="400" y="176" type="curve" smooth="yes"/>
      <point x="400" y="135"/>
      <point x="336" y="70"/>
      <point x="245" y="70" type="curve" smooth="yes"/>
      <point x="233" y="70"/>
      <point x="204" y="72"/>
      <point x="186" y="78" type="curve"/>
      <point x="174" y="103"/>
      <point x="148" y="154"/>
      <point x="107" y="154" type="curve" smooth="yes"/>
      <point x="80" y="154"/>
      <point x="41" y="124"/>
      <point x="41" y="83" type="curve" smooth="yes"/>
      <point x="41" y="19"/>
      <point x="168" y="-24"/>
      <point x="242" y="-24" type="curve" smooth="yes"/>
      <point x="399" y="-24"/>
      <point x="475" y="66"/>
      <point x="475" y="138" type="curve" smooth="yes"/>
      <point x="475" y="196"/>
      <point x="425" y="305"/>
      <point x="339" y="305" type="curve" smooth="yes"/>
      <point x="285" y="305"/>
      <point x="180" y="263"/>
      <point x="156" y="263" type="curve" smooth="yes"/>
      <point x="148" y="263"/>
      <point x="137" y="267"/>
      <point x="137" y="294" type="curve" smooth="yes"/>
      <point x="137" y="354"/>
      <point x="191" y="362"/>
      <point x="282" y="362" type="curve" smooth="yes"/>
      <point x="337" y="362"/>
      <point x="356" y="359"/>
      <point x="367" y="359" type="curve" smooth="yes"/>
      <point x="385" y="359"/>
      <point x="418" y="398"/>
      <point x="418" y="423" type="curve" smooth="yes"/>
    </contour>
    <contour>
      <point x="176" y="37" type="curve"/>
      <point x="135" y="18" type="line"/>
      <point x="179" y="-36"/>
      <point x="214" y="-139"/>
      <point x="239" y="-197" type="curve"/>
      <point x="260" y="-190"/>
      <point x="322" y="-149"/>
      <point x="329" y="-133" type="curve"/>
      <point x="311" y="-102"/>
      <point x="218" y="6"/>
    </contour>
    <contour>
      <point x="517" y="625" type="curve"/>
      <point x="-49" y="625" type="line"/>
      <point x="-49" y="584"/>
      <point x="-31" y="546"/>
      <point x="-10" y="520" type="curve"/>
      <point x="556" y="520" type="line"/>
      <point x="556" y="561"/>
      <point x="538" y="599"/>
    </contour>
  </outline>
</glyph>
<glyph name="dvU" format="1">
  <advance width="559"/>
  <unicode hex="0909"/>
  <outline>
    <contour>
      <point x="214" y="339" type="curve"/>
      <point x="219" y="305"/>
      <point x="247" y="255"/>
      <point x="258" y="244" type="curve"/>
      <point x="268" y="245"/>
      <point x="297" y="254"/>
      <point x="325" y="254" type="curve" smooth="yes"/>
      <point x="376" y="254"/>
      <point x="413" y="226"/>
      <point x="413" y="180" type="curve" smooth="yes"/>
      <point x="413" y="134"/>
      <point x="376" y="96"/>
      <point x="316" y="96" type="curve" smooth="yes"/>
      <point x="215" y="96"/>
      <point x="138" y="203"/>
      <point x="75" y="338" type="curve"/>
      <point x="55" y="333"/>
      <point x="20" y="314"/>
      <point x="13" y="305" type="curve"/>
      <point x="66" y="166"/>
      <point x="169" y="-19"/>
      <point x="344" y="-19" type="curve" smooth="yes"/>
      <point x="458" y="-19"/>
      <point x="528" y="59"/>
      <point x="528" y="157" type="curve" smooth="yes"/>
      <point x="528" y="264"/>
      <point x="446" y="319"/>
      <point x="354" y="324" type="curve"/>
      <point x="361" y="295" type="line"/>
      <point x="421" y="322"/>
      <point x="475" y="378"/>
      <point x="475" y="440" type="curve" smooth="yes"/>
      <point x="475" y="506"/>
      <point x="420" y="548"/>
      <point x="377" y="568" type="curve"/>
      <point x="248" y="568" type="line"/>
      <point x="292" y="554"/>
      <point x="369" y="530"/>
      <point x="369" y="460" type="curve" smooth="yes"/>
      <point x="369" y="421"/>
      <point x="335" y="389"/>
      <point x="288" y="365" type="curve" smooth="yes"/>
      <point x="263" y="352"/>
      <point x="237" y="343"/>
    </contour>
    <contour>
      <point x="569" y="625" type="curve"/>
      <point x="-49" y="625" type="line"/>
      <point x="-49" y="584"/>
      <point x="-31" y="546"/>
      <point x="-10" y="520" type="curve"/>
      <point x="608" y="520" type="line"/>
      <point x="608" y="561"/>
      <point x="590" y="599"/>
    </contour>
  </outline>
</glyph>
<glyph name="dvVocalicL" format="1">
  <advance width="729"/>
  <unicode hex="090C"/>
  <outline>
    <contour>
      <point x="740" y="625" type="curve"/>
      <point x="-49" y="625" type="line"/>
      <point x="-49" y="584"/>
      <point x="-31" y="546"/>
      <point x="-10" y="520" type="curve"/>
      <point x="779" y="520" type="line"/>
      <point x="779" y="561"/>
      <point x="761" y="599"/>
    </contour>
    <contour>
      <point x="449" y="572" type="line"/>
      <point x="449" y="442" type="line"/>
      <point x="569" y="399" type="line"/>
      <point x="569" y="570" type="line"/>
    </contour>
    <contour>
      <point x="486" y="451" type="curve" smooth="yes"/>
      <point x="350" y="451"/>
      <point x="303" y="318"/>
      <point x="290" y="230" type="curve"/>
      <point x="300" y="219"/>
      <point x="362" y="189"/>
      <point x="387" y="187" type="curve"/>
      <point x="396" y="257"/>
      <point x="424" y="362"/>
      <point x="513" y="362" type="curve" smooth="yes"/>
      <point x="549" y="362"/>
      <point x="568" y="342"/>
      <point x="568" y="315" type="curve" smooth="yes"/>
      <point x="568" y="290"/>
      <point x="546" y="263"/>
      <point x="504" y="206" type="curve" smooth="yes"/>
      <point x="479" y="173"/>
      <point x="452" y="137"/>
      <point x="452" y="94" type="curve" smooth="yes"/>
      <point x="452" y="29"/>
      <point x="516" y="-35"/>
      <point x="595" y="-35" type="curve" smooth="yes"/>
      <point x="649" y="-35"/>
      <point x="708" y="-6"/>
      <point x="734" y="31" type="curve"/>
      <point x="726" y="55"/>
      <point x="686" y="99"/>
      <point x="663" y="119" type="curve"/>
      <point x="634" y="84"/>
      <point x="597" y="50"/>
      <point x="566" y="50" type="curve" smooth="yes"/>
      <point x="554" y="50"/>
      <point x="542" y="55"/>
      <point x="542" y="68" type="curve" smooth="yes"/>
      <point x="542" y="92"/>
      <point x="579" y="133"/>
      <point x="601" y="164" type="curve" smooth="yes"/>
      <point x="628" y="202"/>
      <point x="660" y="246"/>
      <point x="660" y="295" type="curve" smooth="yes"/>
      <point x="660" y="392"/>
      <point x="580" y="451"/>
    </contour>
    <contour>
      <point x="311" y="264" type="curve"/>
      <point x="334" y="345" type="line"/>
      <point x="327" y="375"/>
      <point x="282" y="452"/>
      <point x="185" y="452" type="curve" smooth="yes"/>
      <point x="106" y="452"/>
      <point x="20" y="401"/>
      <point x="20" y="291" type="curve" smooth="yes"/>
      <point x="20" y="153"/>
      <point x="155" y="40"/>
      <point x="236" y="-16" type="curve"/>
      <point x="251" y="-4"/>
      <point x="272" y="25"/>
      <point x="281" y="41" type="curve"/>
      <point x="202" y="104"/>
      <point x="134" y="163"/>
      <point x="134" y="251" type="curve" smooth="yes"/>
      <point x="134" y="306"/>
      <point x="161" y="344"/>
      <point x="213" y="344" type="curve" smooth="yes"/>
      <point x="271" y="344"/>
      <point x="312" y="295"/>
    </contour>
  </outline>
</glyph>
<glyph name="dvEcandra" format="1">
  <advance width="597"/>
  <unicode hex="090D"/>
  <outline>
    <contour>
      <point x="209" y="566" type="line"/>
      <point x="88" y="566" type="line"/>
      <point x="88" y="314" type="line" smooth="yes"/>
      <point x="88" y="198"/>
      <point x="149" y="140"/>
      <point x="188" y="114" type="curve" smooth="yes"/>
      <point x="271" y="59"/>
      <point x="437" y="-41"/>
      <point x="437" y="-69" type="curve" smooth="yes"/>
      <point x="437" y="-88"/>
      <point x="401" y="-108"/>
      <point x="366" y="-127" type="curve"/>
      <point x="382" y="-154"/>
      <point x="415" y="-194"/>
      <point x="443" y="-212" type="curve"/>
      <point x="485" y="-168"/>
      <point x="522" y="-127"/>
      <point x="522" y="-51" type="curve" smooth="yes"/>
      <point x="522" y="53"/>
      <point x="408" y="98"/>
      <point x="296" y="169" type="curve" smooth="yes"/>
      <point x="220" y="217"/>
      <point x="207" y="238"/>
      <point x="207" y="302" type="curve" smooth="yes"/>
    </contour>
    <contour>
      <point x="509" y="559" type="line"/>
      <point x="388" y="559" type="line"/>
      <point x="388" y="334" type="line" smooth="yes"/>
      <point x="388" y="293"/>
      <point x="356" y="278"/>
      <point x="323" y="268" type="curve"/>
      <point x="330" y="240"/>
      <point x="361" y="184"/>
      <point x="380" y="170" type="curve"/>
      <point x="456" y="196"/>
      <point x="509" y="251"/>
      <point x="509" y="346" type="curve" smooth="yes"/>
    </contour>
    <contour>
      <point x="607" y="625" type="curve"/>
      <point x="-50" y="625" type="line"/>
      <point x="-50" y="584"/>
      <point x="-32" y="546"/>
      <point x="-11" y="520" type="curve"/>
      <point x="646" y="520" type="line"/>
      <point x="646" y="561"/>
      <point x="628" y="599"/>
    </contour>
    <contour>
      <point x="437" y="899" type="curve"/>
      <point x="401" y="823"/>
      <point x="360" y="784"/>
      <point x="294" y="784" type="curve" smooth="yes"/>
      <point x="254" y="784"/>
      <point x="203" y="801"/>
      <point x="159" y="880" type="curve"/>
      <point x="140" y="871"/>
      <point x="109" y="856"/>
      <point x="94" y="841" type="curve"/>
      <point x="125" y="765"/>
      <point x="198" y="690"/>
      <point x="316" y="690" type="curve" smooth="yes"/>
      <point x="425" y="690"/>
      <point x="505" y="765"/>
      <point x="536" y="831" type="curve"/>
      <point x="516" y="854"/>
      <point x="467" y="888"/>
    </contour>
  </outline>
</glyph>
<glyph name="dvE" format="1">
  <advance width="597"/>
  <unicode hex="090F"/>
  <outline>
    <contour>
      <point x="209" y="566" type="line"/>
      <point x="88" y="566" type="line"/>
      <point x="88" y="314" type="line" smooth="yes"/>
      <point x="88" y="198"/>
      <point x="149" y="140"/>
      <point x="188" y="114" type="curve" smooth="yes"/>
      <point x="271" y="59"/>
      <point x="437" y="-41"/>
      <point x="437" y="-69" type="curve" smooth="yes"/>
      <point x="437" y="-88"/>
      <point x="401" y="-108"/>
      <point x="366" y="-127" type="curve"/>
      <point x="382" y="-154"/>
      <point x="415" y="-194"/>
      <point x="443" y="-212" type="curve"/>
      <point x="485" y="-168"/>
      <point x="522" y="-127"/>
      <point x="522" y="-51" type="curve" smooth="yes"/>
      <point x="522" y="53"/>
      <point x="408" y="98"/>
      <point x="296" y="169" type="curve" smooth="yes"/>
      <point x="220" y="217"/>
      <point x="207" y="238"/>
      <point x="207" y="302" type="curve" smooth="yes"/>
    </contour>
    <contour>
      <point x="509" y="559" type="line"/>
      <point x="388" y="559" type="line"/>
      <point x="388" y="334" type="line" smooth="yes"/>
      <point x="388" y="293"/>
      <point x="356" y="278"/>
      <point x="323" y="268" type="curve"/>
      <point x="330" y="240"/>
      <point x="361" y="184"/>
      <point x="380" y="170" type="curve"/>
      <point x="456" y="196"/>
      <point x="509" y="251"/>
      <point x="509" y="346" type="curve" smooth="yes"/>
    </contour>
    <contour>
      <point x="607" y="625" type="curve"/>
      <point x="-50" y="625" type="line"/>
      <point x="-50" y="584"/>
      <point x="-32" y="546"/>
      <point x="-11" y="520" type="curve"/>
      <point x="646" y="520" type="line"/>
      <point x="646" y="561"/>
      <point x="628" y="599"/>
    </contour>
  </outline>
</glyph>
